<?xml version="1.0" encoding="UTF-8" standalone="no"?>
<!-- Created with Inkscape (http://www.inkscape.org/) -->

<svg
   width="210mm"
   height="297mm"
   viewBox="0 0 210 297"
   version="1.1"
   id="svg1"
   sodipodi:docname="capro_logo_f2.svg"
   inkscape:version="1.3 (0e150ed, 2023-07-21)"
   inkscape:export-filename="capro_logo_f2.png"
   inkscape:export-xdpi="96"
   inkscape:export-ydpi="96"
   xmlns:inkscape="http://www.inkscape.org/namespaces/inkscape"
   xmlns:sodipodi="http://sodipodi.sourceforge.net/DTD/sodipodi-0.dtd"
   xmlns="http://www.w3.org/2000/svg"
   xmlns:svg="http://www.w3.org/2000/svg">
  <sodipodi:namedview
     id="namedview1"
     pagecolor="#505050"
     bordercolor="#eeeeee"
     borderopacity="1"
     inkscape:showpageshadow="0"
     inkscape:pageopacity="0"
     inkscape:pagecheckerboard="0"
     inkscape:deskcolor="#505050"
     inkscape:document-units="mm"
     inkscape:zoom="0.42721638"
     inkscape:cx="252.79929"
     inkscape:cy="525.49483"
     inkscape:window-width="1408"
     inkscape:window-height="859"
     inkscape:window-x="0"
     inkscape:window-y="39"
     inkscape:window-maximized="0"
     inkscape:current-layer="layer2" />
  <defs
     id="defs1" />
  <g
     inkscape:label="bkg"
     inkscape:groupmode="layer"
     id="layer1"
     transform="matrix(1,0,0,0.46862438,0,-0.66872265)"
     sodipodi:insensitive="true">
    <rect
       style="fill:#f9f9f9;stroke-width:0.301806;stroke-linecap:square;stroke-linejoin:bevel;stroke-miterlimit:10"
       id="rect1"
       width="211.42969"
       height="300.77542"
       x="-1.2584745"
       y="-1.2584745" />
    <rect
       style="fill:#20242a;fill-opacity:1;stroke-width:0.301806;stroke-linecap:square;stroke-linejoin:bevel;stroke-miterlimit:10"
       id="rect8"
       width="211.42969"
       height="300.77542"
       x="-0.52820408"
       y="322.08542" />
  </g>
  <g
     inkscape:groupmode="layer"
     id="layer2"
     inkscape:label="hvit">
    <g
       id="g83"
       transform="translate(142.3353,180.53561)">
      <path
         id="path114"
         style="fill:#ffffff;fill-opacity:1;stroke:#484848;stroke-width:1.1;stroke-linejoin:round;stroke-miterlimit:10;stroke-dasharray:none;stroke-opacity:1"
         d="m -90.77433,-91.51673 -22.84857,-12.39439 v -24.78875 l 22.84857,-12.39438 22.84857,12.39437 v 24.78876 z"
         sodipodi:insensitive="true" />
      <path
         style="fill:#484848;fill-opacity:1;stroke:none;stroke-width:0.444029"
         d="m -91.08302,-134.17586 c -1.55335,0.074 -2.91247,0.66585 -4.07733,1.77525 -0.51611,0.49123 -0.86703,1.05642 -1.05271,1.69571 a 0.06596453,0.0619779 0 0 0 0.11917,0.0491 c 1.24325,-1.87224 3.86728,-2.71163 6.10365,-2.06861 1.94321,0.55952 3.30911,1.97652 3.91379,3.81175 0.0177,0.0528 8e-4,0.0662 -0.0514,0.0404 l -1.83969,-0.90973 a 0.05588662,0.05250905 0 0 0 -0.0823,0.0439 c -0.0403,0.62092 0.20401,1.14618 0.73294,1.57601 l 0.21974,0.12575 c 0.0623,0.035 0.0767,0.0829 0.0431,0.14375 -0.73201,1.3222 -1.60058,2.56089 -2.93819,3.39329 -0.42785,0.26685 -0.9867,0.43821 -1.48235,0.64308 -1.17269,0.48377 -1.61888,1.22654 -2.36647,2.16395 -0.69446,0.86941 -1.47925,1.51014 -2.3545,1.92218 -0.71095,0.33456 -1.41683,0.67836 -2.1174,1.03129 -0.90213,0.45393 -1.74913,1.11795 -2.54131,1.99195 -0.55032,0.60715 -1.25865,0.89799 -2.12474,0.87275 l -0.78698,-0.11619 a 0.08612037,0.08091559 0 0 0 -0.0925,0.1103 c 0.22599,0.53255 0.61075,0.87156 1.15434,1.01732 0.33899,0.0904 0.78799,0.0689 1.17277,0.0698 0.0299,0 0.0461,0.0141 0.0485,0.0422 0.0525,0.65134 0.12153,1.30128 0.20703,1.94976 0.033,0.24848 -0.0305,0.66764 -0.19057,1.25757 -0.22415,0.60084 -0.64304,1.08607 -1.25687,1.45564 -0.53932,0.35522 -1.14983,0.58857 -1.83146,0.69991 l -0.0256,0.42518 c -0.39701,1.10298 -0.88261,2.19741 -1.45675,3.28316 l -0.14297,0.28566 c -0.15209,0.21003 -0.35304,0.38422 -0.60285,0.52253 a 0.1942289,0.18249048 0 0 0 -0.0807,0.22815 l 0.49011,1.08626 c 0.22456,-0.0978 1.18985,-0.5175 1.47787,-0.64292 -0.1143,-0.32864 -0.11184,-0.66143 0.0102,-0.99849 0.29134,-0.91848 0.65682,-1.5263 1.22485,-2.56443 0.21347,-0.38994 0.39404,-0.5939 0.86679,-0.72647 0.60101,-0.16757 1.17994,-0.34814 1.73697,-0.54154 0.68407,-0.2393 1.32022,-0.55803 1.9084,-0.9563 1.00535,-0.70183 1.72848,-1.60515 2.16947,-2.70984 0.004,-0.0103 0.0113,-0.0137 0.0229,-0.0103 0.0128,0.003 0.0183,0.009 0.0165,0.0172 -0.16431,0.58535 -0.2794,1.17913 -0.34536,1.78113 a 0.1200188,0.11276534 0 0 0 0.12008,0.1239 c 1.03161,-0.0103 2.05797,0.10322 3.07919,0.3408 0.64516,0.14946 1.32228,0.19842 1.54873,0.86837 0.82198,-0.35756 0.99198,-0.43161 1.85168,-0.8055 -0.5476,-0.51391 -1.09592,-0.70946 -1.93185,-0.87458 -0.95037,-0.18766 -1.89634,-0.39338 -2.83817,-0.6172 -0.0385,-0.009 -0.0461,-0.0289 -0.0229,-0.0593 0.55154,-0.71217 0.81358,-1.50993 0.78609,-2.3931 -7.9e-4,-0.0321 0.0158,-0.0504 0.0494,-0.055 1.98259,-0.29182 3.85889,-1.03397 5.16261,-2.51198 0.0171,-0.0195 0.0383,-0.0252 0.0633,-0.0172 l 2.44433,0.77035 a 0.05860412,0.05425936 2.3452213 0 1 0.0394,0.056 c -0.01,0.11765 -0.0327,0.21577 -0.0687,0.29439 -0.29624,0.64274 -0.6578,1.32286 -1.08474,2.0402 -0.18323,0.30817 -0.63854,0.36326 -0.97111,0.36584 -0.0263,0 -0.0412,0.0129 -0.0449,0.037 -0.0965,0.69438 -0.0214,1.37099 0.22529,2.02979 a 0.03389844,0.03184975 0 0 0 0.054,0.0138 c 0.31149,-0.24332 0.63187,-0.48261 0.96108,-0.71789 0.24553,-0.17561 0.25388,-0.32969 0.33175,-0.59568 0.0742,-0.25566 0.42145,-0.26942 0.51947,-0.53111 0.35425,-0.94574 0.77389,-1.82008 1.25885,-2.62293 0.18598,-0.30731 0.32693,-0.63962 -0.009,-0.91678 -0.5558,-0.45795 -1.11372,-0.91422 -1.6738,-1.36872 -0.0201,-0.0166 -0.0167,-0.0249 0.0102,-0.0249 l 3.23309,-0.0259 a 0.05959077,0.05677546 3.2445133 0 1 0.0578,0.038 c 0.27608,0.72652 0.44604,1.53534 0.51017,2.42656 0.0354,0.49411 -0.16393,0.83719 -0.5982,1.02944 a 0.06413219,0.06025629 0 0 0 -0.0358,0.0645 l 0.23746,1.26717 c 0.64095,-0.27847 0.83339,-0.36186 1.475,-0.64056 -0.004,-0.009 -0.0113,-0.0102 -0.0138,-0.0213 -0.12277,-0.55694 0.0741,-0.71631 0.33247,-1.15704 a 0.14109081,0.13256384 0 0 0 0.0166,-0.0826 c -0.0486,-0.31763 -0.16781,-0.66451 -0.22278,-0.92705 -0.18568,-0.8895 -0.37193,-1.77899 -0.55883,-2.66849 -0.088,-0.41404 -0.29588,-0.42104 -0.68159,-0.49076 -0.93754,-0.16872 -1.8671,-0.36958 -2.78878,-0.60257 -0.0293,-0.007 -0.0372,-0.0238 -0.0238,-0.0491 0.57963,-1.11217 0.88776,-2.29021 0.92441,-3.53435 0.0165,-0.54116 0.0214,-1.08376 0.0147,-1.6278 a 0.05130575,0.04820503 0 0 1 0.0385,-0.0466 l 1.26888,-0.3107 a 0.12237964,0.13085717 87.666516 0 1 0.13742,0.0456 c 0.64559,0.80743 0.63391,1.60695 -0.0349,2.39832 a 0.02656905,0.02496332 0 0 0 0.0293,0.0395 c 1.19469,-0.35236 1.73921,-1.13222 1.63355,-2.33965 -0.004,-0.0361 0.014,-0.0554 0.0531,-0.0577 0.46265,-0.0249 1.06832,0.17384 1.08114,-0.51481 8e-4,-0.0258 -0.013,-0.0384 -0.0404,-0.0378 h -0.18126 a 0.03664696,0.03443217 0 0 1 -0.0249,-0.0593 c 0.12185,-0.1033 0.27303,-0.18075 0.328,-0.32364 0.14384,-0.37187 -0.37561,-0.66038 -0.75674,-0.89107 -0.55244,-0.33485 -1.2716,-0.64035 -1.53638,-1.24463 -0.30417,-0.69438 -0.64414,-1.37249 -1.01977,-2.03416 -0.87831,-1.54657 -2.1883,-2.65978 -3.93025,-3.33982 -0.38235,-0.1492 -0.74929,-0.2491 -1.10048,-0.29959 -0.27302,-0.0397 -0.54078,-0.0656 -0.80344,-0.0777 -0.22983,-0.0105 -0.45574,-0.0106 -0.67765,0 z"
         id="path115" />
      <path
         id="path79"
         style="fill:#cc4c4c;fill-opacity:1;stroke:none;stroke-width:0.3;stroke-linecap:square;stroke-linejoin:bevel;stroke-miterlimit:10;stroke-dasharray:none;stroke-opacity:1;paint-order:normal"
         d="m -65.774244,-118.24682 0.900689,1.09456 -7.721532,3.44511 c -0.14978,-0.10004 -0.32613,-0.1529 -0.50624,-0.15174 -0.26535,0.002 -0.51654,0.11942 -0.68657,0.32314 l -4.76328,-0.69316 c -0.12838,-0.35936 -0.46919,-0.59938 -0.85079,-0.5984 -0.49759,0.003 -0.89886,0.40808 -0.89628,0.90566 0.001,0.0934 0.0164,0.18605 0.0459,0.27468 l -6.75955,7.77118 c -0.0628,-0.0142 -0.12694,-0.0217 -0.19132,-0.0222 -0.2217,0.002 -0.43503,0.0848 -0.5992,0.23377 l -6.160393,-2.05802 c -0.1484,-0.31964 -0.46955,-0.52342 -0.82195,-0.52156 -0.4976,0.003 -0.89863,0.40859 -0.89576,0.90618 7e-4,0.12775 0.0285,0.2539 0.0816,0.37008 l -2.449,4.60085 c -0.0127,-9.3e-4 -0.0255,-0.002 -0.0382,-0.003 -0.30543,0.002 -0.58918,0.15818 -0.75375,0.41549 l -3.6278,-0.66943 c -0.15621,-0.29869 -0.46607,-0.4852 -0.80313,-0.48342 -0.46283,0.004 -0.84758,0.35741 -0.89004,0.8183 -2.12421,1.40457 -4.25427,2.800299 -6.37709,4.20696 l 1.64742,-0.0091 5.11402,-3.37526 c 0.15137,0.10513 0.33131,0.16132 0.51559,0.16099 0.30352,-0.002 0.58572,-0.15653 0.75069,-0.41134 l 3.63658,0.67092 c 0.15679,0.29468 0.46365,0.47852 0.79743,0.47777 0.49778,-0.003 0.89914,-0.40838 0.89626,-0.90617 -0.002,-0.14326 -0.0372,-0.28408 -0.10406,-0.41079 l 2.42855,-4.56301 c 0.0268,0.003 0.0537,0.005 0.0806,0.006 0.28304,-0.002 0.5489,-0.13603 0.71787,-0.3631 l 5.980223,1.99804 c 0.0898,0.4158 0.45809,0.71217 0.88345,0.71087 0.49739,-0.003 0.89835,-0.40827 0.89576,-0.90566 -8e-4,-0.0923 -0.0158,-0.18385 -0.0444,-0.27157 l 6.75954,-7.77325 c 0.0625,0.0139 0.12626,0.0212 0.19029,0.0216 0.26297,-0.002 0.51207,-0.11822 0.68194,-0.31897 l 4.77001,0.69519 c 0.1302,0.35617 0.46946,0.59271 0.84869,0.59168 0.47236,-0.004 0.86164,-0.37171 0.89197,-0.84311 l 7.692405,-3.43179 0.199901,1.36849 1.472394,-2.62617 z"
         sodipodi:nodetypes="cccccccccccccccccccccccccccccccccccccccccccccccc" />
    </g>
    <g
       id="g9"
       transform="matrix(0.26037596,0,0,0.24463986,-3.562255,-177.99487)">
      <g
         id="g11"
         transform="matrix(1.1950972,0,0,1.2255097,-62.307925,-219.11876)">
        <path
           d="m 350.34783,1012.1569 v 15.208 c 0,3.3015 -0.91319,5.8772 -2.73956,7.727 -1.80295,1.8263 -4.30835,2.7396 -7.5162,2.7396 -3.18445,0 -5.68985,-0.9133 -7.51621,-2.7396 -1.82637,-1.8498 -2.73956,-4.4255 -2.73956,-7.727 v -15.208 h 3.37175 v 15.208 c 0,2.3883 0.59709,4.2263 1.79126,5.5142 1.21758,1.2878 2.91516,1.9318 5.09276,1.9318 2.20101,0 3.89859,-0.644 5.09275,-1.9318 1.21759,-1.2879 1.82638,-3.1259 1.82638,-5.5142 v -15.208 z m 9.60462,25.1125 h -3.26638 v -17.4208 h 3.26638 z m -1.61563,-21.5301 c -0.60879,0 -1.13563,-0.1991 -1.58051,-0.5971 -0.42147,-0.4214 -0.63221,-0.9365 -0.63221,-1.5453 0,-0.6088 0.21074,-1.1239 0.63221,-1.5455 0.44488,-0.4213 0.97172,-0.6321 1.58051,-0.6321 0.60879,0 1.12392,0.2108 1.54539,0.6321 0.42147,0.4216 0.6322,0.9367 0.6322,1.5455 0,0.6088 -0.21073,1.1239 -0.6322,1.5453 -0.42147,0.398 -0.9366,0.5971 -1.54539,0.5971 z m 20.45746,22.0922 c -1.89661,0 -3.64103,-0.328 -5.23325,-0.9835 -1.59221,-0.6557 -2.98541,-1.5688 -4.17958,-2.7395 -1.19416,-1.1942 -2.11905,-2.5874 -2.77467,-4.1797 -0.65562,-1.6155 -0.98343,-3.36 -0.98343,-5.2333 0,-1.8731 0.32781,-3.6058 0.98343,-5.198 0.65562,-1.5922 1.58051,-2.9737 2.77467,-4.1444 1.19417,-1.1942 2.58737,-2.1192 4.17958,-2.7748 1.59222,-0.6556 3.33664,-0.9834 5.23325,-0.9834 1.89662,0 3.64103,0.3278 5.23325,0.9834 1.59222,0.6556 2.98542,1.5806 4.17958,2.7748 1.19417,1.1707 2.11906,2.5522 2.77467,4.1444 0.65563,1.5922 0.98344,3.3249 0.98344,5.198 0,1.8733 -0.32781,3.6178 -0.98344,5.2333 -0.65561,1.5923 -1.5805,2.9855 -2.77467,4.1797 -1.19416,1.1707 -2.58736,2.0838 -4.17958,2.7395 -1.59222,0.6555 -3.33663,0.9835 -5.23325,0.9835 z m 0,-3.0206 c 1.89662,0 3.57078,-0.4332 5.02251,-1.2996 1.45174,-0.8664 2.57565,-2.0604 3.37176,-3.5825 0.81954,-1.5454 1.22929,-3.2898 1.22929,-5.2333 0,-1.9433 -0.40975,-3.676 -1.22929,-5.198 -0.79611,-1.5219 -1.92002,-2.7162 -3.37176,-3.5826 -1.45173,-0.8662 -3.12589,-1.2994 -5.02251,-1.2994 -1.87319,0 -3.54737,0.4332 -5.02252,1.2994 -1.45172,0.8664 -2.58736,2.0607 -3.40688,3.5826 -0.7961,1.522 -1.19416,3.2547 -1.19416,5.198 0,1.9435 0.39806,3.6879 1.19416,5.2333 0.81952,1.5221 1.95516,2.7161 3.40688,3.5825 1.47515,0.8664 3.14933,1.2996 5.02252,1.2996 z m 22.41893,-2.4208 c 0,0.6088 -0.22244,1.1357 -0.66733,1.5805 -0.44488,0.445 -0.97172,0.6673 -1.5805,0.6673 -0.63222,0 -1.17076,-0.2223 -1.61565,-0.6673 -0.44488,-0.4448 -0.66732,-0.9717 -0.66732,-1.5805 0,-0.6321 0.22244,-1.159 0.66732,-1.5805 0.44489,-0.4449 0.98343,-0.6673 1.61565,-0.6673 0.60878,0 1.13562,0.2224 1.5805,0.6673 0.44489,0.4215 0.66733,0.9484 0.66733,1.5805 z m 0,-13.2412 c 0,0.6088 -0.22244,1.1357 -0.66733,1.5805 -0.44488,0.4449 -0.97172,0.6674 -1.5805,0.6674 -0.63222,0 -1.17076,-0.2225 -1.61565,-0.6674 -0.44488,-0.4448 -0.66732,-0.9717 -0.66732,-1.5805 0,-0.6321 0.22244,-1.159 0.66732,-1.5805 0.44489,-0.4449 0.98343,-0.6674 1.61565,-0.6674 0.60878,0 1.13562,0.2225 1.5805,0.6674 0.44489,0.4215 0.66733,0.9484 0.66733,1.5805 z m 30.91047,18.1205 h -15.91049 v -25.1125 h 3.37177 v 22.1271 h 12.53872 z m 8.3051,0 h -3.26639 v -17.4208 h 3.26639 z m -1.61563,-21.5301 c -0.60879,0 -1.13563,-0.1991 -1.58051,-0.5971 -0.42148,-0.4214 -0.63222,-0.9365 -0.63222,-1.5453 0,-0.6088 0.21074,-1.1239 0.63222,-1.5455 0.44488,-0.4213 0.97172,-0.6321 1.58051,-0.6321 0.60879,0 1.12392,0.2108 1.54539,0.6321 0.42146,0.4216 0.6322,0.9367 0.6322,1.5455 0,0.6088 -0.21074,1.1239 -0.6322,1.5453 -0.42147,0.398 -0.9366,0.5971 -1.54539,0.5971 z m 13.22222,21.5301 h -3.26639 v -20.8627 c 0,-2.9503 1.47515,-4.4255 4.42544,-4.4255 h 3.68786 v 2.6343 h -2.77468 c -0.74928,0 -1.28782,0.1639 -1.61563,0.4917 -0.3044,0.3278 -0.4566,0.8663 -0.4566,1.6156 z m 4.84691,-14.6812 h -11.5553 v -2.7396 h 11.5553 z m 18.98232,9.5534 2.03711,2.1072 c -0.91318,1.124 -2.03711,2.0021 -3.37175,2.6343 -1.31124,0.6323 -2.7981,0.9484 -4.46056,0.9484 -1.89661,0 -3.5825,-0.398 -5.05765,-1.1943 -1.47514,-0.7961 -2.63419,-1.8849 -3.47712,-3.2663 -0.81952,-1.405 -1.22928,-3.0089 -1.22928,-4.8118 0,-1.8029 0.39805,-3.3953 1.19416,-4.7767 0.79611,-1.4049 1.89662,-2.5054 3.30151,-3.3014 1.4049,-0.7963 2.98541,-1.1943 4.74154,-1.1943 1.70929,0 3.21957,0.398 4.53081,1.1943 1.33465,0.7726 2.37662,1.8497 3.12589,3.2311 0.7727,1.3581 1.15905,2.9386 1.15905,4.7416 v 0.2108 h -3.30152 v -0.3161 c 0,-1.2645 -0.23415,-2.365 -0.70244,-3.3016 -0.46831,-0.96 -1.12393,-1.6975 -1.96687,-2.2126 -0.81952,-0.5386 -1.76783,-0.8079 -2.84492,-0.8079 -1.14733,0 -2.16589,0.2693 -3.05566,0.8079 -0.88977,0.5385 -1.58051,1.2995 -2.07222,2.2829 -0.49172,0.96 -0.73758,2.0957 -0.73758,3.4069 0,1.3112 0.26927,2.4702 0.80783,3.4771 0.56195,0.9834 1.33465,1.7443 2.31808,2.2829 0.98342,0.5386 2.10735,0.8079 3.37176,0.8079 2.31808,0 4.21469,-0.9834 5.68983,-2.9503 z m 2.49371,-2.4937 H 462.7288 v -2.4234 h 15.06754 l 0.56197,1.2292 z m 12.32525,4.9522 2.07223,-2.1074 c 0.81952,0.843 1.75613,1.5103 2.8098,2.0022 1.05368,0.4682 2.201,0.7023 3.442,0.7023 1.31124,0 2.37663,-0.2575 3.19615,-0.7726 0.81953,-0.5386 1.22929,-1.2176 1.22929,-2.0371 0,-0.7493 -0.35123,-1.3231 -1.05367,-1.7211 -0.70246,-0.4214 -1.92004,-0.7492 -3.65275,-0.9834 -2.59906,-0.3747 -4.46055,-0.9483 -5.58447,-1.721 -1.10052,-0.7962 -1.65076,-1.8732 -1.65076,-3.2313 0,-1.077 0.3161,-2.0254 0.94831,-2.8449 0.6322,-0.8195 1.49856,-1.4518 2.59906,-1.8966 1.10051,-0.4683 2.36491,-0.7025 3.79323,-0.7025 1.59222,0 3.02053,0.281 4.28494,0.843 1.26441,0.5619 2.36491,1.3464 3.30152,2.3532 l -2.03711,2.1074 c -0.70245,-0.8195 -1.52197,-1.4635 -2.45858,-1.9319 -0.91317,-0.4916 -1.94343,-0.7375 -3.09077,-0.7375 -1.19416,0 -2.17758,0.2459 -2.95029,0.7375 -0.74927,0.4919 -1.12392,1.124 -1.12392,1.8967 0,0.6087 0.32781,1.0888 0.98343,1.44 0.67904,0.3279 1.83808,0.6089 3.47712,0.843 2.64591,0.3747 4.54252,0.9834 5.68985,1.8264 1.17075,0.8429 1.75612,2.0252 1.75612,3.5473 0,1.1005 -0.3278,2.0839 -0.98343,2.9504 -0.65561,0.8429 -1.5688,1.4984 -2.73955,1.9667 -1.14734,0.4684 -2.48199,0.7026 -4.00396,0.7026 -1.7093,0 -3.25469,-0.281 -4.63617,-0.843 -1.35807,-0.5854 -2.56394,-1.3816 -3.61762,-2.3884 z m 34.75233,-2.2829 2.21272,2.1074 c -0.84293,1.0537 -1.88491,1.8849 -3.1259,2.4936 -1.241,0.6089 -2.64589,0.9133 -4.2147,0.9133 -1.77955,0 -3.37176,-0.398 -4.77666,-1.1943 -1.38148,-0.7961 -2.47028,-1.8849 -3.2664,-3.2663 -0.7961,-1.405 -1.19416,-3.0089 -1.19416,-4.8118 0,-1.7796 0.39806,-3.3601 1.19416,-4.7415 0.79612,-1.405 1.89662,-2.5054 3.30153,-3.3016 1.42832,-0.8195 3.03223,-1.2293 4.81177,-1.2293 1.54539,0 2.92687,0.3044 4.14446,0.9132 1.24099,0.6088 2.28297,1.44 3.1259,2.4937 l -2.21272,2.1074 c -0.53854,-0.8195 -1.21758,-1.4752 -2.03711,-1.9668 -0.81952,-0.4918 -1.80295,-0.7376 -2.95028,-0.7376 -1.17075,0 -2.21272,0.281 -3.1259,0.8428 -0.88978,0.5386 -1.59222,1.2996 -2.10735,2.283 -0.49172,0.96 -0.73757,2.0724 -0.73757,3.3367 0,1.2644 0.24585,2.3883 0.73757,3.3717 0.51513,0.9601 1.21757,1.7211 2.10735,2.283 0.91318,0.5385 1.95515,0.8078 3.1259,0.8078 1.17074,0 2.15417,-0.2459 2.95028,-0.7376 0.81953,-0.4917 1.49857,-1.1473 2.03711,-1.9668 z m 10.5178,4.9522 h -3.2664 v -17.4208 h 3.2664 z m -1.61564,-21.5301 c -0.60879,0 -1.13562,-0.1991 -1.58052,-0.5971 -0.42146,-0.4214 -0.63219,-0.9365 -0.63219,-1.5453 0,-0.6088 0.21073,-1.1239 0.63219,-1.5455 0.4449,-0.4213 0.97173,-0.6321 1.58052,-0.6321 0.60879,0 1.12392,0.2108 1.54539,0.6321 0.42147,0.4216 0.6322,0.9367 0.6322,1.5455 0,0.6088 -0.21073,1.1239 -0.6322,1.5453 -0.42147,0.398 -0.9366,0.5971 -1.54539,0.5971 z m 22.5648,16.4023 2.03711,2.1072 c -0.91318,1.124 -2.03711,2.0021 -3.37176,2.6343 -1.31123,0.6323 -2.79808,0.9484 -4.46056,0.9484 -1.89661,0 -3.58249,-0.398 -5.05764,-1.1943 -1.47514,-0.7961 -2.63419,-1.8849 -3.47712,-3.2663 -0.81952,-1.405 -1.22929,-3.0089 -1.22929,-4.8118 0,-1.8029 0.39805,-3.3953 1.19416,-4.7767 0.79612,-1.4049 1.89663,-2.5054 3.30151,-3.3014 1.40491,-0.7963 2.98543,-1.1943 4.74155,-1.1943 1.70928,0 3.21956,0.398 4.5308,1.1943 1.33465,0.7726 2.37662,1.8497 3.1259,3.2311 0.7727,1.3581 1.15904,2.9386 1.15904,4.7416 v 0.2108 h -3.30151 v -0.3161 c 0,-1.2645 -0.23415,-2.365 -0.70245,-3.3016 -0.46831,-0.96 -1.12392,-1.6975 -1.96687,-2.2126 -0.81952,-0.5386 -1.76782,-0.8079 -2.84491,-0.8079 -1.14734,0 -2.16589,0.2693 -3.05566,0.8079 -0.88976,0.5385 -1.58052,1.2995 -2.07223,2.2829 -0.49171,0.96 -0.73757,2.0957 -0.73757,3.4069 0,1.3112 0.26928,2.4702 0.80782,3.4771 0.56196,0.9834 1.33466,1.7443 2.31809,2.2829 0.98342,0.5386 2.10734,0.8079 3.37175,0.8079 2.31808,0 4.21471,-0.9834 5.68984,-2.9503 z m 2.4937,-2.4937 h -15.62951 v -2.4234 h 15.06756 l 0.56195,1.2292 z m 21.68674,7.6215 h -3.26639 v -10.0449 c 0,-1.7094 -0.38635,-2.9854 -1.15904,-3.8284 -0.77269,-0.8663 -1.81466,-1.2995 -3.1259,-1.2995 -0.9366,0 -1.82637,0.2458 -2.6693,0.7376 -0.84294,0.4916 -1.52198,1.2643 -2.03711,2.318 -0.51513,1.0537 -0.7727,2.4118 -0.7727,4.0742 v 8.043 h -3.26639 v -17.4208 h 3.23127 v 5.3388 h -0.49172 c 0.25757,-1.4753 0.72587,-2.6342 1.4049,-3.4772 0.67904,-0.8664 1.48686,-1.4869 2.42346,-1.8616 0.9366,-0.3746 1.90832,-0.5619 2.91517,-0.5619 2.10734,0 3.76981,0.6557 4.98739,1.9669 1.21758,1.2878 1.82636,3.161 1.82636,5.6196 z m 19.50918,-4.9522 2.21271,2.1074 c -0.84293,1.0537 -1.8849,1.8849 -3.1259,2.4936 -1.241,0.6089 -2.64589,0.9133 -4.21469,0.9133 -1.77954,0 -3.37177,-0.398 -4.77666,-1.1943 -1.38149,-0.7961 -2.47028,-1.8849 -3.2664,-3.2663 -0.79611,-1.405 -1.19416,-3.0089 -1.19416,-4.8118 0,-1.7796 0.39805,-3.3601 1.19416,-4.7415 0.79612,-1.405 1.89662,-2.5054 3.30151,-3.3016 1.42832,-0.8195 3.03225,-1.2293 4.81179,-1.2293 1.54539,0 2.92687,0.3044 4.14445,0.9132 1.241,0.6088 2.28297,1.44 3.1259,2.4937 l -2.21271,2.1074 c -0.53854,-0.8195 -1.21758,-1.4752 -2.0371,-1.9668 -0.81954,-0.4918 -1.80296,-0.7376 -2.9503,-0.7376 -1.17075,0 -2.21271,0.281 -3.1259,0.8428 -0.88977,0.5386 -1.59222,1.2996 -2.10735,2.283 -0.49171,0.96 -0.73757,2.0724 -0.73757,3.3367 0,1.2644 0.24586,2.3883 0.73757,3.3717 0.51513,0.9601 1.21758,1.7211 2.10735,2.283 0.91319,0.5385 1.95515,0.8078 3.1259,0.8078 1.17075,0 2.15418,-0.2459 2.9503,-0.7376 0.81952,-0.4917 1.49856,-1.1473 2.0371,-1.9668 z m 21.37061,-0.1756 2.0371,2.1072 c -0.91319,1.124 -2.0371,2.0021 -3.37177,2.6343 -1.31123,0.6323 -2.79808,0.9484 -4.46056,0.9484 -1.89661,0 -3.58249,-0.398 -5.05763,-1.1943 -1.47514,-0.7961 -2.63418,-1.8849 -3.47713,-3.2663 -0.81952,-1.405 -1.22929,-3.0089 -1.22929,-4.8118 0,-1.8029 0.39806,-3.3953 1.19417,-4.7767 0.79612,-1.4049 1.89662,-2.5054 3.30152,-3.3014 1.40489,-0.7963 2.9854,-1.1943 4.74153,-1.1943 1.70929,0 3.21956,0.398 4.5308,1.1943 1.33465,0.7726 2.37662,1.8497 3.12591,3.2311 0.77269,1.3581 1.15904,2.9386 1.15904,4.7416 v 0.2108 h -3.30152 v -0.3161 c 0,-1.2645 -0.23415,-2.365 -0.70245,-3.3016 -0.46831,-0.96 -1.12392,-1.6975 -1.96686,-2.2126 -0.81953,-0.5386 -1.76783,-0.8079 -2.84492,-0.8079 -1.14734,0 -2.16588,0.2693 -3.05566,0.8079 -0.88976,0.5385 -1.5805,1.2995 -2.07222,2.2829 -0.49172,0.96 -0.73757,2.0957 -0.73757,3.4069 0,1.3112 0.26927,2.4702 0.80781,3.4771 0.56196,0.9834 1.33466,1.7443 2.31809,2.2829 0.98342,0.5386 2.10734,0.8079 3.37175,0.8079 2.31808,0 4.21471,-0.9834 5.68986,-2.9503 z m 2.49369,-2.4937 h -15.62952 v -2.4234 h 15.06756 l 0.56196,1.2292 z"
           id="path8"
           style="font-weight:500;font-size:37.3864px;line-height:1.25;font-family:'Wix Madefor Display';-inkscape-font-specification:'Wix Madefor Display Medium';text-align:center;letter-spacing:1.5875px;word-spacing:0px;text-anchor:middle;fill:#484848;fill-opacity:1;stroke-width:0.24856"
           aria-label="UiO: Life science"
           sodipodi:nodetypes="cscscsccscscscccccccscscssscsssccsscssscssccsssscscssccsccsssssscscsssssscscsccccccccccccscscssscsccssccscscccccccccsscscssccsccsccsscscssccccccccccscscccsscsscccscscccsccsccccssccsccscccssccsccscccccccscscssscscccsscscssccsccsccsscscsscccccccccscsssscccccccsscscccssccsccscccssccsccscccccsscscssccsccsccsscscssccccccc" />
        <text
           xml:space="preserve"
           style="font-style:normal;font-variant:normal;font-weight:normal;font-stretch:normal;font-size:81.8208px;line-height:1.25;font-family:'Expletus Sans';-inkscape-font-specification:'Expletus Sans';text-align:center;letter-spacing:3.56777px;word-spacing:0px;text-anchor:middle;fill:#cc4c4c;fill-opacity:1;stroke-width:0.356775"
           x="477.4429"
           y="994.78693"
           id="text8"><tspan
             sodipodi:role="line"
             id="tspan8"
             style="font-style:normal;font-variant:normal;font-weight:500;font-stretch:normal;font-size:81.8208px;font-family:'Wix Madefor Display';-inkscape-font-specification:'Wix Madefor Display Medium';letter-spacing:3.56777px;fill:#cc4c4c;fill-opacity:1;stroke-width:0.356775"
             x="479.22678"
             y="994.78693">CAPRO</tspan></text>
      </g>
    </g>
  </g>
  <g
     inkscape:groupmode="layer"
     id="g8"
     inkscape:label="mørk"
     transform="translate(0,153.6915)">
    <g
       id="g19"
       transform="translate(142.3353,190.87027)">
      <path
         id="path17"
         style="fill:#20242a;fill-opacity:1;stroke:#d4d4d4;stroke-width:1.1;stroke-linejoin:round;stroke-miterlimit:10;stroke-dasharray:none;stroke-opacity:1"
         d="m -90.77433,-91.51673 -22.84857,-12.39439 v -24.78875 l 22.84857,-12.39438 22.84857,12.39437 v 24.78876 z" />
      <path
         style="fill:#d4d4d4;fill-opacity:1;stroke:none;stroke-width:0.444029"
         d="m -91.08302,-134.17586 c -1.55335,0.074 -2.91247,0.66585 -4.07733,1.77525 -0.51611,0.49123 -0.86703,1.05642 -1.05271,1.69571 a 0.06596453,0.0619779 0 0 0 0.11917,0.0491 c 1.24325,-1.87224 3.86728,-2.71163 6.10365,-2.06861 1.94321,0.55952 3.30911,1.97652 3.91379,3.81175 0.0177,0.0528 8e-4,0.0662 -0.0514,0.0404 l -1.83969,-0.90973 a 0.05588662,0.05250905 0 0 0 -0.0823,0.0439 c -0.0403,0.62092 0.20401,1.14618 0.73294,1.57601 l 0.21974,0.12575 c 0.0623,0.035 0.0767,0.0829 0.0431,0.14375 -0.73201,1.3222 -1.60058,2.56089 -2.93819,3.39329 -0.42785,0.26685 -0.9867,0.43821 -1.48235,0.64308 -1.17269,0.48377 -1.61888,1.22654 -2.36647,2.16395 -0.69446,0.86941 -1.47925,1.51014 -2.3545,1.92218 -0.71095,0.33456 -1.41683,0.67836 -2.1174,1.03129 -0.90213,0.45393 -1.74913,1.11795 -2.54131,1.99195 -0.55032,0.60715 -1.25865,0.89799 -2.12474,0.87275 l -0.78698,-0.11619 a 0.08612037,0.08091559 0 0 0 -0.0925,0.1103 c 0.22599,0.53255 0.61075,0.87156 1.15434,1.01732 0.33899,0.0904 0.78799,0.0689 1.17277,0.0698 0.0299,0 0.0461,0.0141 0.0485,0.0422 0.0525,0.65134 0.12153,1.30128 0.20703,1.94976 0.033,0.24848 -0.0305,0.66764 -0.19057,1.25757 -0.22415,0.60084 -0.64304,1.08607 -1.25687,1.45564 -0.53932,0.35522 -1.14983,0.58857 -1.83146,0.69991 l -0.0256,0.42518 c -0.39701,1.10298 -0.88261,2.19741 -1.45675,3.28316 l -0.14297,0.28566 c -0.15209,0.21003 -0.35304,0.38422 -0.60285,0.52253 a 0.1942289,0.18249048 0 0 0 -0.0807,0.22815 l 0.49011,1.08626 c 0.22456,-0.0978 1.18985,-0.5175 1.47787,-0.64292 -0.1143,-0.32864 -0.11184,-0.66143 0.0102,-0.99849 0.29134,-0.91848 0.65682,-1.5263 1.22485,-2.56443 0.21347,-0.38994 0.39404,-0.5939 0.86679,-0.72647 0.60101,-0.16757 1.17994,-0.34814 1.73697,-0.54154 0.68407,-0.2393 1.32022,-0.55803 1.9084,-0.9563 1.00535,-0.70183 1.72848,-1.60515 2.16947,-2.70984 0.004,-0.0103 0.0113,-0.0137 0.0229,-0.0103 0.0128,0.003 0.0183,0.009 0.0165,0.0172 -0.16431,0.58535 -0.2794,1.17913 -0.34536,1.78113 a 0.1200188,0.11276534 0 0 0 0.12008,0.1239 c 1.03161,-0.0103 2.05797,0.10322 3.07919,0.3408 0.64516,0.14946 1.32228,0.19842 1.54873,0.86837 0.82198,-0.35756 0.99198,-0.43161 1.85168,-0.8055 -0.5476,-0.51391 -1.09592,-0.70946 -1.93185,-0.87458 -0.95037,-0.18766 -1.89634,-0.39338 -2.83817,-0.6172 -0.0385,-0.009 -0.0461,-0.0289 -0.0229,-0.0593 0.55154,-0.71217 0.81358,-1.50993 0.78609,-2.3931 -7.9e-4,-0.0321 0.0158,-0.0504 0.0494,-0.055 1.98259,-0.29182 3.85889,-1.03397 5.16261,-2.51198 0.0171,-0.0195 0.0383,-0.0252 0.0633,-0.0172 l 2.44433,0.77035 a 0.05860412,0.05425936 2.3452213 0 1 0.0394,0.056 c -0.01,0.11765 -0.0327,0.21577 -0.0687,0.29439 -0.29624,0.64274 -0.6578,1.32286 -1.08474,2.0402 -0.18323,0.30817 -0.63854,0.36326 -0.97111,0.36584 -0.0263,0 -0.0412,0.0129 -0.0449,0.037 -0.0965,0.69438 -0.0214,1.37099 0.22529,2.02979 a 0.03389844,0.03184975 0 0 0 0.054,0.0138 c 0.31149,-0.24332 0.63187,-0.48261 0.96108,-0.71789 0.24553,-0.17561 0.25388,-0.32969 0.33175,-0.59568 0.0742,-0.25566 0.42145,-0.26942 0.51947,-0.53111 0.35425,-0.94574 0.77389,-1.82008 1.25885,-2.62293 0.18598,-0.30731 0.32693,-0.63962 -0.009,-0.91678 -0.5558,-0.45795 -1.11372,-0.91422 -1.6738,-1.36872 -0.0201,-0.0166 -0.0167,-0.0249 0.0102,-0.0249 l 3.23309,-0.0259 a 0.05959077,0.05677546 3.2445133 0 1 0.0578,0.038 c 0.27608,0.72652 0.44604,1.53534 0.51017,2.42656 0.0354,0.49411 -0.16393,0.83719 -0.5982,1.02944 a 0.06413219,0.06025629 0 0 0 -0.0358,0.0645 l 0.23746,1.26717 c 0.64095,-0.27847 0.83339,-0.36186 1.475,-0.64056 -0.004,-0.009 -0.0113,-0.0102 -0.0138,-0.0213 -0.12277,-0.55694 0.0741,-0.71631 0.33247,-1.15704 a 0.14109081,0.13256384 0 0 0 0.0166,-0.0826 c -0.0486,-0.31763 -0.16781,-0.66451 -0.22278,-0.92705 -0.18568,-0.8895 -0.37193,-1.77899 -0.55883,-2.66849 -0.088,-0.41404 -0.29588,-0.42104 -0.68159,-0.49076 -0.93754,-0.16872 -1.8671,-0.36958 -2.78878,-0.60257 -0.0293,-0.007 -0.0372,-0.0238 -0.0238,-0.0491 0.57963,-1.11217 0.88776,-2.29021 0.92441,-3.53435 0.0165,-0.54116 0.0214,-1.08376 0.0147,-1.6278 a 0.05130575,0.04820503 0 0 1 0.0385,-0.0466 l 1.26888,-0.3107 a 0.12237964,0.13085717 87.666516 0 1 0.13742,0.0456 c 0.64559,0.80743 0.63391,1.60695 -0.0349,2.39832 a 0.02656905,0.02496332 0 0 0 0.0293,0.0395 c 1.19469,-0.35236 1.73921,-1.13222 1.63355,-2.33965 -0.004,-0.0361 0.014,-0.0554 0.0531,-0.0577 0.46265,-0.0249 1.06832,0.17384 1.08114,-0.51481 8e-4,-0.0258 -0.013,-0.0384 -0.0404,-0.0378 h -0.18126 a 0.03664696,0.03443217 0 0 1 -0.0249,-0.0593 c 0.12185,-0.1033 0.27303,-0.18075 0.328,-0.32364 0.14384,-0.37187 -0.37561,-0.66038 -0.75674,-0.89107 -0.55244,-0.33485 -1.2716,-0.64035 -1.53638,-1.24463 -0.30417,-0.69438 -0.64414,-1.37249 -1.01977,-2.03416 -0.87831,-1.54657 -2.1883,-2.65978 -3.93025,-3.33982 -0.38235,-0.1492 -0.74929,-0.2491 -1.10048,-0.29959 -0.27302,-0.0397 -0.54078,-0.0656 -0.80344,-0.0777 -0.22983,-0.0105 -0.45574,-0.0106 -0.67765,0 z"
         id="path18" />
      <path
         id="path19"
         style="fill:#cc4c4c;fill-opacity:1;stroke:none;stroke-width:0.3;stroke-linecap:square;stroke-linejoin:bevel;stroke-miterlimit:10;stroke-dasharray:none;stroke-opacity:1;paint-order:normal"
         d="m -65.774244,-118.24682 0.900689,1.09456 -7.721532,3.44511 c -0.14978,-0.10004 -0.32613,-0.1529 -0.50624,-0.15174 -0.26535,0.002 -0.51654,0.11942 -0.68657,0.32314 l -4.76328,-0.69316 c -0.12838,-0.35936 -0.46919,-0.59938 -0.85079,-0.5984 -0.49759,0.003 -0.89886,0.40808 -0.89628,0.90566 0.001,0.0934 0.0164,0.18605 0.0459,0.27468 l -6.75955,7.77118 c -0.0628,-0.0142 -0.12694,-0.0217 -0.19132,-0.0222 -0.2217,0.002 -0.43503,0.0848 -0.5992,0.23377 l -6.160393,-2.05802 c -0.1484,-0.31964 -0.46955,-0.52342 -0.82195,-0.52156 -0.4976,0.003 -0.89863,0.40859 -0.89576,0.90618 7e-4,0.12775 0.0285,0.2539 0.0816,0.37008 l -2.449,4.60085 c -0.0127,-9.3e-4 -0.0255,-0.002 -0.0382,-0.003 -0.30543,0.002 -0.58918,0.15818 -0.75375,0.41549 l -3.6278,-0.66943 c -0.15621,-0.29869 -0.46607,-0.4852 -0.80313,-0.48342 -0.46283,0.004 -0.84758,0.35741 -0.89004,0.8183 -2.12421,1.40457 -4.25427,2.800299 -6.37709,4.20696 l 1.64742,-0.0091 5.11402,-3.37526 c 0.15137,0.10513 0.33131,0.16132 0.51559,0.16099 0.30352,-0.002 0.58572,-0.15653 0.75069,-0.41134 l 3.63658,0.67092 c 0.15679,0.29468 0.46365,0.47852 0.79743,0.47777 0.49778,-0.003 0.89914,-0.40838 0.89626,-0.90617 -0.002,-0.14326 -0.0372,-0.28408 -0.10406,-0.41079 l 2.42855,-4.56301 c 0.0268,0.003 0.0537,0.005 0.0806,0.006 0.28304,-0.002 0.5489,-0.13603 0.71787,-0.3631 l 5.980223,1.99804 c 0.0898,0.4158 0.45809,0.71217 0.88345,0.71087 0.49739,-0.003 0.89835,-0.40827 0.89576,-0.90566 -8e-4,-0.0923 -0.0158,-0.18385 -0.0444,-0.27157 l 6.75954,-7.77325 c 0.0625,0.0139 0.12626,0.0212 0.19029,0.0216 0.26297,-0.002 0.51207,-0.11822 0.68194,-0.31897 l 4.77001,0.69519 c 0.1302,0.35617 0.46946,0.59271 0.84869,0.59168 0.47236,-0.004 0.86164,-0.37171 0.89197,-0.84311 l 7.692405,-3.43179 0.199901,1.36849 1.472394,-2.62617 z"
         sodipodi:nodetypes="cccccccccccccccccccccccccccccccccccccccccccccccc" />
    </g>
    <g
       id="g21"
       transform="matrix(0.26037596,0,0,0.24463986,-3.562255,-167.66021)">
      <g
         id="g20"
         transform="matrix(1.1950972,0,0,1.2255097,-62.307925,-219.11876)">
        <path
           d="m 350.34783,1012.1569 v 15.208 c 0,3.3015 -0.91319,5.8772 -2.73956,7.727 -1.80295,1.8263 -4.30835,2.7396 -7.5162,2.7396 -3.18445,0 -5.68985,-0.9133 -7.51621,-2.7396 -1.82637,-1.8498 -2.73956,-4.4255 -2.73956,-7.727 v -15.208 h 3.37175 v 15.208 c 0,2.3883 0.59709,4.2263 1.79126,5.5142 1.21758,1.2878 2.91516,1.9318 5.09276,1.9318 2.20101,0 3.89859,-0.644 5.09275,-1.9318 1.21759,-1.2879 1.82638,-3.1259 1.82638,-5.5142 v -15.208 z m 9.60462,25.1125 h -3.26638 v -17.4208 h 3.26638 z m -1.61563,-21.5301 c -0.60879,0 -1.13563,-0.1991 -1.58051,-0.5971 -0.42147,-0.4214 -0.63221,-0.9365 -0.63221,-1.5453 0,-0.6088 0.21074,-1.1239 0.63221,-1.5455 0.44488,-0.4213 0.97172,-0.6321 1.58051,-0.6321 0.60879,0 1.12392,0.2108 1.54539,0.6321 0.42147,0.4216 0.6322,0.9367 0.6322,1.5455 0,0.6088 -0.21073,1.1239 -0.6322,1.5453 -0.42147,0.398 -0.9366,0.5971 -1.54539,0.5971 z m 20.45746,22.0922 c -1.89661,0 -3.64103,-0.328 -5.23325,-0.9835 -1.59221,-0.6557 -2.98541,-1.5688 -4.17958,-2.7395 -1.19416,-1.1942 -2.11905,-2.5874 -2.77467,-4.1797 -0.65562,-1.6155 -0.98343,-3.36 -0.98343,-5.2333 0,-1.8731 0.32781,-3.6058 0.98343,-5.198 0.65562,-1.5922 1.58051,-2.9737 2.77467,-4.1444 1.19417,-1.1942 2.58737,-2.1192 4.17958,-2.7748 1.59222,-0.6556 3.33664,-0.9834 5.23325,-0.9834 1.89662,0 3.64103,0.3278 5.23325,0.9834 1.59222,0.6556 2.98542,1.5806 4.17958,2.7748 1.19417,1.1707 2.11906,2.5522 2.77467,4.1444 0.65563,1.5922 0.98344,3.3249 0.98344,5.198 0,1.8733 -0.32781,3.6178 -0.98344,5.2333 -0.65561,1.5923 -1.5805,2.9855 -2.77467,4.1797 -1.19416,1.1707 -2.58736,2.0838 -4.17958,2.7395 -1.59222,0.6555 -3.33663,0.9835 -5.23325,0.9835 z m 0,-3.0206 c 1.89662,0 3.57078,-0.4332 5.02251,-1.2996 1.45174,-0.8664 2.57565,-2.0604 3.37176,-3.5825 0.81954,-1.5454 1.22929,-3.2898 1.22929,-5.2333 0,-1.9433 -0.40975,-3.676 -1.22929,-5.198 -0.79611,-1.5219 -1.92002,-2.7162 -3.37176,-3.5826 -1.45173,-0.8662 -3.12589,-1.2994 -5.02251,-1.2994 -1.87319,0 -3.54737,0.4332 -5.02252,1.2994 -1.45172,0.8664 -2.58736,2.0607 -3.40688,3.5826 -0.7961,1.522 -1.19416,3.2547 -1.19416,5.198 0,1.9435 0.39806,3.6879 1.19416,5.2333 0.81952,1.5221 1.95516,2.7161 3.40688,3.5825 1.47515,0.8664 3.14933,1.2996 5.02252,1.2996 z m 22.41893,-2.4208 c 0,0.6088 -0.22244,1.1357 -0.66733,1.5805 -0.44488,0.445 -0.97172,0.6673 -1.5805,0.6673 -0.63222,0 -1.17076,-0.2223 -1.61565,-0.6673 -0.44488,-0.4448 -0.66732,-0.9717 -0.66732,-1.5805 0,-0.6321 0.22244,-1.159 0.66732,-1.5805 0.44489,-0.4449 0.98343,-0.6673 1.61565,-0.6673 0.60878,0 1.13562,0.2224 1.5805,0.6673 0.44489,0.4215 0.66733,0.9484 0.66733,1.5805 z m 0,-13.2412 c 0,0.6088 -0.22244,1.1357 -0.66733,1.5805 -0.44488,0.4449 -0.97172,0.6674 -1.5805,0.6674 -0.63222,0 -1.17076,-0.2225 -1.61565,-0.6674 -0.44488,-0.4448 -0.66732,-0.9717 -0.66732,-1.5805 0,-0.6321 0.22244,-1.159 0.66732,-1.5805 0.44489,-0.4449 0.98343,-0.6674 1.61565,-0.6674 0.60878,0 1.13562,0.2225 1.5805,0.6674 0.44489,0.4215 0.66733,0.9484 0.66733,1.5805 z m 30.91047,18.1205 h -15.91049 v -25.1125 h 3.37177 v 22.1271 h 12.53872 z m 8.3051,0 h -3.26639 v -17.4208 h 3.26639 z m -1.61563,-21.5301 c -0.60879,0 -1.13563,-0.1991 -1.58051,-0.5971 -0.42148,-0.4214 -0.63222,-0.9365 -0.63222,-1.5453 0,-0.6088 0.21074,-1.1239 0.63222,-1.5455 0.44488,-0.4213 0.97172,-0.6321 1.58051,-0.6321 0.60879,0 1.12392,0.2108 1.54539,0.6321 0.42146,0.4216 0.6322,0.9367 0.6322,1.5455 0,0.6088 -0.21074,1.1239 -0.6322,1.5453 -0.42147,0.398 -0.9366,0.5971 -1.54539,0.5971 z m 13.22222,21.5301 h -3.26639 v -20.8627 c 0,-2.9503 1.47515,-4.4255 4.42544,-4.4255 h 3.68786 v 2.6343 h -2.77468 c -0.74928,0 -1.28782,0.1639 -1.61563,0.4917 -0.3044,0.3278 -0.4566,0.8663 -0.4566,1.6156 z m 4.84691,-14.6812 h -11.5553 v -2.7396 h 11.5553 z m 18.98232,9.5534 2.03711,2.1072 c -0.91318,1.124 -2.03711,2.0021 -3.37175,2.6343 -1.31124,0.6323 -2.7981,0.9484 -4.46056,0.9484 -1.89661,0 -3.5825,-0.398 -5.05765,-1.1943 -1.47514,-0.7961 -2.63419,-1.8849 -3.47712,-3.2663 -0.81952,-1.405 -1.22928,-3.0089 -1.22928,-4.8118 0,-1.8029 0.39805,-3.3953 1.19416,-4.7767 0.79611,-1.4049 1.89662,-2.5054 3.30151,-3.3014 1.4049,-0.7963 2.98541,-1.1943 4.74154,-1.1943 1.70929,0 3.21957,0.398 4.53081,1.1943 1.33465,0.7726 2.37662,1.8497 3.12589,3.2311 0.7727,1.3581 1.15905,2.9386 1.15905,4.7416 v 0.2108 h -3.30152 v -0.3161 c 0,-1.2645 -0.23415,-2.365 -0.70244,-3.3016 -0.46831,-0.96 -1.12393,-1.6975 -1.96687,-2.2126 -0.81952,-0.5386 -1.76783,-0.8079 -2.84492,-0.8079 -1.14733,0 -2.16589,0.2693 -3.05566,0.8079 -0.88977,0.5385 -1.58051,1.2995 -2.07222,2.2829 -0.49172,0.96 -0.73758,2.0957 -0.73758,3.4069 0,1.3112 0.26927,2.4702 0.80783,3.4771 0.56195,0.9834 1.33465,1.7443 2.31808,2.2829 0.98342,0.5386 2.10735,0.8079 3.37176,0.8079 2.31808,0 4.21469,-0.9834 5.68983,-2.9503 z m 2.49371,-2.4937 H 462.7288 v -2.4234 h 15.06754 l 0.56197,1.2292 z m 12.32525,4.9522 2.07223,-2.1074 c 0.81952,0.843 1.75613,1.5103 2.8098,2.0022 1.05368,0.4682 2.201,0.7023 3.442,0.7023 1.31124,0 2.37663,-0.2575 3.19615,-0.7726 0.81953,-0.5386 1.22929,-1.2176 1.22929,-2.0371 0,-0.7493 -0.35123,-1.3231 -1.05367,-1.7211 -0.70246,-0.4214 -1.92004,-0.7492 -3.65275,-0.9834 -2.59906,-0.3747 -4.46055,-0.9483 -5.58447,-1.721 -1.10052,-0.7962 -1.65076,-1.8732 -1.65076,-3.2313 0,-1.077 0.3161,-2.0254 0.94831,-2.8449 0.6322,-0.8195 1.49856,-1.4518 2.59906,-1.8966 1.10051,-0.4683 2.36491,-0.7025 3.79323,-0.7025 1.59222,0 3.02053,0.281 4.28494,0.843 1.26441,0.5619 2.36491,1.3464 3.30152,2.3532 l -2.03711,2.1074 c -0.70245,-0.8195 -1.52197,-1.4635 -2.45858,-1.9319 -0.91317,-0.4916 -1.94343,-0.7375 -3.09077,-0.7375 -1.19416,0 -2.17758,0.2459 -2.95029,0.7375 -0.74927,0.4919 -1.12392,1.124 -1.12392,1.8967 0,0.6087 0.32781,1.0888 0.98343,1.44 0.67904,0.3279 1.83808,0.6089 3.47712,0.843 2.64591,0.3747 4.54252,0.9834 5.68985,1.8264 1.17075,0.8429 1.75612,2.0252 1.75612,3.5473 0,1.1005 -0.3278,2.0839 -0.98343,2.9504 -0.65561,0.8429 -1.5688,1.4984 -2.73955,1.9667 -1.14734,0.4684 -2.48199,0.7026 -4.00396,0.7026 -1.7093,0 -3.25469,-0.281 -4.63617,-0.843 -1.35807,-0.5854 -2.56394,-1.3816 -3.61762,-2.3884 z m 34.75233,-2.2829 2.21272,2.1074 c -0.84293,1.0537 -1.88491,1.8849 -3.1259,2.4936 -1.241,0.6089 -2.64589,0.9133 -4.2147,0.9133 -1.77955,0 -3.37176,-0.398 -4.77666,-1.1943 -1.38148,-0.7961 -2.47028,-1.8849 -3.2664,-3.2663 -0.7961,-1.405 -1.19416,-3.0089 -1.19416,-4.8118 0,-1.7796 0.39806,-3.3601 1.19416,-4.7415 0.79612,-1.405 1.89662,-2.5054 3.30153,-3.3016 1.42832,-0.8195 3.03223,-1.2293 4.81177,-1.2293 1.54539,0 2.92687,0.3044 4.14446,0.9132 1.24099,0.6088 2.28297,1.44 3.1259,2.4937 l -2.21272,2.1074 c -0.53854,-0.8195 -1.21758,-1.4752 -2.03711,-1.9668 -0.81952,-0.4918 -1.80295,-0.7376 -2.95028,-0.7376 -1.17075,0 -2.21272,0.281 -3.1259,0.8428 -0.88978,0.5386 -1.59222,1.2996 -2.10735,2.283 -0.49172,0.96 -0.73757,2.0724 -0.73757,3.3367 0,1.2644 0.24585,2.3883 0.73757,3.3717 0.51513,0.9601 1.21757,1.7211 2.10735,2.283 0.91318,0.5385 1.95515,0.8078 3.1259,0.8078 1.17074,0 2.15417,-0.2459 2.95028,-0.7376 0.81953,-0.4917 1.49857,-1.1473 2.03711,-1.9668 z m 10.5178,4.9522 h -3.2664 v -17.4208 h 3.2664 z m -1.61564,-21.5301 c -0.60879,0 -1.13562,-0.1991 -1.58052,-0.5971 -0.42146,-0.4214 -0.63219,-0.9365 -0.63219,-1.5453 0,-0.6088 0.21073,-1.1239 0.63219,-1.5455 0.4449,-0.4213 0.97173,-0.6321 1.58052,-0.6321 0.60879,0 1.12392,0.2108 1.54539,0.6321 0.42147,0.4216 0.6322,0.9367 0.6322,1.5455 0,0.6088 -0.21073,1.1239 -0.6322,1.5453 -0.42147,0.398 -0.9366,0.5971 -1.54539,0.5971 z m 22.5648,16.4023 2.03711,2.1072 c -0.91318,1.124 -2.03711,2.0021 -3.37176,2.6343 -1.31123,0.6323 -2.79808,0.9484 -4.46056,0.9484 -1.89661,0 -3.58249,-0.398 -5.05764,-1.1943 -1.47514,-0.7961 -2.63419,-1.8849 -3.47712,-3.2663 -0.81952,-1.405 -1.22929,-3.0089 -1.22929,-4.8118 0,-1.8029 0.39805,-3.3953 1.19416,-4.7767 0.79612,-1.4049 1.89663,-2.5054 3.30151,-3.3014 1.40491,-0.7963 2.98543,-1.1943 4.74155,-1.1943 1.70928,0 3.21956,0.398 4.5308,1.1943 1.33465,0.7726 2.37662,1.8497 3.1259,3.2311 0.7727,1.3581 1.15904,2.9386 1.15904,4.7416 v 0.2108 h -3.30151 v -0.3161 c 0,-1.2645 -0.23415,-2.365 -0.70245,-3.3016 -0.46831,-0.96 -1.12392,-1.6975 -1.96687,-2.2126 -0.81952,-0.5386 -1.76782,-0.8079 -2.84491,-0.8079 -1.14734,0 -2.16589,0.2693 -3.05566,0.8079 -0.88976,0.5385 -1.58052,1.2995 -2.07223,2.2829 -0.49171,0.96 -0.73757,2.0957 -0.73757,3.4069 0,1.3112 0.26928,2.4702 0.80782,3.4771 0.56196,0.9834 1.33466,1.7443 2.31809,2.2829 0.98342,0.5386 2.10734,0.8079 3.37175,0.8079 2.31808,0 4.21471,-0.9834 5.68984,-2.9503 z m 2.4937,-2.4937 h -15.62951 v -2.4234 h 15.06756 l 0.56195,1.2292 z m 21.68674,7.6215 h -3.26639 v -10.0449 c 0,-1.7094 -0.38635,-2.9854 -1.15904,-3.8284 -0.77269,-0.8663 -1.81466,-1.2995 -3.1259,-1.2995 -0.9366,0 -1.82637,0.2458 -2.6693,0.7376 -0.84294,0.4916 -1.52198,1.2643 -2.03711,2.318 -0.51513,1.0537 -0.7727,2.4118 -0.7727,4.0742 v 8.043 h -3.26639 v -17.4208 h 3.23127 v 5.3388 h -0.49172 c 0.25757,-1.4753 0.72587,-2.6342 1.4049,-3.4772 0.67904,-0.8664 1.48686,-1.4869 2.42346,-1.8616 0.9366,-0.3746 1.90832,-0.5619 2.91517,-0.5619 2.10734,0 3.76981,0.6557 4.98739,1.9669 1.21758,1.2878 1.82636,3.161 1.82636,5.6196 z m 19.50918,-4.9522 2.21271,2.1074 c -0.84293,1.0537 -1.8849,1.8849 -3.1259,2.4936 -1.241,0.6089 -2.64589,0.9133 -4.21469,0.9133 -1.77954,0 -3.37177,-0.398 -4.77666,-1.1943 -1.38149,-0.7961 -2.47028,-1.8849 -3.2664,-3.2663 -0.79611,-1.405 -1.19416,-3.0089 -1.19416,-4.8118 0,-1.7796 0.39805,-3.3601 1.19416,-4.7415 0.79612,-1.405 1.89662,-2.5054 3.30151,-3.3016 1.42832,-0.8195 3.03225,-1.2293 4.81179,-1.2293 1.54539,0 2.92687,0.3044 4.14445,0.9132 1.241,0.6088 2.28297,1.44 3.1259,2.4937 l -2.21271,2.1074 c -0.53854,-0.8195 -1.21758,-1.4752 -2.0371,-1.9668 -0.81954,-0.4918 -1.80296,-0.7376 -2.9503,-0.7376 -1.17075,0 -2.21271,0.281 -3.1259,0.8428 -0.88977,0.5386 -1.59222,1.2996 -2.10735,2.283 -0.49171,0.96 -0.73757,2.0724 -0.73757,3.3367 0,1.2644 0.24586,2.3883 0.73757,3.3717 0.51513,0.9601 1.21758,1.7211 2.10735,2.283 0.91319,0.5385 1.95515,0.8078 3.1259,0.8078 1.17075,0 2.15418,-0.2459 2.9503,-0.7376 0.81952,-0.4917 1.49856,-1.1473 2.0371,-1.9668 z m 21.37061,-0.1756 2.0371,2.1072 c -0.91319,1.124 -2.0371,2.0021 -3.37177,2.6343 -1.31123,0.6323 -2.79808,0.9484 -4.46056,0.9484 -1.89661,0 -3.58249,-0.398 -5.05763,-1.1943 -1.47514,-0.7961 -2.63418,-1.8849 -3.47713,-3.2663 -0.81952,-1.405 -1.22929,-3.0089 -1.22929,-4.8118 0,-1.8029 0.39806,-3.3953 1.19417,-4.7767 0.79612,-1.4049 1.89662,-2.5054 3.30152,-3.3014 1.40489,-0.7963 2.9854,-1.1943 4.74153,-1.1943 1.70929,0 3.21956,0.398 4.5308,1.1943 1.33465,0.7726 2.37662,1.8497 3.12591,3.2311 0.77269,1.3581 1.15904,2.9386 1.15904,4.7416 v 0.2108 h -3.30152 v -0.3161 c 0,-1.2645 -0.23415,-2.365 -0.70245,-3.3016 -0.46831,-0.96 -1.12392,-1.6975 -1.96686,-2.2126 -0.81953,-0.5386 -1.76783,-0.8079 -2.84492,-0.8079 -1.14734,0 -2.16588,0.2693 -3.05566,0.8079 -0.88976,0.5385 -1.5805,1.2995 -2.07222,2.2829 -0.49172,0.96 -0.73757,2.0957 -0.73757,3.4069 0,1.3112 0.26927,2.4702 0.80781,3.4771 0.56196,0.9834 1.33466,1.7443 2.31809,2.2829 0.98342,0.5386 2.10734,0.8079 3.37175,0.8079 2.31808,0 4.21471,-0.9834 5.68986,-2.9503 z m 2.49369,-2.4937 h -15.62952 v -2.4234 h 15.06756 l 0.56196,1.2292 z"
           id="path20"
           style="font-weight:500;font-size:37.3864px;line-height:1.25;font-family:'Wix Madefor Display';-inkscape-font-specification:'Wix Madefor Display Medium';text-align:center;letter-spacing:1.5875px;word-spacing:0px;text-anchor:middle;fill:#d4d4d4;fill-opacity:1;stroke-width:0.24856"
           aria-label="UiO: Life science"
           sodipodi:nodetypes="cscscsccscscscccccccscscssscsssccsscssscssccsssscscssccsccsssssscscsssssscscsccccccccccccscscssscsccssccscscccccccccsscscssccsccsccsscscssccccccccccscscccsscsscccscscccsccsccccssccsccscccssccsccscccccccscscssscscccsscscssccsccsccsscscsscccccccccscsssscccccccsscscccssccsccscccssccsccscccccsscscssccsccsccsscscssccccccc" />
        <text
           xml:space="preserve"
           style="font-style:normal;font-variant:normal;font-weight:normal;font-stretch:normal;font-size:81.8208px;line-height:1.25;font-family:'Expletus Sans';-inkscape-font-specification:'Expletus Sans';text-align:center;letter-spacing:3.56777px;word-spacing:0px;text-anchor:middle;fill:#cc4c4c;fill-opacity:1;stroke-width:0.356775"
           x="477.4429"
           y="994.78693"
           id="text20"><tspan
             sodipodi:role="line"
             id="tspan20"
             style="font-style:normal;font-variant:normal;font-weight:500;font-stretch:normal;font-size:81.8208px;font-family:'Wix Madefor Display';-inkscape-font-specification:'Wix Madefor Display Medium';letter-spacing:3.56777px;fill:#cc4c4c;fill-opacity:1;stroke-width:0.356775"
             x="479.22678"
             y="994.78693">CAPRO</tspan></text>
      </g>
    </g>
  </g>
  <g
     inkscape:groupmode="layer"
     id="layer3"
     inkscape:label="font2"
     transform="translate(136.23618,-42.168342)" />
</svg>
