<?xml version="1.0" encoding="UTF-8" standalone="no"?>
<!-- Created with Inkscape (http://www.inkscape.org/) -->

<svg
   width="137.49222mm"
   height="50.677505mm"
   viewBox="0 0 137.49222 50.677505"
   version="1.1"
   id="svg1"
   inkscape:version="1.3 (0e150ed, 2023-07-21)"
   sodipodi:docname="capro_logo_darl.svg"
   xmlns:inkscape="http://www.inkscape.org/namespaces/inkscape"
   xmlns:sodipodi="http://sodipodi.sourceforge.net/DTD/sodipodi-0.dtd"
   xmlns="http://www.w3.org/2000/svg"
   xmlns:svg="http://www.w3.org/2000/svg">
  <sodipodi:namedview
     id="namedview1"
     pagecolor="#505050"
     bordercolor="#eeeeee"
     borderopacity="1"
     inkscape:showpageshadow="0"
     inkscape:pageopacity="0"
     inkscape:pagecheckerboard="0"
     inkscape:deskcolor="#505050"
     inkscape:document-units="mm"
     inkscape:zoom="0.55814484"
     inkscape:cx="217.68543"
     inkscape:cy="194.39399"
     inkscape:window-width="2512"
     inkscape:window-height="1084"
     inkscape:window-x="2446"
     inkscape:window-y="49"
     inkscape:window-maximized="0"
     inkscape:current-layer="layer1" />
  <defs
     id="defs1" />
  <g
     inkscape:label="Layer 1"
     inkscape:groupmode="layer"
     id="layer1"
     transform="translate(-47.360416,-97.366666)">
    <g
       id="g2"
       inkscape:export-filename="logo_dark.png"
       inkscape:export-xdpi="96"
       inkscape:export-ydpi="96"
       transform="translate(19.198016,58.475298)">
      <g
         id="g6"
         transform="translate(142.3353,180.53561)">
        <path
           id="path4"
           style="fill:#20242a;fill-opacity:1;stroke:#d4d4d4;stroke-width:1.1;stroke-linejoin:round;stroke-miterlimit:10;stroke-dasharray:none;stroke-opacity:1"
           d="m -90.77433,-91.51673 -22.84857,-12.39439 v -24.78875 l 22.84857,-12.39438 22.84857,12.39437 v 24.78876 z" />
        <path
           style="fill:#d4d4d4;fill-opacity:1;stroke:none;stroke-width:0.444029"
           d="m -91.08302,-134.17586 c -1.55335,0.074 -2.91247,0.66585 -4.07733,1.77525 -0.51611,0.49123 -0.86703,1.05642 -1.05271,1.69571 a 0.06596453,0.0619779 0 0 0 0.11917,0.0491 c 1.24325,-1.87224 3.86728,-2.71163 6.10365,-2.06861 1.94321,0.55952 3.30911,1.97652 3.91379,3.81175 0.0177,0.0528 8e-4,0.0662 -0.0514,0.0404 l -1.83969,-0.90973 a 0.05588662,0.05250905 0 0 0 -0.0823,0.0439 c -0.0403,0.62092 0.20401,1.14618 0.73294,1.57601 l 0.21974,0.12575 c 0.0623,0.035 0.0767,0.0829 0.0431,0.14375 -0.73201,1.3222 -1.60058,2.56089 -2.93819,3.39329 -0.42785,0.26685 -0.9867,0.43821 -1.48235,0.64308 -1.17269,0.48377 -1.61888,1.22654 -2.36647,2.16395 -0.69446,0.86941 -1.47925,1.51014 -2.3545,1.92218 -0.71095,0.33456 -1.41683,0.67836 -2.1174,1.03129 -0.90213,0.45393 -1.74913,1.11795 -2.54131,1.99195 -0.55032,0.60715 -1.25865,0.89799 -2.12474,0.87275 l -0.78698,-0.11619 a 0.08612037,0.08091559 0 0 0 -0.0925,0.1103 c 0.22599,0.53255 0.61075,0.87156 1.15434,1.01732 0.33899,0.0904 0.78799,0.0689 1.17277,0.0698 0.0299,0 0.0461,0.0141 0.0485,0.0422 0.0525,0.65134 0.12153,1.30128 0.20703,1.94976 0.033,0.24848 -0.0305,0.66764 -0.19057,1.25757 -0.22415,0.60084 -0.64304,1.08607 -1.25687,1.45564 -0.53932,0.35522 -1.14983,0.58857 -1.83146,0.69991 l -0.0256,0.42518 c -0.39701,1.10298 -0.88261,2.19741 -1.45675,3.28316 l -0.14297,0.28566 c -0.15209,0.21003 -0.35304,0.38422 -0.60285,0.52253 a 0.1942289,0.18249048 0 0 0 -0.0807,0.22815 l 0.49011,1.08626 c 0.22456,-0.0978 1.18985,-0.5175 1.47787,-0.64292 -0.1143,-0.32864 -0.11184,-0.66143 0.0102,-0.99849 0.29134,-0.91848 0.65682,-1.5263 1.22485,-2.56443 0.21347,-0.38994 0.39404,-0.5939 0.86679,-0.72647 0.60101,-0.16757 1.17994,-0.34814 1.73697,-0.54154 0.68407,-0.2393 1.32022,-0.55803 1.9084,-0.9563 1.00535,-0.70183 1.72848,-1.60515 2.16947,-2.70984 0.004,-0.0103 0.0113,-0.0137 0.0229,-0.0103 0.0128,0.003 0.0183,0.009 0.0165,0.0172 -0.16431,0.58535 -0.2794,1.17913 -0.34536,1.78113 a 0.1200188,0.11276534 0 0 0 0.12008,0.1239 c 1.03161,-0.0103 2.05797,0.10322 3.07919,0.3408 0.64516,0.14946 1.32228,0.19842 1.54873,0.86837 0.82198,-0.35756 0.99198,-0.43161 1.85168,-0.8055 -0.5476,-0.51391 -1.09592,-0.70946 -1.93185,-0.87458 -0.95037,-0.18766 -1.89634,-0.39338 -2.83817,-0.6172 -0.0385,-0.009 -0.0461,-0.0289 -0.0229,-0.0593 0.55154,-0.71217 0.81358,-1.50993 0.78609,-2.3931 -7.9e-4,-0.0321 0.0158,-0.0504 0.0494,-0.055 1.98259,-0.29182 3.85889,-1.03397 5.16261,-2.51198 0.0171,-0.0195 0.0383,-0.0252 0.0633,-0.0172 l 2.44433,0.77035 a 0.05860412,0.05425936 2.3452213 0 1 0.0394,0.056 c -0.01,0.11765 -0.0327,0.21577 -0.0687,0.29439 -0.29624,0.64274 -0.6578,1.32286 -1.08474,2.0402 -0.18323,0.30817 -0.63854,0.36326 -0.97111,0.36584 -0.0263,0 -0.0412,0.0129 -0.0449,0.037 -0.0965,0.69438 -0.0214,1.37099 0.22529,2.02979 a 0.03389844,0.03184975 0 0 0 0.054,0.0138 c 0.31149,-0.24332 0.63187,-0.48261 0.96108,-0.71789 0.24553,-0.17561 0.25388,-0.32969 0.33175,-0.59568 0.0742,-0.25566 0.42145,-0.26942 0.51947,-0.53111 0.35425,-0.94574 0.77389,-1.82008 1.25885,-2.62293 0.18598,-0.30731 0.32693,-0.63962 -0.009,-0.91678 -0.5558,-0.45795 -1.11372,-0.91422 -1.6738,-1.36872 -0.0201,-0.0166 -0.0167,-0.0249 0.0102,-0.0249 l 3.23309,-0.0259 a 0.05959077,0.05677546 3.2445133 0 1 0.0578,0.038 c 0.27608,0.72652 0.44604,1.53534 0.51017,2.42656 0.0354,0.49411 -0.16393,0.83719 -0.5982,1.02944 a 0.06413219,0.06025629 0 0 0 -0.0358,0.0645 l 0.23746,1.26717 c 0.64095,-0.27847 0.83339,-0.36186 1.475,-0.64056 -0.004,-0.009 -0.0113,-0.0102 -0.0138,-0.0213 -0.12277,-0.55694 0.0741,-0.71631 0.33247,-1.15704 a 0.14109081,0.13256384 0 0 0 0.0166,-0.0826 c -0.0486,-0.31763 -0.16781,-0.66451 -0.22278,-0.92705 -0.18568,-0.8895 -0.37193,-1.77899 -0.55883,-2.66849 -0.088,-0.41404 -0.29588,-0.42104 -0.68159,-0.49076 -0.93754,-0.16872 -1.8671,-0.36958 -2.78878,-0.60257 -0.0293,-0.007 -0.0372,-0.0238 -0.0238,-0.0491 0.57963,-1.11217 0.88776,-2.29021 0.92441,-3.53435 0.0165,-0.54116 0.0214,-1.08376 0.0147,-1.6278 a 0.05130575,0.04820503 0 0 1 0.0385,-0.0466 l 1.26888,-0.3107 a 0.12237964,0.13085717 87.666516 0 1 0.13742,0.0456 c 0.64559,0.80743 0.63391,1.60695 -0.0349,2.39832 a 0.02656905,0.02496332 0 0 0 0.0293,0.0395 c 1.19469,-0.35236 1.73921,-1.13222 1.63355,-2.33965 -0.004,-0.0361 0.014,-0.0554 0.0531,-0.0577 0.46265,-0.0249 1.06832,0.17384 1.08114,-0.51481 8e-4,-0.0258 -0.013,-0.0384 -0.0404,-0.0378 h -0.18126 a 0.03664696,0.03443217 0 0 1 -0.0249,-0.0593 c 0.12185,-0.1033 0.27303,-0.18075 0.328,-0.32364 0.14384,-0.37187 -0.37561,-0.66038 -0.75674,-0.89107 -0.55244,-0.33485 -1.2716,-0.64035 -1.53638,-1.24463 -0.30417,-0.69438 -0.64414,-1.37249 -1.01977,-2.03416 -0.87831,-1.54657 -2.1883,-2.65978 -3.93025,-3.33982 -0.38235,-0.1492 -0.74929,-0.2491 -1.10048,-0.29959 -0.27302,-0.0397 -0.54078,-0.0656 -0.80344,-0.0777 -0.22983,-0.0105 -0.45574,-0.0106 -0.67765,0 z"
           id="path5" />
        <path
           id="path6"
           style="fill:#cc4c4c;fill-opacity:1;stroke:none;stroke-width:0.3;stroke-linecap:square;stroke-linejoin:bevel;stroke-miterlimit:10;stroke-dasharray:none;stroke-opacity:1;paint-order:normal"
           d="m -65.774244,-118.24682 0.900689,1.09456 -7.721532,3.44511 c -0.14978,-0.10004 -0.32613,-0.1529 -0.50624,-0.15174 -0.26535,0.002 -0.51654,0.11942 -0.68657,0.32314 l -4.76328,-0.69316 c -0.12838,-0.35936 -0.46919,-0.59938 -0.85079,-0.5984 -0.49759,0.003 -0.89886,0.40808 -0.89628,0.90566 0.001,0.0934 0.0164,0.18605 0.0459,0.27468 l -6.75955,7.77118 c -0.0628,-0.0142 -0.12694,-0.0217 -0.19132,-0.0222 -0.2217,0.002 -0.43503,0.0848 -0.5992,0.23377 l -6.160393,-2.05802 c -0.1484,-0.31964 -0.46955,-0.52342 -0.82195,-0.52156 -0.4976,0.003 -0.89863,0.40859 -0.89576,0.90618 7e-4,0.12775 0.0285,0.2539 0.0816,0.37008 l -2.449,4.60085 c -0.0127,-9.3e-4 -0.0255,-0.002 -0.0382,-0.003 -0.30543,0.002 -0.58918,0.15818 -0.75375,0.41549 l -3.6278,-0.66943 c -0.15621,-0.29869 -0.46607,-0.4852 -0.80313,-0.48342 -0.46283,0.004 -0.84758,0.35741 -0.89004,0.8183 -2.12421,1.40457 -4.25427,2.800299 -6.37709,4.20696 l 1.64742,-0.0091 5.11402,-3.37526 c 0.15137,0.10513 0.33131,0.16132 0.51559,0.16099 0.30352,-0.002 0.58572,-0.15653 0.75069,-0.41134 l 3.63658,0.67092 c 0.15679,0.29468 0.46365,0.47852 0.79743,0.47777 0.49778,-0.003 0.89914,-0.40838 0.89626,-0.90617 -0.002,-0.14326 -0.0372,-0.28408 -0.10406,-0.41079 l 2.42855,-4.56301 c 0.0268,0.003 0.0537,0.005 0.0806,0.006 0.28304,-0.002 0.5489,-0.13603 0.71787,-0.3631 l 5.980223,1.99804 c 0.0898,0.4158 0.45809,0.71217 0.88345,0.71087 0.49739,-0.003 0.89835,-0.40827 0.89576,-0.90566 -8e-4,-0.0923 -0.0158,-0.18385 -0.0444,-0.27157 l 6.75954,-7.77325 c 0.0625,0.0139 0.12626,0.0212 0.19029,0.0216 0.26297,-0.002 0.51207,-0.11822 0.68194,-0.31897 l 4.77001,0.69519 c 0.1302,0.35617 0.46946,0.59271 0.84869,0.59168 0.47236,-0.004 0.86164,-0.37171 0.89197,-0.84311 l 7.692405,-3.43179 0.199901,1.36849 1.472394,-2.62617 z"
           sodipodi:nodetypes="cccccccccccccccccccccccccccccccccccccccccccccccc" />
      </g>
      <g
         id="g7"
         transform="matrix(0.26490263,0,0,0.26490263,-10.625366,-135.3705)">
        <path
           style="font-size:37.3864px;line-height:1.25;font-family:wix;-inkscape-font-specification:wix;text-align:center;letter-spacing:0.330729px;word-spacing:0px;text-anchor:middle;fill:#d4d4d4;fill-opacity:1;stroke-width:0.264582"
           d="m 377.74974,812.52957 c 0,1.97155 -0.21906,3.69361 -0.65719,5.16619 -0.42595,1.46041 -1.13181,2.67741 -2.11759,3.65101 -0.93709,0.92493 -2.0324,1.60037 -3.28591,2.02632 -1.25351,0.42595 -2.71392,0.63892 -4.38122,0.63892 -1.70381,0 -3.18855,-0.22514 -4.45424,-0.67543 -1.26569,-0.45029 -2.33057,-1.11356 -3.19464,-1.98981 -0.98577,-0.99794 -1.69772,-2.20277 -2.13584,-3.6145 -0.42595,-1.41173 -0.63893,-3.14596 -0.63893,-5.2027 V 796.2643 h 3.61451 v 16.44782 c 0,1.47257 0.0974,2.63481 0.29208,3.48672 0.20689,0.85191 0.54765,1.62471 1.02228,2.3184 0.53549,0.79105 1.25961,1.38738 2.17236,1.78899 0.92492,0.40161 2.03239,0.60242 3.32242,0.60242 1.30219,0 2.40967,-0.19472 3.32243,-0.58416 0.91275,-0.40161 1.64295,-1.00403 2.1906,-1.80725 0.47463,-0.69369 0.80931,-1.48475 1.00403,-2.37316 0.20689,-0.90059 0.31034,-2.01415 0.31034,-3.34068 v -16.5391 h 3.61451 z m 10.64484,-12.88808 h -3.87007 v -3.55974 h 3.87007 z m -0.21906,23.80462 h -3.43195 v -20.39093 h 3.43195 z m 27.65858,-24.0602 c 1.10747,1.21701 1.95329,2.70784 2.53746,4.4725 0.59633,1.76465 0.8945,3.76663 0.8945,6.00592 0,2.23929 -0.30425,4.24734 -0.91276,6.02417 -0.59633,1.76466 -1.43607,3.23724 -2.5192,4.41773 -1.11965,1.22918 -2.44618,2.1541 -3.97961,2.77477 -1.52125,0.62067 -3.26157,0.93101 -5.22095,0.93101 -1.91069,0 -3.65101,-0.31642 -5.22095,-0.94926 -1.55777,-0.63284 -2.8843,-1.55168 -3.97961,-2.75652 -1.0953,-1.20483 -1.94112,-2.68349 -2.53745,-4.43598 -0.58417,-1.75249 -0.87625,-3.75446 -0.87625,-6.00592 0,-2.21495 0.29208,-4.19867 0.87625,-5.95116 0.58416,-1.76465 1.43606,-3.27374 2.55571,-4.52726 1.07097,-1.19266 2.3975,-2.10541 3.97961,-2.73826 1.59427,-0.63284 3.3285,-0.94926 5.20269,-0.94926 1.94721,0 3.69361,0.32251 5.23921,0.96752 1.55777,0.63284 2.87822,1.53951 3.96135,2.72 z m -0.32859,10.47842 c 0,-3.52931 -0.79105,-6.24932 -2.37316,-8.16002 -1.58211,-1.92287 -3.74229,-2.8843 -6.48055,-2.8843 -2.76261,0 -4.93496,0.96143 -6.51707,2.8843 -1.56993,1.9107 -2.3549,4.63071 -2.3549,8.16002 0,3.56583 0.80322,6.298 2.40967,8.19653 1.60645,1.88636 3.76055,2.82954 6.4623,2.82954 2.70175,0 4.84976,-0.94318 6.44404,-2.82954 1.60645,-1.89853 2.40967,-4.6307 2.40967,-8.19653 z m 15.26407,-3.72312 h -4.36296 v -5.2027 h 4.36296 z m 0,15.18823 h -4.36296 v -5.2027 h 4.36296 z m 37.77542,2.11667 H 451.34872 V 796.2643 h 3.6145 v 23.96891 H 468.545 Z m 7.35894,-23.80462 h -3.87008 v -3.55974 h 3.87008 z m -0.21907,23.80462 h -3.43195 v -20.39093 h 3.43195 z m 18.09292,-25.08248 h -0.18255 c -0.37727,-0.10953 -0.87016,-0.21906 -1.47866,-0.32859 -0.6085,-0.1217 -1.14398,-0.18255 -1.60645,-0.18255 -1.47257,0 -2.54354,0.32859 -3.21289,0.98577 -0.65719,0.64501 -0.98578,1.81942 -0.98578,3.52323 v 0.69369 h 6.18848 v 2.88431 H 486.421 v 17.50662 h -3.43196 v -17.50662 h -2.31839 v -2.88431 h 2.31839 v -0.67543 c 0,-2.42184 0.60242,-4.27777 1.80725,-5.5678 1.20484,-1.3022 2.94516,-1.9533 5.22096,-1.9533 0.76671,0 1.45432,0.0365 2.06282,0.10954 0.62067,0.073 1.18658,0.15821 1.69772,0.25557 z m 19.57158,15.24299 h -15.02393 c 0,1.25351 0.18864,2.34882 0.56591,3.28591 0.37727,0.92493 0.89449,1.68556 1.55168,2.28189 0.63284,0.58416 1.3813,1.02228 2.24537,1.31436 0.87625,0.29209 1.83768,0.43813 2.8843,0.43813 1.38739,0 2.78086,-0.27383 4.18042,-0.82148 1.41173,-0.55983 2.41576,-1.10748 3.01209,-1.64296 h 0.18255 v 3.74229 c -1.15616,0.4868 -2.33666,0.8945 -3.54149,1.22309 -1.20483,0.32859 -2.47052,0.49289 -3.79705,0.49289 -3.38328,0 -6.02418,-0.91275 -7.92271,-2.73826 -1.89853,-1.83768 -2.84779,-4.44207 -2.84779,-7.81318 0,-3.33459 0.90667,-5.98158 2.72001,-7.94096 1.82551,-1.95937 4.22301,-2.93906 7.1925,-2.93906 2.75043,0 4.86801,0.80322 6.35276,2.40967 1.49692,1.60645 2.24538,3.88833 2.24538,6.84565 z m -3.34068,-2.62873 c -0.0122,-1.80117 -0.46858,-3.19464 -1.36913,-4.18041 -0.88841,-0.98578 -2.24537,-1.47867 -4.07088,-1.47867 -1.83768,0 -3.30417,0.54157 -4.39948,1.62471 -1.08313,1.08313 -1.69772,2.42792 -1.84376,4.03437 z m 34.27021,6.59008 c 0,1.86202 -0.7728,3.38936 -2.31839,4.58203 -1.53343,1.19266 -3.63276,1.78899 -6.29801,1.78899 -1.50908,0 -2.89646,-0.17646 -4.16215,-0.52939 -1.25352,-0.36511 -2.30623,-0.76063 -3.15813,-1.18658 v -3.85183 h 0.18255 c 1.08313,0.81539 2.28797,1.46649 3.6145,1.9533 1.32654,0.47463 2.59831,0.71195 3.81532,0.71195 1.50909,0 2.68958,-0.2434 3.54148,-0.73021 0.85191,-0.4868 1.27786,-1.25351 1.27786,-2.30014 0,-0.80322 -0.23123,-1.41172 -0.6937,-1.8255 -0.46246,-0.41379 -1.35087,-0.76672 -2.66524,-1.0588 -0.4868,-0.10953 -1.12573,-0.23731 -1.91678,-0.38336 -0.77889,-0.14604 -1.49083,-0.30425 -2.13584,-0.47463 -1.789,-0.47463 -3.06077,-1.16833 -3.81532,-2.08108 -0.74237,-0.92492 -1.11356,-2.05673 -1.11356,-3.39544 0,-0.83973 0.17038,-1.63079 0.51115,-2.37316 0.35293,-0.74237 0.88232,-1.40564 1.58819,-1.9898 0.68152,-0.57199 1.54559,-1.02229 2.59222,-1.35088 1.05879,-0.34076 2.23929,-0.51114 3.54148,-0.51114 1.21701,0 2.44618,0.15212 3.68753,0.45637 1.25351,0.29209 2.29405,0.6511 3.12162,1.07705 v 3.66927 h -0.18255 c -0.87625,-0.64501 -1.94113,-1.18657 -3.19464,-1.6247 -1.25351,-0.45029 -2.48269,-0.67544 -3.68753,-0.67544 -1.25351,0 -2.31231,0.2434 -3.17638,0.73021 -0.86407,0.47463 -1.29611,1.18658 -1.29611,2.13584 0,0.83973 0.26166,1.47258 0.78497,1.89853 0.51114,0.42595 1.3387,0.7728 2.48269,1.04054 0.63284,0.14604 1.3387,0.29208 2.11759,0.43812 0.79105,0.14604 1.44824,0.27991 1.97155,0.40161 1.59427,0.36511 2.82345,0.99187 3.68752,1.88028 0.86407,0.90058 1.29611,2.09324 1.29611,3.57799 z m 20.32004,4.60028 c -1.14398,0.54765 -2.2332,0.97361 -3.26766,1.27786 -1.02228,0.30425 -2.1115,0.45637 -3.26766,0.45637 -1.47257,0 -2.82345,-0.21297 -4.05262,-0.63892 -1.22918,-0.43813 -2.28189,-1.09531 -3.15813,-1.97155 -0.88841,-0.87625 -1.57602,-1.98372 -2.06282,-3.32243 -0.48681,-1.33871 -0.73021,-2.90256 -0.73021,-4.69155 0,-3.33459 0.91275,-5.95116 2.73826,-7.84969 1.83768,-1.89853 4.25952,-2.84779 7.26552,-2.84779 1.16833,0 2.31231,0.1643 3.43196,0.49289 1.13181,0.32859 2.16627,0.7302 3.10336,1.20483 v 3.81532 h -0.18255 c -1.04662,-0.81539 -2.12975,-1.44215 -3.2494,-1.88028 -1.10747,-0.43812 -2.19061,-0.65718 -3.24941,-0.65718 -1.94721,0 -3.48672,0.65718 -4.61853,1.97155 -1.11965,1.30219 -1.67947,3.21898 -1.67947,5.75035 0,2.45835 0.54765,4.35079 1.64296,5.67733 1.10747,1.31437 2.65915,1.97155 4.65504,1.97155 0.69369,0 1.39956,-0.0913 2.11759,-0.27383 0.71803,-0.18255 1.36305,-0.41987 1.93504,-0.71195 0.49897,-0.25557 0.96752,-0.52331 1.40564,-0.80322 0.43813,-0.29208 0.78497,-0.54157 1.04054,-0.74846 h 0.18255 z m 8.41773,-22.52676 h -3.87007 v -3.55974 h 3.87007 z m -0.21906,23.80462 h -3.43195 v -20.39093 h 3.43195 z m 24.19011,-9.83949 h -15.02393 c 0,1.25351 0.18864,2.34882 0.56591,3.28591 0.37727,0.92493 0.89449,1.68556 1.55168,2.28189 0.63284,0.58416 1.3813,1.02228 2.24537,1.31436 0.87625,0.29209 1.83768,0.43813 2.8843,0.43813 1.38739,0 2.78086,-0.27383 4.18042,-0.82148 1.41173,-0.55983 2.41575,-1.10748 3.01208,-1.64296 h 0.18256 v 3.74229 c -1.15616,0.4868 -2.33666,0.8945 -3.54149,1.22309 -1.20483,0.32859 -2.47052,0.49289 -3.79706,0.49289 -3.38327,0 -6.02417,-0.91275 -7.9227,-2.73826 -1.89853,-1.83768 -2.84779,-4.44207 -2.84779,-7.81318 0,-3.33459 0.90667,-5.98158 2.72001,-7.94096 1.82551,-1.95937 4.22301,-2.93906 7.1925,-2.93906 2.75043,0 4.86801,0.80322 6.35276,2.40967 1.49692,1.60645 2.24538,3.88833 2.24538,6.84565 z m -3.34068,-2.62873 c -0.0122,-1.80117 -0.46858,-3.19464 -1.36913,-4.18041 -0.88841,-0.98578 -2.24537,-1.47867 -4.07088,-1.47867 -1.83768,0 -3.30417,0.54157 -4.39948,1.62471 -1.08313,1.08313 -1.69772,2.42792 -1.84376,4.03437 z m 25.92435,12.46822 h -3.43195 v -11.61023 c 0,-0.93709 -0.0548,-1.81334 -0.1643,-2.62873 -0.10953,-0.82757 -0.31033,-1.47258 -0.60242,-1.93504 -0.30425,-0.51115 -0.74237,-0.88842 -1.31436,-1.13182 -0.57199,-0.25557 -1.31437,-0.38335 -2.22712,-0.38335 -0.93709,0 -1.91678,0.23123 -2.93907,0.69369 -1.02229,0.46246 -2.00198,1.05271 -2.93907,1.77074 v 15.22474 h -3.43195 v -20.39093 h 3.43195 v 2.26363 c 1.07097,-0.88841 2.17844,-1.5821 3.32243,-2.08107 1.14398,-0.49897 2.31839,-0.74846 3.52323,-0.74846 2.20278,0 3.88225,0.66327 5.0384,1.9898 1.15615,1.32653 1.73423,3.23723 1.73423,5.73209 z m 22.01777,-1.27786 c -1.14399,0.54765 -2.23321,0.97361 -3.26766,1.27786 -1.02228,0.30425 -2.1115,0.45637 -3.26766,0.45637 -1.47257,0 -2.82345,-0.21297 -4.05262,-0.63892 -1.22918,-0.43813 -2.28189,-1.09531 -3.15813,-1.97155 -0.88841,-0.87625 -1.57602,-1.98372 -2.06283,-3.32243 -0.4868,-1.33871 -0.7302,-2.90256 -0.7302,-4.69155 0,-3.33459 0.91275,-5.95116 2.73826,-7.84969 1.83768,-1.89853 4.25952,-2.84779 7.26552,-2.84779 1.16833,0 2.31231,0.1643 3.43196,0.49289 1.13181,0.32859 2.16627,0.7302 3.10336,1.20483 v 3.81532 h -0.18255 c -1.04663,-0.81539 -2.12976,-1.44215 -3.2494,-1.88028 -1.10747,-0.43812 -2.19061,-0.65718 -3.24941,-0.65718 -1.94721,0 -3.48672,0.65718 -4.61853,1.97155 -1.11965,1.30219 -1.67947,3.21898 -1.67947,5.75035 0,2.45835 0.54765,4.35079 1.64296,5.67733 1.10747,1.31437 2.65915,1.97155 4.65504,1.97155 0.69369,0 1.39956,-0.0913 2.11759,-0.27383 0.71803,-0.18255 1.36305,-0.41987 1.93504,-0.71195 0.49897,-0.25557 0.96752,-0.52331 1.40564,-0.80322 0.43812,-0.29208 0.78497,-0.54157 1.04054,-0.74846 h 0.18255 z m 21.7987,-8.56163 h -15.02392 c 0,1.25351 0.18863,2.34882 0.5659,3.28591 0.37727,0.92493 0.8945,1.68556 1.55168,2.28189 0.63285,0.58416 1.38131,1.02228 2.24538,1.31436 0.87624,0.29209 1.83767,0.43813 2.8843,0.43813 1.38739,0 2.78086,-0.27383 4.18041,-0.82148 1.41173,-0.55983 2.41576,-1.10748 3.01209,-1.64296 h 0.18255 v 3.74229 c -1.15615,0.4868 -2.33665,0.8945 -3.54148,1.22309 -1.20484,0.32859 -2.47053,0.49289 -3.79706,0.49289 -3.38327,0 -6.02417,-0.91275 -7.9227,-2.73826 -1.89853,-1.83768 -2.84779,-4.44207 -2.84779,-7.81318 0,-3.33459 0.90667,-5.98158 2.72,-7.94096 1.82551,-1.95937 4.22301,-2.93906 7.1925,-2.93906 2.75043,0 4.86802,0.80322 6.35277,2.40967 1.49691,1.60645 2.24537,3.88833 2.24537,6.84565 z m -3.34068,-2.62873 c -0.0121,-1.80117 -0.46851,-3.19464 -1.36913,-4.18041 -0.88841,-0.98578 -2.24537,-1.47867 -4.07088,-1.47867 -1.83767,0 -3.30416,0.54157 -4.39947,1.62471 -1.08313,1.08313 -1.69772,2.42792 -1.84376,4.03437 z"
           id="path7"
           aria-label="UiO: Life science"
           sodipodi:nodetypes="sccsssccsccscccscccsccsccccccccccccscccscscscccsccscscscscsccccccccccccccccccccccccccccccscsccccccccccscsccccccccsccccsscscscscccscccscscccccssssccccscccscccccscscccccsccsccsscscccccscscssccccccccccccccccccccsccccsscscscscccscccccscccssccccccsssscccsccsscscccccscscssccccccccccsccccsscscscscccsccc" />
        <text
           xml:space="preserve"
           style="font-style:normal;font-variant:normal;font-weight:normal;font-stretch:normal;font-size:91.8417px;line-height:1.25;font-family:'Expletus Sans';-inkscape-font-specification:'Expletus Sans';text-align:center;letter-spacing:4.00472px;word-spacing:0px;text-anchor:middle;fill:#cc4c4c;fill-opacity:1;stroke-width:0.400471"
           x="508.52142"
           y="772.11194"
           id="text7"><tspan
             sodipodi:role="line"
             id="tspan7"
             style="font-style:normal;font-variant:normal;font-weight:normal;font-stretch:normal;font-size:91.8417px;font-family:'Expletus Sans';-inkscape-font-specification:'Expletus Sans';letter-spacing:4.00472px;fill:#cc4c4c;fill-opacity:1;stroke-width:0.400471"
             x="510.52377"
             y="772.11194">CAPRO</tspan></text>
      </g>
    </g>
  </g>
</svg>
