<?xml version="1.0" encoding="UTF-8" standalone="no"?>
<!-- Created with Inkscape (http://www.inkscape.org/) -->

<svg
   width="210mm"
   height="297mm"
   viewBox="0 0 210 297"
   version="1.1"
   id="svg1"
   inkscape:version="1.3 (0e150ed, 2023-07-21)"
   sodipodi:docname="capro_favico.svg"
   xmlns:inkscape="http://www.inkscape.org/namespaces/inkscape"
   xmlns:sodipodi="http://sodipodi.sourceforge.net/DTD/sodipodi-0.dtd"
   xmlns="http://www.w3.org/2000/svg"
   xmlns:svg="http://www.w3.org/2000/svg">
  <sodipodi:namedview
     id="namedview1"
     pagecolor="#505050"
     bordercolor="#eeeeee"
     borderopacity="1"
     inkscape:showpageshadow="0"
     inkscape:pageopacity="0"
     inkscape:pagecheckerboard="0"
     inkscape:deskcolor="#505050"
     inkscape:document-units="mm"
     inkscape:zoom="0.81245665"
     inkscape:cx="291.70787"
     inkscape:cy="724.96176"
     inkscape:window-width="1592"
     inkscape:window-height="766"
     inkscape:window-x="0"
     inkscape:window-y="39"
     inkscape:window-maximized="0"
     inkscape:current-layer="layer1" />
  <defs
     id="defs1" />
  <g
     inkscape:groupmode="layer"
     id="layer4"
     inkscape:label="bkg"
     sodipodi:insensitive="true">
    <rect
       style="fill:#fefefe;fill-opacity:1;stroke:none;stroke-width:4.18255;stroke-linecap:square;stroke-linejoin:bevel;stroke-miterlimit:10"
       id="rect1"
       width="209.52621"
       height="297.18539"
       x="0.73558015"
       y="-0.034273043" />
  </g>
  <g
     inkscape:label="Layer 1"
     inkscape:groupmode="layer"
     id="layer1">
    <path
       id="path114"
       style="fill:#ffffff;fill-opacity:1;stroke:#484848;stroke-width:1.1;stroke-linejoin:round;stroke-miterlimit:10;stroke-dasharray:none;stroke-opacity:1"
       d="M 56.313746,81.14292 33.465176,68.74853 V 43.95978 l 22.84857,-12.39438 22.84857,12.39437 v 24.78876 z" />
    <path
       style="fill:#484848;fill-opacity:1;stroke:none;stroke-width:0.444029"
       d="m 56.005056,38.48379 c -1.55335,0.074 -2.91247,0.66585 -4.07733,1.77525 -0.51611,0.49123 -0.86703,1.05642 -1.05271,1.69571 a 0.06596453,0.0619779 0 0 0 0.11917,0.0491 c 1.24325,-1.87224 3.86728,-2.71163 6.10365,-2.06861 1.94321,0.55952 3.30911,1.97652 3.91379,3.81175 0.0177,0.0528 8e-4,0.0662 -0.0514,0.0404 l -1.83969,-0.90973 a 0.05588662,0.05250905 0 0 0 -0.0823,0.0439 c -0.0403,0.62092 0.20401,1.14618 0.73294,1.57601 l 0.21974,0.12575 c 0.0623,0.035 0.0767,0.0829 0.0431,0.14375 -0.73201,1.3222 -1.60058,2.56089 -2.93819,3.39329 -0.42785,0.26685 -0.9867,0.43821 -1.48235,0.64308 -1.17269,0.48377 -1.61888,1.22654 -2.36647,2.16395 -0.69446,0.86941 -1.47925,1.51014 -2.3545,1.92218 -0.71095,0.33456 -1.41683,0.67836 -2.1174,1.03129 -0.90213,0.45393 -1.74913,1.11795 -2.54131,1.99195 -0.55032,0.60715 -1.25865,0.89799 -2.12474,0.87275 l -0.78698,-0.11619 a 0.08612037,0.08091559 0 0 0 -0.0925,0.1103 c 0.22599,0.53255 0.61075,0.87156 1.15434,1.01732 0.33899,0.0904 0.78799,0.0689 1.17277,0.0698 0.0299,0 0.0461,0.0141 0.0485,0.0422 0.0525,0.65134 0.12153,1.30128 0.20703,1.94976 0.033,0.24848 -0.0305,0.66764 -0.19057,1.25757 -0.22415,0.60084 -0.64304,1.08607 -1.25687,1.45564 -0.53932,0.35522 -1.14983,0.58857 -1.83146,0.69991 l -0.0256,0.42518 c -0.39701,1.10298 -0.88261,2.19741 -1.45675,3.28316 l -0.14297,0.28566 c -0.15209,0.21003 -0.35304,0.38422 -0.60285,0.52253 a 0.1942289,0.18249048 0 0 0 -0.0807,0.22815 l 0.49011,1.08626 c 0.22456,-0.0978 1.18985,-0.5175 1.47787,-0.64292 -0.1143,-0.32864 -0.11184,-0.66143 0.0102,-0.99849 0.29134,-0.91848 0.65682,-1.5263 1.22485,-2.56443 0.21347,-0.38994 0.39404,-0.5939 0.86679,-0.72647 0.60101,-0.16757 1.17994,-0.34814 1.73697,-0.54154 0.68407,-0.2393 1.32022,-0.55803 1.9084,-0.9563 1.00535,-0.70183 1.72848,-1.60515 2.16947,-2.70984 0.004,-0.0103 0.0113,-0.0137 0.0229,-0.0103 0.0128,0.003 0.0183,0.009 0.0165,0.0172 -0.16431,0.58535 -0.2794,1.17913 -0.34536,1.78113 a 0.1200188,0.11276534 0 0 0 0.12008,0.1239 c 1.03161,-0.0103 2.05797,0.10322 3.07919,0.3408 0.64516,0.14946 1.32228,0.19842 1.54873,0.86837 0.82198,-0.35756 0.99198,-0.43161 1.85168,-0.8055 -0.5476,-0.51391 -1.09592,-0.70946 -1.93185,-0.87458 -0.95037,-0.18766 -1.89634,-0.39338 -2.83817,-0.6172 -0.0385,-0.009 -0.0461,-0.0289 -0.0229,-0.0593 0.55154,-0.71217 0.81358,-1.50993 0.78609,-2.3931 -7.9e-4,-0.0321 0.0158,-0.0504 0.0494,-0.055 1.98259,-0.29182 3.85889,-1.03397 5.16261,-2.51198 0.0171,-0.0195 0.0383,-0.0252 0.0633,-0.0172 l 2.44433,0.77035 a 0.05860412,0.05425936 2.3452213 0 1 0.0394,0.056 c -0.01,0.11765 -0.0327,0.21577 -0.0687,0.29439 -0.29624,0.64274 -0.6578,1.32286 -1.08474,2.0402 -0.18323,0.30817 -0.63854,0.36326 -0.97111,0.36584 -0.0263,0 -0.0412,0.0129 -0.0449,0.037 -0.0965,0.69438 -0.0214,1.37099 0.22529,2.02979 a 0.03389844,0.03184975 0 0 0 0.054,0.0138 c 0.31149,-0.24332 0.63187,-0.48261 0.96108,-0.71789 0.24553,-0.17561 0.25388,-0.32969 0.33175,-0.59568 0.0742,-0.25566 0.42145,-0.26942 0.51947,-0.53111 0.35425,-0.94574 0.77389,-1.82008 1.25885,-2.62293 0.18598,-0.30731 0.32693,-0.63962 -0.009,-0.91678 -0.5558,-0.45795 -1.11372,-0.91422 -1.6738,-1.36872 -0.0201,-0.0166 -0.0167,-0.0249 0.0102,-0.0249 l 3.23309,-0.0259 a 0.05959077,0.05677546 3.2445133 0 1 0.0578,0.038 c 0.27608,0.72652 0.44604,1.53534 0.51017,2.42656 0.0354,0.49411 -0.16393,0.83719 -0.5982,1.02944 a 0.06413219,0.06025629 0 0 0 -0.0358,0.0645 l 0.23746,1.26717 c 0.64095,-0.27847 0.83339,-0.36186 1.475,-0.64056 -0.004,-0.009 -0.0113,-0.0102 -0.0138,-0.0213 -0.12277,-0.55694 0.0741,-0.71631 0.33247,-1.15704 a 0.14109081,0.13256384 0 0 0 0.0166,-0.0826 c -0.0486,-0.31763 -0.16781,-0.66451 -0.22278,-0.92705 -0.18568,-0.8895 -0.37193,-1.77899 -0.55883,-2.66849 -0.088,-0.41404 -0.29588,-0.42104 -0.68159,-0.49076 -0.93754,-0.16872 -1.8671,-0.36958 -2.78878,-0.60257 -0.0293,-0.007 -0.0372,-0.0238 -0.0238,-0.0491 0.57963,-1.11217 0.88776,-2.29021 0.92441,-3.53435 0.0165,-0.54116 0.0214,-1.08376 0.0147,-1.6278 a 0.05130575,0.04820503 0 0 1 0.0385,-0.0466 l 1.26888,-0.3107 a 0.12237964,0.13085717 87.666516 0 1 0.13742,0.0456 c 0.64559,0.80743 0.63391,1.60695 -0.0349,2.39832 a 0.02656905,0.02496332 0 0 0 0.0293,0.0395 c 1.19469,-0.35236 1.73921,-1.13222 1.63355,-2.33965 -0.004,-0.0361 0.014,-0.0554 0.0531,-0.0577 0.46265,-0.0249 1.06832,0.17384 1.08114,-0.51481 8e-4,-0.0258 -0.013,-0.0384 -0.0404,-0.0378 h -0.18126 a 0.03664696,0.03443217 0 0 1 -0.0249,-0.0593 c 0.12185,-0.1033 0.27303,-0.18075 0.328,-0.32364 0.14384,-0.37187 -0.37561,-0.66038 -0.75674,-0.89107 -0.55244,-0.33485 -1.2716,-0.64035 -1.53638,-1.24463 -0.30417,-0.69438 -0.64414,-1.37249 -1.01977,-2.03416 -0.87831,-1.54657 -2.1883,-2.65978 -3.93025,-3.33982 -0.38235,-0.1492 -0.74929,-0.2491 -1.10048,-0.29959 -0.27302,-0.0397 -0.54078,-0.0656 -0.80344,-0.0777 -0.22983,-0.0105 -0.45574,-0.0106 -0.67765,0 z"
       id="path115" />
    <path
       id="path79"
       style="fill:#cc4c4c;fill-opacity:1;stroke:none;stroke-width:0.3;stroke-linecap:square;stroke-linejoin:bevel;stroke-miterlimit:10;stroke-dasharray:none;stroke-opacity:1;paint-order:normal"
       d="m 202.37978,273.20811 0.90069,1.09456 -7.72154,3.44511 c -0.14978,-0.10004 -0.32613,-0.1529 -0.50624,-0.15174 -0.26535,0.002 -0.51654,0.11942 -0.68657,0.32314 l -4.76328,-0.69316 c -0.12838,-0.35936 -0.46919,-0.59938 -0.85079,-0.5984 -0.49759,0.003 -0.89886,0.40808 -0.89628,0.90566 0.001,0.0934 0.0164,0.18605 0.0459,0.27468 l -6.75955,7.77118 c -0.0628,-0.0142 -0.12694,-0.0217 -0.19132,-0.0222 -0.2217,0.002 -0.43503,0.0848 -0.5992,0.23377 l -6.16039,-2.05802 c -0.1484,-0.31964 -0.46955,-0.52342 -0.82195,-0.52156 -0.4976,0.003 -0.89863,0.40859 -0.89576,0.90618 7e-4,0.12775 0.0285,0.2539 0.0816,0.37008 l -2.449,4.60085 c -0.0127,-9.3e-4 -0.0255,-0.002 -0.0382,-0.003 -0.30543,0.002 -0.58918,0.15818 -0.75375,0.41549 l -3.6278,-0.66943 c -0.15621,-0.29869 -0.46607,-0.4852 -0.80313,-0.48342 -0.46283,0.004 -0.84758,0.35741 -0.89004,0.8183 -2.12421,1.40457 -4.25427,2.8003 -6.37709,4.20696 l 1.64742,-0.009 5.11402,-3.37526 c 0.15137,0.10513 0.33131,0.16132 0.51559,0.16099 0.30352,-0.002 0.58572,-0.15653 0.75069,-0.41134 l 3.63658,0.67092 c 0.15679,0.29468 0.46365,0.47852 0.79743,0.47777 0.49778,-0.003 0.89914,-0.40838 0.89626,-0.90617 -0.002,-0.14326 -0.0372,-0.28408 -0.10406,-0.41079 l 2.42855,-4.56301 c 0.0268,0.003 0.0537,0.005 0.0806,0.006 0.28304,-0.002 0.5489,-0.13603 0.71787,-0.3631 l 5.98022,1.99804 c 0.0898,0.4158 0.45809,0.71217 0.88345,0.71087 0.49739,-0.003 0.89835,-0.40827 0.89576,-0.90566 -8e-4,-0.0923 -0.0158,-0.18385 -0.0444,-0.27157 l 6.75954,-7.77325 c 0.0625,0.0139 0.12626,0.0212 0.19029,0.0216 0.26297,-0.002 0.51207,-0.11822 0.68194,-0.31897 l 4.77001,0.69519 c 0.1302,0.35617 0.46946,0.59271 0.84869,0.59168 0.47236,-0.004 0.86164,-0.37171 0.89197,-0.84311 l 7.69241,-3.43179 0.1999,1.36849 1.47239,-2.62617 z"
       sodipodi:nodetypes="cccccccccccccccccccccccccccccccccccccccccccccccc" />
    <path
       id="path2"
       style="fill:#ffffff;fill-opacity:1;stroke:#484848;stroke-width:1.1;stroke-linejoin:round;stroke-miterlimit:10;stroke-dasharray:none;stroke-opacity:1"
       d="M 157.82789,112.20007 134.97932,99.805678 v -24.78876 l 22.84857,-12.39438 22.84857,12.39437 v 24.78877 z" />
    <path
       style="fill:#484848;fill-opacity:1;stroke:none;stroke-width:1.11547"
       d="m 84.51973,202.88432 c -3.902204,0.1868 -7.316243,1.67412 -10.242011,4.46165 -1.296312,1.23427 -2.177606,2.6543 -2.643748,4.26039 a 0.15569775,0.16571276 89.989065 0 0 0.29939,0.12311 c 3.122333,-4.70388 9.713887,-6.81381 15.332294,-5.19956 4.881898,1.40469 8.31393,4.96372 9.833848,9.57382 0.0445,0.13253 0.0013,0.16641 -0.129103,0.10138 l -4.622006,-2.28444 a 0.13191059,0.14039556 89.989065 0 0 -0.206713,0.11041 c -0.100923,1.55987 0.51305,2.87928 1.84201,3.95881 l 0.552081,0.3158 c 0.156533,0.0878 0.192716,0.20821 0.108355,0.3611 -1.838281,3.32193 -4.019666,6.43411 -7.379544,8.52584 -1.074698,0.67061 -2.478528,1.10134 -3.723576,1.61624 -2.94574,1.21587 -4.066284,3.08205 -5.943887,5.43733 -1.744174,2.18441 -3.71538,3.79439 -5.913937,4.82991 -1.785853,0.8408 -3.558964,1.70483 -5.318736,2.59175 -2.266062,1.1408 -4.393533,2.80933 -6.383191,5.00532 -1.382196,1.52552 -3.161486,2.25651 -5.337248,2.1935 l -1.97707,-0.2914 a 0.20327206,0.21634724 89.989065 0 0 -0.232319,0.27714 c 0.567978,1.33775 1.534712,2.1892 2.900365,2.5551 0.851639,0.22692 1.979611,0.17231 2.946212,0.17475 0.07523,0.001 0.11582,0.0353 0.121878,0.10596 0.132199,1.63625 0.30592,3.26896 0.521007,4.89798 0.083,0.62422 -0.07629,1.67727 -0.478174,3.15929 -0.562809,1.50953 -1.614891,2.72872 -3.156749,3.65741 -1.354681,0.89261 -2.88826,1.47913 -4.600564,1.75915 l -0.0641,1.06812 c -0.996819,2.77107 -2.216198,5.52063 -3.658001,8.2485 l -0.359027,0.71771 c -0.381972,0.52768 -0.886702,0.96537 -1.514198,1.31292 a 0.45844335,0.48793205 89.989065 0 0 -0.20262,0.5732 l 1.231748,2.72861 c 0.564085,-0.2458 2.988839,-1.30059 3.712323,-1.61583 -0.287295,-0.82552 -0.281277,-1.66153 0.02514,-2.50834 0.731448,-2.30751 1.649299,-3.83462 3.075777,-6.44281 0.536082,-0.97968 0.989602,-1.49219 2.17716,-1.82545 1.509744,-0.42121 2.964015,-0.87512 4.363264,-1.36123 1.718372,-0.60147 3.316324,-1.40251 4.793729,-2.40333 2.525255,-1.76356 4.341433,-4.03319 5.448733,-6.80854 0.01,-0.0263 0.02836,-0.0345 0.05751,-0.0258 0.03207,0.004 0.04595,0.0224 0.04145,0.0431 -0.412483,1.47055 -0.701322,2.96231 -0.866739,4.47462 a 0.2832834,0.30150519 89.989065 0 0 0.301719,0.3112 c 2.591548,-0.0266 5.169979,0.25833 7.735546,0.85466 1.620814,0.37517 3.321866,0.49786 3.89106,2.18072 2.064766,-0.89862 2.491798,-1.08471 4.651311,-2.02441 -1.375901,-1.29073 -2.753455,-1.78173 -4.853516,-2.19611 -2.387563,-0.47099 -4.764075,-0.98738 -7.130197,-1.54914 -0.09678,-0.0222 -0.115837,-0.0729 -0.05756,-0.14903 1.385208,-1.78932 2.043109,-3.79358 1.973629,-6.0122 -0.0022,-0.0805 0.03969,-0.12669 0.124068,-0.1382 4.980421,-0.73402 9.693612,-2.59933 12.968043,-6.31294 0.04299,-0.0487 0.0962,-0.0634 0.159005,-0.0432 l 6.140888,1.93405 a 0.1472223,0.13630763 2.3342864 0 1 0.09899,0.14062 c -0.02507,0.29559 -0.08205,0.54209 -0.172446,0.73958 -0.743892,1.61482 -1.65186,3.32354 -2.72405,5.12583 -0.460156,0.77426 -1.603935,0.91284 -2.4394,0.91952 -0.06618,-0.002 -0.103499,0.0326 -0.112756,0.093 -0.24209,1.74447 -0.05311,3.44414 0.566939,5.09907 a 0.08001131,0.08515797 89.989065 0 0 0.135663,0.0348 c 0.782392,-0.61144 1.587119,-1.21271 2.414034,-1.8039 0.616721,-0.44128 0.637625,-0.82836 0.833119,-1.49663 0.186281,-0.64229 1.058616,-0.67702 1.304734,-1.33447 0.889474,-2.37601 1.943254,-4.57269 3.161154,-6.58979 0.467067,-0.77212 0.820995,-1.60696 -0.02305,-2.30307 -1.396476,-1.15021 -2.798274,-2.29617 -4.205493,-3.43763 -0.05046,-0.0414 -0.04196,-0.0627 0.02562,-0.0627 l 8.122063,-0.0668 a 0.14970091,0.14262845 3.2335784 0 1 0.1452,0.0956 c 0.6939,1.82501 1.12123,3.8568 1.28281,6.09565 0.0892,1.24125 -0.41134,2.10324 -1.50226,2.5864 a 0.15137283,0.16110963 89.989065 0 0 -0.09,0.16218 l 0.59716,3.1832 c 1.60999,-0.69986 2.09341,-0.90944 3.70508,-1.60987 -0.009,-0.0225 -0.0284,-0.0257 -0.0346,-0.0535 -0.30874,-1.39906 0.18584,-1.79954 0.83463,-2.90681 a 0.33302021,0.35444121 89.989065 0 0 0.0414,-0.20753 c -0.12219,-0.7979 -0.42182,-1.66927 -0.56007,-2.32876 -0.46693,-2.23448 -0.93522,-4.46895 -1.40516,-6.70341 -0.22129,-1.04005 -0.74348,-1.05757 -1.71249,-1.23251 -2.35532,-0.42336 -4.690607,-0.92758 -7.006115,-1.51244 -0.07363,-0.0179 -0.09348,-0.0598 -0.05983,-0.12323 1.455586,-2.7942 2.229089,-5.75377 2.320567,-8.87925 0.04118,-1.35947 0.05325,-2.72256 0.03615,-4.0893 a 0.12109826,0.12888772 89.989065 0 1 0.09673,-0.11713 l 3.187458,-0.78112 a 0.30743595,0.32873278 87.655582 0 1 0.34523,0.11448 c 1.62223,2.0281 1.59325,4.03658 -0.0865,6.02496 a 0.06271159,0.06674542 89.989065 0 0 0.0737,0.0993 c 3.00107,-0.88578 4.3686,-2.84515 4.10256,-5.87834 -0.0103,-0.0909 0.0353,-0.13925 0.13341,-0.14487 1.16223,-0.0631 2.68384,0.43619 2.71574,-1.29378 0.003,-0.0649 -0.0326,-0.0966 -0.10127,-0.095 l -0.45537,2e-5 a 0.08649875,0.09206265 89.989065 0 1 -0.0625,-0.14908 c 0.30603,-0.25953 0.6858,-0.45419 0.82383,-0.81318 0.36117,-0.93425 -0.94391,-1.6588 -1.90149,-2.23813 -1.38797,-0.84093 -3.19473,-1.60805 -3.86021,-3.12593 -0.76442,-1.74427 -1.61881,-3.4476 -2.56277,-5.10967 -2.207173,-3.88475 -5.498613,-6.6807 -9.874964,-8.38821 -0.960596,-0.37464 -1.882452,-0.62545 -2.764715,-0.75209 -0.68592,-0.0993 -1.358564,-0.16451 -2.018397,-0.19481 -0.577383,-0.0262 -1.144896,-0.0266 -1.702357,4.3e-4 z"
       id="path3" />
  </g>
  <g
     inkscape:groupmode="layer"
     id="layer5"
     inkscape:label="bkg 1"
     sodipodi:insensitive="true">
    <path
       id="rect2"
       style="fill:#ffffff;fill-opacity:1;stroke:#484848;stroke-width:1.1;stroke-linecap:square;stroke-linejoin:bevel;stroke-miterlimit:10;stroke-dasharray:none;stroke-opacity:1"
       d="M 9.8650309,178.23046 V 285.50712 H 136.86658 V 178.23046 Z M 89.765063,192.56034 112.6138,204.95441 V 229.7436 L 89.765063,242.13767 66.916846,229.7436 v -24.78919 z" />
  </g>
</svg>
