<?xml version="1.0" encoding="UTF-8" standalone="no"?>
<!-- Created with Inkscape (http://www.inkscape.org/) -->

<svg
   width="118.52679mm"
   height="120.04691mm"
   viewBox="0 0 118.52679 120.04691"
   version="1.1"
   id="svg1"
   inkscape:version="1.3 (0e150ed, 2023-07-21)"
   sodipodi:docname="capretto-dark.svg"
   xmlns:inkscape="http://www.inkscape.org/namespaces/inkscape"
   xmlns:sodipodi="http://sodipodi.sourceforge.net/DTD/sodipodi-0.dtd"
   xmlns="http://www.w3.org/2000/svg"
   xmlns:svg="http://www.w3.org/2000/svg">
  <sodipodi:namedview
     id="namedview1"
     pagecolor="#505050"
     bordercolor="#eeeeee"
     borderopacity="1"
     inkscape:showpageshadow="0"
     inkscape:pageopacity="0"
     inkscape:pagecheckerboard="0"
     inkscape:deskcolor="#505050"
     inkscape:document-units="mm"
     inkscape:zoom="0.87453087"
     inkscape:cx="451.67073"
     inkscape:cy="233.83966"
     inkscape:window-width="2512"
     inkscape:window-height="1056"
     inkscape:window-x="2446"
     inkscape:window-y="25"
     inkscape:window-maximized="0"
     inkscape:current-layer="g6" />
  <defs
     id="defs1">
    <marker
       style="overflow:visible"
       id="Dot"
       refX="0"
       refY="0"
       orient="auto"
       inkscape:stockid="Dot"
       markerWidth="1"
       markerHeight="1"
       viewBox="0 0 1 1"
       inkscape:isstock="true"
       inkscape:collect="always"
       preserveAspectRatio="xMidYMid">
      <path
         transform="scale(0.5)"
         style="fill:context-stroke;fill-rule:evenodd;stroke:none"
         d="M 5,0 C 5,2.76 2.76,5 0,5 -2.76,5 -5,2.76 -5,0 c 0,-2.76 2.3,-5 5,-5 2.76,0 5,2.24 5,5 z"
         sodipodi:nodetypes="sssss"
         id="path17" />
    </marker>
  </defs>
  <g
     inkscape:label="Layer 1"
     inkscape:groupmode="layer"
     id="layer1"
     transform="translate(-29.364361,-77.76272)">
    <g
       id="g6"
       transform="translate(175.34815,249.69032)">
      <path
         id="path4"
         style="fill:#20242a;fill-opacity:1;stroke:#d4d4d4;stroke-width:1.1;stroke-linejoin:round;stroke-miterlimit:10;stroke-dasharray:none;stroke-opacity:1"
         d="m -90.77433,-91.51673 -22.84857,-12.39439 v -24.78875 l 22.84857,-12.39438 22.84857,12.39437 v 24.78876 z" />
      <path
         style="fill:#d4d4d4;fill-opacity:1;stroke:none;stroke-width:0.444029"
         d="m -91.08302,-134.17586 c -1.55335,0.074 -2.91247,0.66585 -4.07733,1.77525 -0.51611,0.49123 -0.86703,1.05642 -1.05271,1.69571 a 0.06596453,0.0619779 0 0 0 0.11917,0.0491 c 1.24325,-1.87224 3.86728,-2.71163 6.10365,-2.06861 1.94321,0.55952 3.30911,1.97652 3.91379,3.81175 0.0177,0.0528 8e-4,0.0662 -0.0514,0.0404 l -1.83969,-0.90973 a 0.05588662,0.05250905 0 0 0 -0.0823,0.0439 c -0.0403,0.62092 0.20401,1.14618 0.73294,1.57601 l 0.21974,0.12575 c 0.0623,0.035 0.0767,0.0829 0.0431,0.14375 -0.73201,1.3222 -1.60058,2.56089 -2.93819,3.39329 -0.42785,0.26685 -0.9867,0.43821 -1.48235,0.64308 -1.17269,0.48377 -1.61888,1.22654 -2.36647,2.16395 -0.69446,0.86941 -1.47925,1.51014 -2.3545,1.92218 -0.71095,0.33456 -1.41683,0.67836 -2.1174,1.03129 -0.90213,0.45393 -1.74913,1.11795 -2.54131,1.99195 -0.55032,0.60715 -1.25865,0.89799 -2.12474,0.87275 l -0.78698,-0.11619 a 0.08612037,0.08091559 0 0 0 -0.0925,0.1103 c 0.22599,0.53255 0.61075,0.87156 1.15434,1.01732 0.33899,0.0904 0.78799,0.0689 1.17277,0.0698 0.0299,0 0.0461,0.0141 0.0485,0.0422 0.0525,0.65134 0.12153,1.30128 0.20703,1.94976 0.033,0.24848 -0.0305,0.66764 -0.19057,1.25757 -0.22415,0.60084 -0.64304,1.08607 -1.25687,1.45564 -0.53932,0.35522 -1.14983,0.58857 -1.83146,0.69991 l -0.0256,0.42518 c -0.39701,1.10298 -0.88261,2.19741 -1.45675,3.28316 l -0.14297,0.28566 c -0.15209,0.21003 -0.35304,0.38422 -0.60285,0.52253 a 0.1942289,0.18249048 0 0 0 -0.0807,0.22815 l 0.49011,1.08626 c 0.22456,-0.0978 1.18985,-0.5175 1.47787,-0.64292 -0.1143,-0.32864 -0.11184,-0.66143 0.0102,-0.99849 0.29134,-0.91848 0.65682,-1.5263 1.22485,-2.56443 0.21347,-0.38994 0.39404,-0.5939 0.86679,-0.72647 0.60101,-0.16757 1.17994,-0.34814 1.73697,-0.54154 0.68407,-0.2393 1.32022,-0.55803 1.9084,-0.9563 1.00535,-0.70183 1.72848,-1.60515 2.16947,-2.70984 0.004,-0.0103 0.0113,-0.0137 0.0229,-0.0103 0.0128,0.003 0.0183,0.009 0.0165,0.0172 -0.16431,0.58535 -0.2794,1.17913 -0.34536,1.78113 a 0.1200188,0.11276534 0 0 0 0.12008,0.1239 c 1.03161,-0.0103 2.05797,0.10322 3.07919,0.3408 0.64516,0.14946 1.32228,0.19842 1.54873,0.86837 0.82198,-0.35756 0.99198,-0.43161 1.85168,-0.8055 -0.5476,-0.51391 -1.09592,-0.70946 -1.93185,-0.87458 -0.95037,-0.18766 -1.89634,-0.39338 -2.83817,-0.6172 -0.0385,-0.009 -0.0461,-0.0289 -0.0229,-0.0593 0.55154,-0.71217 0.81358,-1.50993 0.78609,-2.3931 -7.9e-4,-0.0321 0.0158,-0.0504 0.0494,-0.055 1.98259,-0.29182 3.85889,-1.03397 5.16261,-2.51198 0.0171,-0.0195 0.0383,-0.0252 0.0633,-0.0172 l 2.44433,0.77035 a 0.05860412,0.05425936 2.3452213 0 1 0.0394,0.056 c -0.01,0.11765 -0.0327,0.21577 -0.0687,0.29439 -0.29624,0.64274 -0.6578,1.32286 -1.08474,2.0402 -0.18323,0.30817 -0.63854,0.36326 -0.97111,0.36584 -0.0263,0 -0.0412,0.0129 -0.0449,0.037 -0.0965,0.69438 -0.0214,1.37099 0.22529,2.02979 a 0.03389844,0.03184975 0 0 0 0.054,0.0138 c 0.31149,-0.24332 0.63187,-0.48261 0.96108,-0.71789 0.24553,-0.17561 0.25388,-0.32969 0.33175,-0.59568 0.0742,-0.25566 0.42145,-0.26942 0.51947,-0.53111 0.35425,-0.94574 0.77389,-1.82008 1.25885,-2.62293 0.18598,-0.30731 0.32693,-0.63962 -0.009,-0.91678 -0.5558,-0.45795 -1.11372,-0.91422 -1.6738,-1.36872 -0.0201,-0.0166 -0.0167,-0.0249 0.0102,-0.0249 l 3.23309,-0.0259 a 0.05959077,0.05677546 3.2445133 0 1 0.0578,0.038 c 0.27608,0.72652 0.44604,1.53534 0.51017,2.42656 0.0354,0.49411 -0.16393,0.83719 -0.5982,1.02944 a 0.06413219,0.06025629 0 0 0 -0.0358,0.0645 l 0.23746,1.26717 c 0.64095,-0.27847 0.83339,-0.36186 1.475,-0.64056 -0.004,-0.009 -0.0113,-0.0102 -0.0138,-0.0213 -0.12277,-0.55694 0.0741,-0.71631 0.33247,-1.15704 a 0.14109081,0.13256384 0 0 0 0.0166,-0.0826 c -0.0486,-0.31763 -0.16781,-0.66451 -0.22278,-0.92705 -0.18568,-0.8895 -0.37193,-1.77899 -0.55883,-2.66849 -0.088,-0.41404 -0.29588,-0.42104 -0.68159,-0.49076 -0.93754,-0.16872 -1.8671,-0.36958 -2.78878,-0.60257 -0.0293,-0.007 -0.0372,-0.0238 -0.0238,-0.0491 0.57963,-1.11217 0.88776,-2.29021 0.92441,-3.53435 0.0165,-0.54116 0.0214,-1.08376 0.0147,-1.6278 a 0.05130575,0.04820503 0 0 1 0.0385,-0.0466 l 1.26888,-0.3107 a 0.12237964,0.13085717 87.666516 0 1 0.13742,0.0456 c 0.64559,0.80743 0.63391,1.60695 -0.0349,2.39832 a 0.02656905,0.02496332 0 0 0 0.0293,0.0395 c 1.19469,-0.35236 1.73921,-1.13222 1.63355,-2.33965 -0.004,-0.0361 0.014,-0.0554 0.0531,-0.0577 0.46265,-0.0249 1.06832,0.17384 1.08114,-0.51481 8e-4,-0.0258 -0.013,-0.0384 -0.0404,-0.0378 h -0.18126 a 0.03664696,0.03443217 0 0 1 -0.0249,-0.0593 c 0.12185,-0.1033 0.27303,-0.18075 0.328,-0.32364 0.14384,-0.37187 -0.37561,-0.66038 -0.75674,-0.89107 -0.55244,-0.33485 -1.2716,-0.64035 -1.53638,-1.24463 -0.30417,-0.69438 -0.64414,-1.37249 -1.01977,-2.03416 -0.87831,-1.54657 -2.1883,-2.65978 -3.93025,-3.33982 -0.38235,-0.1492 -0.74929,-0.2491 -1.10048,-0.29959 -0.27302,-0.0397 -0.54078,-0.0656 -0.80344,-0.0777 -0.22983,-0.0105 -0.45574,-0.0106 -0.67765,0 z"
         id="path5" />
      <path
         id="path6"
         style="fill:#cc4c4c;fill-opacity:1;stroke:none;stroke-width:0.3;stroke-linecap:square;stroke-linejoin:bevel;stroke-miterlimit:10;stroke-dasharray:none;stroke-opacity:1;paint-order:normal"
         d="m -65.774244,-118.24682 0.900689,1.09456 -7.721532,3.44511 c -0.14978,-0.10004 -0.32613,-0.1529 -0.50624,-0.15174 -0.26535,0.002 -0.51654,0.11942 -0.68657,0.32314 l -4.76328,-0.69316 c -0.12838,-0.35936 -0.46919,-0.59938 -0.85079,-0.5984 -0.49759,0.003 -0.89886,0.40808 -0.89628,0.90566 0.001,0.0934 0.0164,0.18605 0.0459,0.27468 l -6.75955,7.77118 c -0.0628,-0.0142 -0.12694,-0.0217 -0.19132,-0.0222 -0.2217,0.002 -0.43503,0.0848 -0.5992,0.23377 l -6.160393,-2.05802 c -0.1484,-0.31964 -0.46955,-0.52342 -0.82195,-0.52156 -0.4976,0.003 -0.89863,0.40859 -0.89576,0.90618 7e-4,0.12775 0.0285,0.2539 0.0816,0.37008 l -2.449,4.60085 c -0.0127,-9.3e-4 -0.0255,-0.002 -0.0382,-0.003 -0.30543,0.002 -0.58918,0.15818 -0.75375,0.41549 l -3.6278,-0.66943 c -0.15621,-0.29869 -0.46607,-0.4852 -0.80313,-0.48342 -0.46283,0.004 -0.84758,0.35741 -0.89004,0.8183 -2.12421,1.40457 -4.25427,2.800299 -6.37709,4.20696 l 1.64742,-0.0091 5.11402,-3.37526 c 0.15137,0.10513 0.33131,0.16132 0.51559,0.16099 0.30352,-0.002 0.58572,-0.15653 0.75069,-0.41134 l 3.63658,0.67092 c 0.15679,0.29468 0.46365,0.47852 0.79743,0.47777 0.49778,-0.003 0.89914,-0.40838 0.89626,-0.90617 -0.002,-0.14326 -0.0372,-0.28408 -0.10406,-0.41079 l 2.42855,-4.56301 c 0.0268,0.003 0.0537,0.005 0.0806,0.006 0.28304,-0.002 0.5489,-0.13603 0.71787,-0.3631 l 5.980223,1.99804 c 0.0898,0.4158 0.45809,0.71217 0.88345,0.71087 0.49739,-0.003 0.89835,-0.40827 0.89576,-0.90566 -8e-4,-0.0923 -0.0158,-0.18385 -0.0444,-0.27157 l 6.75954,-7.77325 c 0.0625,0.0139 0.12626,0.0212 0.19029,0.0216 0.26297,-0.002 0.51207,-0.11822 0.68194,-0.31897 l 4.77001,0.69519 c 0.1302,0.35617 0.46946,0.59271 0.84869,0.59168 0.47236,-0.004 0.86164,-0.37171 0.89197,-0.84311 l 7.692405,-3.43179 0.199901,1.36849 1.472394,-2.62617 z"
         sodipodi:nodetypes="cccccccccccccccccccccccccccccccccccccccccccccccc" />
      <path
         style="fill:#d4d4d4;fill-opacity:1;stroke:none;stroke-width:0.297356"
         d="m -119.6737,-171.92241 c -1.04025,0.0496 -1.95042,0.44591 -2.7305,1.18885 -0.34563,0.32896 -0.58063,0.70746 -0.70497,1.13558 a 0.04417496,0.0415052 0 0 0 0.0798,0.0329 c 0.83258,-1.2538 2.58983,-1.81592 4.08748,-1.3853 1.30132,0.37469 2.21603,1.32363 2.62097,2.55264 0.0119,0.0354 5.4e-4,0.0443 -0.0344,0.0271 l -1.232,-0.60922 a 0.03742601,0.03516413 0 0 0 -0.0551,0.0294 c -0.027,0.41581 0.13662,0.76757 0.49083,1.05542 l 0.14716,0.0842 c 0.0417,0.0234 0.0514,0.0555 0.0289,0.0963 -0.49021,0.88545 -1.07187,1.71497 -1.96764,2.27241 -0.28652,0.17871 -0.66077,0.29346 -0.99269,0.43066 -0.78533,0.32397 -1.08413,0.82139 -1.58478,1.44915 -0.46506,0.58222 -0.99062,1.0113 -1.57675,1.28724 -0.47611,0.22405 -0.94882,0.45428 -1.41798,0.69063 -0.60413,0.30399 -1.17135,0.74867 -1.70185,1.33396 -0.36854,0.4066 -0.84289,0.60137 -1.4229,0.58447 l -0.52702,-0.0778 a 0.05767287,0.05418735 0 0 0 -0.0619,0.0739 c 0.15134,0.35664 0.409,0.58366 0.77303,0.68128 0.22702,0.0605 0.5277,0.0461 0.78538,0.0467 0.02,0 0.0309,0.009 0.0325,0.0283 0.0352,0.43619 0.0814,0.87144 0.13864,1.30571 0.0221,0.1664 -0.0204,0.4471 -0.12762,0.84217 -0.15011,0.40237 -0.43063,0.72731 -0.8417,0.97481 -0.36117,0.23788 -0.77001,0.39415 -1.22648,0.46871 l -0.0171,0.28473 c -0.26587,0.73865 -0.59106,1.47156 -0.97555,2.19866 l -0.0957,0.1913 c -0.10185,0.14066 -0.23643,0.25731 -0.40372,0.34993 a 0.13007072,0.12220976 0 0 0 -0.054,0.15279 l 0.32821,0.72744 c 0.15039,-0.0655 0.79682,-0.34656 0.9897,-0.43055 -0.0765,-0.22008 -0.0749,-0.44294 0.007,-0.66867 0.19511,-0.61508 0.43986,-1.02212 0.82026,-1.71734 0.14295,-0.26113 0.26388,-0.39772 0.58047,-0.4865 0.40248,-0.11221 0.79017,-0.23314 1.16321,-0.36265 0.4581,-0.16026 0.88412,-0.3737 1.27801,-0.64042 0.67326,-0.47 1.15752,-1.07493 1.45284,-1.81472 0.003,-0.007 0.008,-0.009 0.0153,-0.007 0.009,0.002 0.0122,0.006 0.0111,0.0115 -0.11004,0.39199 -0.18711,0.78963 -0.23128,1.19278 a 0.08037389,0.07551641 0 0 0 0.0804,0.083 c 0.69085,-0.007 1.37818,0.0691 2.06207,0.22823 0.43205,0.10009 0.8855,0.13287 1.03715,0.58153 0.55046,-0.23945 0.6643,-0.28904 1.24003,-0.53943 -0.36672,-0.34415 -0.73392,-0.47511 -1.29372,-0.58569 -0.63644,-0.12567 -1.26994,-0.26343 -1.90066,-0.41332 -0.0258,-0.006 -0.0309,-0.0194 -0.0153,-0.0397 0.36936,-0.47693 0.54484,-1.01117 0.52643,-1.60261 -5.3e-4,-0.0215 0.0106,-0.0338 0.0331,-0.0368 1.3277,-0.19543 2.58422,-0.69243 3.45729,-1.68222 0.0114,-0.0131 0.0256,-0.0169 0.0424,-0.0115 l 1.63691,0.51589 a 0.03924586,0.03633627 2.3452213 0 1 0.0264,0.0375 c -0.007,0.0788 -0.0219,0.1445 -0.046,0.19715 -0.19839,0.43043 -0.44051,0.88589 -0.72643,1.36627 -0.1227,0.20638 -0.42761,0.24327 -0.65033,0.245 -0.0176,0 -0.0276,0.009 -0.0301,0.0248 -0.0646,0.46501 -0.0143,0.91812 0.15088,1.3593 a 0.02270102,0.02132906 0 0 0 0.0362,0.009 c 0.2086,-0.16294 0.42315,-0.32319 0.64361,-0.48075 0.16443,-0.1176 0.17002,-0.22079 0.22217,-0.39891 0.0497,-0.17121 0.28223,-0.18043 0.34787,-0.35568 0.23724,-0.63334 0.51826,-1.21886 0.84303,-1.75651 0.12454,-0.2058 0.21894,-0.42834 -0.006,-0.61395 -0.37221,-0.30668 -0.74583,-0.61223 -1.12091,-0.9166 -0.0135,-0.0111 -0.0112,-0.0167 0.007,-0.0167 l 2.16512,-0.0173 a 0.0399066,0.03802125 3.2445133 0 1 0.0387,0.0255 c 0.18489,0.48653 0.2987,1.02818 0.34165,1.62501 0.0237,0.33089 -0.10978,0.56065 -0.4006,0.68939 a 0.04294788,0.04035228 0 0 0 -0.024,0.0432 l 0.15903,0.84859 c 0.42923,-0.18648 0.5581,-0.24233 0.98777,-0.42897 -0.003,-0.006 -0.008,-0.007 -0.009,-0.0143 -0.0822,-0.37297 0.0496,-0.4797 0.22265,-0.77485 a 0.09448534,0.08877502 0 0 0 0.0111,-0.0553 c -0.0325,-0.21271 -0.11238,-0.44501 -0.14919,-0.62083 -0.12434,-0.59567 -0.24907,-1.19134 -0.37423,-1.78702 -0.0589,-0.27728 -0.19815,-0.28196 -0.45645,-0.32865 -0.62785,-0.11299 -1.25035,-0.2475 -1.86758,-0.40353 -0.0196,-0.005 -0.0249,-0.0159 -0.0159,-0.0329 0.38816,-0.7448 0.59451,-1.5337 0.61906,-2.36688 0.011,-0.3624 0.0143,-0.72577 0.01,-1.0901 a 0.0343583,0.03228182 0 0 1 0.0258,-0.0312 l 0.84974,-0.20806 a 0.08195489,0.0876321 87.666516 0 1 0.092,0.0305 c 0.43234,0.54072 0.42452,1.07614 -0.0234,1.6061 a 0.01779269,0.01671737 0 0 0 0.0196,0.0265 c 0.80006,-0.23597 1.16471,-0.75823 1.09395,-1.56681 -0.003,-0.0242 0.009,-0.0371 0.0356,-0.0386 0.30983,-0.0167 0.71543,0.11641 0.72402,-0.34476 5.3e-4,-0.0173 -0.009,-0.0257 -0.0271,-0.0253 h -0.12138 a 0.02454164,0.02305845 0 0 1 -0.0167,-0.0397 c 0.0816,-0.0692 0.18284,-0.12104 0.21966,-0.21673 0.0963,-0.24903 -0.25154,-0.44224 -0.50678,-0.59673 -0.36995,-0.22424 -0.85156,-0.42883 -1.02888,-0.8335 -0.20369,-0.46501 -0.43136,-0.91913 -0.68291,-1.36223 -0.58819,-1.03571 -1.46546,-1.7812 -2.632,-2.2366 -0.25605,-0.0999 -0.50179,-0.16682 -0.73697,-0.20063 -0.18283,-0.0266 -0.36215,-0.0439 -0.53804,-0.052 -0.15392,-0.007 -0.3052,-0.007 -0.45381,0 z"
         id="path1" />
      <path
         style="fill:none;fill-opacity:1;stroke:#d4d4d4;stroke-width:0.4;stroke-linecap:square;stroke-linejoin:bevel;stroke-miterlimit:10;stroke-dasharray:none;stroke-opacity:1;marker-start:url(#Dot);marker-end:url(#Dot)"
         d="m -126.01061,-75.047815 17.95969,-20.849756"
         id="path9" />
      <path
         style="fill:none;fill-opacity:1;stroke:#d4d4d4;stroke-width:0.4;stroke-linecap:square;stroke-linejoin:bevel;stroke-miterlimit:10;stroke-dasharray:none;stroke-opacity:1;marker-start:url(#Dot);marker-end:url(#Dot)"
         d="m -84.517528,-70.299851 -2.890069,-18.578991"
         id="path10"
         sodipodi:nodetypes="cc" />
      <path
         style="fill:none;fill-opacity:1;stroke:#d4d4d4;stroke-width:0.4;stroke-linecap:square;stroke-linejoin:bevel;stroke-miterlimit:10;stroke-dasharray:none;stroke-opacity:1;marker-start:url(#Dot);marker-end:url(#Dot)"
         d="M -48.875647,-88.935695 -66.351408,-99.819803"
         id="path11"
         sodipodi:nodetypes="cc" />
      <path
         style="fill:none;fill-opacity:1;stroke:#d4d4d4;stroke-width:0.4;stroke-linecap:square;stroke-linejoin:bevel;stroke-miterlimit:10;stroke-dasharray:none;stroke-opacity:1;marker-start:url(#Dot);marker-end:url(#Dot)"
         d="m -48.18528,-136.56492 -15.482496,7.22517"
         id="path12"
         sodipodi:nodetypes="cc" />
      <path
         style="fill:none;fill-opacity:1;stroke:#d4d4d4;stroke-width:0.4;stroke-linecap:square;stroke-linejoin:bevel;stroke-miterlimit:10;stroke-dasharray:none;stroke-opacity:1;marker-start:url(#Dot);marker-end:url(#Dot)"
         d="m -105.78015,-138.21639 -8.6702,-12.38599"
         id="path13"
         sodipodi:nodetypes="cc" />
      <path
         style="fill:#d4d4d4;fill-opacity:1;stroke:none;stroke-width:0.297356"
         d="m -34.053986,-154.07236 c -1.04025,0.0496 -1.95042,0.44591 -2.7305,1.18885 -0.34563,0.32896 -0.58063,0.70746 -0.70497,1.13558 a 0.04417496,0.0415052 0 0 0 0.0798,0.0329 c 0.83258,-1.2538 2.58983,-1.81592 4.08748,-1.3853 1.30132,0.37469 2.21603,1.32363 2.62097,2.55264 0.0119,0.0354 5.4e-4,0.0443 -0.0344,0.0271 l -1.232,-0.60922 a 0.03742601,0.03516413 0 0 0 -0.0551,0.0294 c -0.027,0.41581 0.13662,0.76757 0.49083,1.05542 l 0.14716,0.0842 c 0.0417,0.0234 0.0514,0.0555 0.0289,0.0963 -0.49021,0.88545 -1.07187,1.71497 -1.96764,2.27241 -0.28652,0.17871 -0.66077,0.29346 -0.99269,0.43066 -0.78533,0.32397 -1.08413,0.82139 -1.58478,1.44915 -0.46506,0.58222 -0.99062,1.0113 -1.57675,1.28724 -0.47611,0.22405 -0.94882,0.45428 -1.41798,0.69063 -0.60413,0.30399 -1.17135,0.74867 -1.70185,1.33396 -0.36854,0.4066 -0.84289,0.60137 -1.4229,0.58447 l -0.52702,-0.0778 a 0.05767287,0.05418735 0 0 0 -0.0619,0.0739 c 0.15134,0.35664 0.409,0.58366 0.77303,0.68128 0.22702,0.0605 0.5277,0.0461 0.78538,0.0467 0.02,0 0.0309,0.009 0.0325,0.0283 0.0352,0.43619 0.0814,0.87144 0.13864,1.30571 0.0221,0.1664 -0.0204,0.4471 -0.12762,0.84217 -0.15011,0.40237 -0.43063,0.72731 -0.8417,0.97481 -0.36117,0.23788 -0.77001,0.39415 -1.22648,0.46871 l -0.0171,0.28473 c -0.26587,0.73865 -0.59106,1.47156 -0.97555,2.19866 l -0.0957,0.1913 c -0.10185,0.14066 -0.23643,0.25731 -0.40372,0.34993 a 0.13007072,0.12220976 0 0 0 -0.054,0.15279 l 0.32821,0.72744 c 0.15039,-0.0655 0.79682,-0.34656 0.9897,-0.43055 -0.0765,-0.22008 -0.0749,-0.44294 0.007,-0.66867 0.19511,-0.61508 0.43986,-1.02212 0.82026,-1.71734 0.14295,-0.26113 0.26388,-0.39772 0.58047,-0.4865 0.40248,-0.11221 0.79017,-0.23314 1.16321,-0.36265 0.4581,-0.16026 0.88412,-0.3737 1.27801,-0.64042 0.67326,-0.47 1.15752,-1.07493 1.45284,-1.81472 0.003,-0.007 0.008,-0.009 0.0153,-0.007 0.009,0.002 0.0122,0.006 0.0111,0.0115 -0.11004,0.39199 -0.18711,0.78963 -0.23128,1.19278 a 0.08037389,0.07551641 0 0 0 0.0804,0.083 c 0.69085,-0.007 1.37818,0.0691 2.06207,0.22823 0.43205,0.10009 0.8855,0.13287 1.03715,0.58153 0.55046,-0.23945 0.6643,-0.28904 1.24003,-0.53943 -0.36672,-0.34415 -0.73392,-0.47511 -1.29372,-0.58569 -0.63644,-0.12567 -1.26994,-0.26343 -1.90066,-0.41332 -0.0258,-0.006 -0.0309,-0.0194 -0.0153,-0.0397 0.36936,-0.47693 0.54484,-1.01117 0.52643,-1.60261 -5.3e-4,-0.0215 0.0106,-0.0338 0.0331,-0.0368 1.3277,-0.19543 2.58422,-0.69243 3.45729,-1.68222 0.0114,-0.0131 0.0256,-0.0169 0.0424,-0.0115 l 1.63691,0.51589 a 0.03924586,0.03633627 2.3452213 0 1 0.0264,0.0375 c -0.007,0.0788 -0.0219,0.1445 -0.046,0.19715 -0.19839,0.43043 -0.44051,0.88589 -0.72643,1.36627 -0.1227,0.20638 -0.42761,0.24327 -0.65033,0.245 -0.0176,0 -0.0276,0.009 -0.0301,0.0248 -0.0646,0.46501 -0.0143,0.91812 0.15088,1.3593 a 0.02270102,0.02132906 0 0 0 0.0362,0.009 c 0.2086,-0.16294 0.42315,-0.32319 0.64361,-0.48075 0.16443,-0.1176 0.17002,-0.22079 0.22217,-0.39891 0.0497,-0.17121 0.28223,-0.18043 0.34787,-0.35568 0.23724,-0.63334 0.51826,-1.21886 0.84303,-1.75651 0.12454,-0.2058 0.21894,-0.42834 -0.006,-0.61395 -0.37221,-0.30668 -0.74583,-0.61223 -1.12091,-0.9166 -0.0135,-0.0111 -0.0112,-0.0167 0.007,-0.0167 l 2.16512,-0.0173 a 0.0399066,0.03802125 3.2445133 0 1 0.0387,0.0255 c 0.18489,0.48653 0.2987,1.02818 0.34165,1.62501 0.0237,0.33089 -0.10978,0.56065 -0.4006,0.68939 a 0.04294788,0.04035228 0 0 0 -0.024,0.0432 l 0.15903,0.84859 c 0.42923,-0.18648 0.5581,-0.24233 0.98777,-0.42897 -0.003,-0.006 -0.008,-0.007 -0.009,-0.0143 -0.0822,-0.37297 0.0496,-0.4797 0.22265,-0.77485 a 0.09448534,0.08877502 0 0 0 0.0111,-0.0553 c -0.0325,-0.21271 -0.11238,-0.44501 -0.14919,-0.62083 -0.12434,-0.59567 -0.24907,-1.19134 -0.37423,-1.78702 -0.0589,-0.27728 -0.19815,-0.28196 -0.45645,-0.32865 -0.62785,-0.11299 -1.25035,-0.2475 -1.86758,-0.40353 -0.0196,-0.005 -0.0249,-0.0159 -0.0159,-0.0329 0.38816,-0.7448 0.59451,-1.5337 0.61906,-2.36688 0.011,-0.3624 0.0143,-0.72577 0.01,-1.0901 a 0.0343583,0.03228182 0 0 1 0.0258,-0.0312 l 0.84974,-0.20806 a 0.08195489,0.0876321 87.666516 0 1 0.092,0.0305 c 0.43234,0.54072 0.42452,1.07614 -0.0234,1.6061 a 0.01779269,0.01671737 0 0 0 0.0196,0.0265 c 0.80006,-0.23597 1.16471,-0.75823 1.09395,-1.56681 -0.003,-0.0242 0.009,-0.0371 0.0356,-0.0386 0.30983,-0.0167 0.71543,0.11641 0.72402,-0.34476 5.3e-4,-0.0173 -0.009,-0.0257 -0.0271,-0.0253 h -0.12138 a 0.02454164,0.02305845 0 0 1 -0.0167,-0.0397 c 0.0816,-0.0692 0.18284,-0.12104 0.21966,-0.21673 0.0963,-0.24903 -0.25154,-0.44224 -0.50678,-0.59673 -0.36995,-0.22424 -0.85156,-0.42883 -1.02888,-0.8335 -0.20369,-0.46501 -0.43136,-0.91913 -0.68291,-1.36223 -0.58819,-1.03571 -1.46546,-1.7812 -2.632,-2.2366 -0.25605,-0.0999 -0.50179,-0.16682 -0.73697,-0.20063 -0.18283,-0.0266 -0.36215,-0.0439 -0.53804,-0.052 -0.15392,-0.007 -0.3052,-0.007 -0.45381,0 z"
         id="path14" />
      <path
         style="fill:#d4d4d4;fill-opacity:1;stroke:none;stroke-width:0.297356"
         d="m -41.920108,-93.563728 c -1.04025,0.0496 -1.95042,0.44591 -2.7305,1.18885 -0.34563,0.32896 -0.58063,0.70746 -0.70497,1.13558 a 0.04417496,0.0415052 0 0 0 0.0798,0.0329 c 0.83258,-1.2538 2.58983,-1.81592 4.08748,-1.3853 1.30132,0.37469 2.21603,1.32363 2.62097,2.55264 0.0119,0.0354 5.4e-4,0.0443 -0.0344,0.0271 l -1.232,-0.60922 a 0.03742601,0.03516413 0 0 0 -0.0551,0.0294 c -0.027,0.41581 0.13662,0.76757 0.49083,1.05542 l 0.14716,0.0842 c 0.0417,0.0234 0.0514,0.0555 0.0289,0.0963 -0.49021,0.88545 -1.07187,1.71497 -1.96764,2.27241 -0.28652,0.17871 -0.66077,0.29346 -0.99269,0.43066 -0.78533,0.32397 -1.08413,0.82139 -1.58478,1.44915 -0.46506,0.58222 -0.99062,1.0113 -1.57675,1.28724 -0.47611,0.22405 -0.94882,0.45428 -1.41798,0.69063 -0.60413,0.30399 -1.17135,0.74867 -1.70185,1.33396 -0.36854,0.4066 -0.84289,0.60137 -1.4229,0.58447 l -0.52702,-0.0778 a 0.05767287,0.05418735 0 0 0 -0.0619,0.0739 c 0.15134,0.35664 0.409,0.58366 0.77303,0.68128 0.22702,0.0605 0.5277,0.0461 0.78538,0.0467 0.02,0 0.0309,0.009 0.0325,0.0283 0.0352,0.43619 0.0814,0.87144 0.13864,1.30571 0.0221,0.1664 -0.0204,0.4471 -0.12762,0.84217 -0.15011,0.40237 -0.43063,0.72731 -0.8417,0.97481 -0.36117,0.23788 -0.77001,0.39415 -1.22648,0.46871 l -0.0171,0.28473 c -0.26587,0.73865 -0.59106,1.47156 -0.97555,2.19866 l -0.0957,0.1913 c -0.10185,0.14066 -0.23643,0.25731 -0.40372,0.34993 a 0.13007072,0.12220976 0 0 0 -0.054,0.15279 l 0.32821,0.72744 c 0.15039,-0.0655 0.79682,-0.34656 0.9897,-0.43055 -0.0765,-0.22008 -0.0749,-0.44294 0.007,-0.66867 0.19511,-0.61508 0.43986,-1.02212 0.82026,-1.71734 0.14295,-0.26113 0.26388,-0.39772 0.58047,-0.4865 0.40248,-0.11221 0.79017,-0.23314 1.16321,-0.36265 0.4581,-0.16026 0.88412,-0.3737 1.27801,-0.64042 0.67326,-0.47 1.15752,-1.07493 1.45284,-1.81472 0.003,-0.007 0.008,-0.009 0.0153,-0.007 0.009,0.002 0.0122,0.006 0.0111,0.0115 -0.11004,0.39199 -0.18711,0.78963 -0.23128,1.19278 a 0.08037389,0.07551641 0 0 0 0.0804,0.083 c 0.69085,-0.007 1.37818,0.0691 2.06207,0.22823 0.43205,0.10009 0.8855,0.13287 1.03715,0.58153 0.55046,-0.23945 0.6643,-0.28904 1.24003,-0.53943 -0.36672,-0.34415 -0.73392,-0.47511 -1.29372,-0.58569 -0.63644,-0.12567 -1.26994,-0.26343 -1.90066,-0.41332 -0.0258,-0.006 -0.0309,-0.0194 -0.0153,-0.0397 0.36936,-0.47693 0.54484,-1.01117 0.52643,-1.60261 -5.3e-4,-0.0215 0.0106,-0.0338 0.0331,-0.0368 1.3277,-0.19543 2.58422,-0.69243 3.45729,-1.68222 0.0114,-0.0131 0.0256,-0.0169 0.0424,-0.0115 l 1.63691,0.51589 a 0.03924586,0.03633627 2.3452213 0 1 0.0264,0.0375 c -0.007,0.0788 -0.0219,0.1445 -0.046,0.19715 -0.19839,0.43043 -0.44051,0.88589 -0.72643,1.36627 -0.1227,0.20638 -0.42761,0.24327 -0.65033,0.245 -0.0176,0 -0.0276,0.009 -0.0301,0.0248 -0.0646,0.46501 -0.0143,0.91812 0.15088,1.3593 a 0.02270102,0.02132906 0 0 0 0.0362,0.009 c 0.2086,-0.16294 0.42315,-0.32319 0.64361,-0.48075 0.16443,-0.1176 0.17002,-0.22079 0.22217,-0.39891 0.0497,-0.17121 0.28223,-0.18043 0.34787,-0.35568 0.23724,-0.63334 0.51826,-1.21886 0.84303,-1.75651 0.12454,-0.2058 0.21894,-0.42834 -0.006,-0.61395 -0.37221,-0.30668 -0.74583,-0.61223 -1.12091,-0.9166 -0.0135,-0.0111 -0.0112,-0.0167 0.007,-0.0167 l 2.16512,-0.0173 a 0.0399066,0.03802125 3.2445133 0 1 0.0387,0.0255 c 0.18489,0.48653 0.2987,1.02818 0.34165,1.62501 0.0237,0.33089 -0.10978,0.56065 -0.4006,0.68939 a 0.04294788,0.04035228 0 0 0 -0.024,0.0432 l 0.15903,0.84859 c 0.42923,-0.18648 0.5581,-0.24233 0.98777,-0.42897 -0.003,-0.006 -0.008,-0.007 -0.009,-0.0143 -0.0822,-0.37297 0.0496,-0.4797 0.22265,-0.77485 a 0.09448534,0.08877502 0 0 0 0.0111,-0.0553 c -0.0325,-0.21271 -0.11238,-0.44501 -0.14919,-0.62083 -0.12434,-0.59567 -0.24907,-1.19134 -0.37423,-1.78702 -0.0589,-0.27728 -0.19815,-0.28196 -0.45645,-0.32865 -0.62785,-0.11299 -1.25035,-0.2475 -1.86758,-0.40353 -0.0196,-0.005 -0.0249,-0.0159 -0.0159,-0.0329 0.38816,-0.7448 0.59451,-1.5337 0.61906,-2.36688 0.011,-0.3624 0.0143,-0.72577 0.01,-1.0901 a 0.0343583,0.03228182 0 0 1 0.0258,-0.0312 l 0.84974,-0.20806 a 0.08195489,0.0876321 87.666516 0 1 0.092,0.0305 c 0.43234,0.54072 0.42452,1.07614 -0.0234,1.6061 a 0.01779269,0.01671737 0 0 0 0.0196,0.0265 c 0.80006,-0.23597 1.16471,-0.75823 1.09395,-1.56681 -0.003,-0.0242 0.009,-0.0371 0.0356,-0.0386 0.30983,-0.0167 0.71543,0.11641 0.72402,-0.34476 5.3e-4,-0.0173 -0.009,-0.0257 -0.0271,-0.0253 h -0.12138 a 0.02454164,0.02305845 0 0 1 -0.0167,-0.0397 c 0.0816,-0.0692 0.18284,-0.12104 0.21966,-0.21673 0.0963,-0.24903 -0.25154,-0.44224 -0.50678,-0.59673 -0.36995,-0.22424 -0.85156,-0.42883 -1.02888,-0.8335 -0.20369,-0.46501 -0.43136,-0.91913 -0.68291,-1.36223 -0.58819,-1.03571 -1.46546,-1.7812 -2.632,-2.2366 -0.25605,-0.0999 -0.50179,-0.16682 -0.73697,-0.20063 -0.18283,-0.0266 -0.36215,-0.0439 -0.53804,-0.052 -0.15392,-0.007 -0.3052,-0.007 -0.45381,0 z"
         id="path15" />
      <path
         style="fill:#d4d4d4;fill-opacity:1;stroke:none;stroke-width:0.297356"
         d="m -78.225287,-72.385707 c -1.04025,0.0496 -1.95042,0.44591 -2.7305,1.18885 -0.34563,0.32896 -0.58063,0.70746 -0.70497,1.13558 a 0.04417496,0.0415052 0 0 0 0.0798,0.0329 c 0.83258,-1.2538 2.58983,-1.81592 4.08748,-1.3853 1.30132,0.37469 2.21603,1.32363 2.62097,2.55264 0.0119,0.0354 5.4e-4,0.0443 -0.0344,0.0271 l -1.232,-0.60922 a 0.03742601,0.03516413 0 0 0 -0.0551,0.0294 c -0.027,0.41581 0.13662,0.76757 0.49083,1.05542 l 0.14716,0.0842 c 0.0417,0.0234 0.0514,0.0555 0.0289,0.0963 -0.49021,0.88545 -1.07187,1.71497 -1.96764,2.27241 -0.28652,0.17871 -0.66077,0.29346 -0.99269,0.43066 -0.78533,0.32397 -1.08413,0.82139 -1.58478,1.44915 -0.46506,0.58222 -0.99062,1.0113 -1.57675,1.28724 -0.47611,0.22405 -0.94882,0.45428 -1.41798,0.69063 -0.60413,0.30399 -1.17135,0.74867 -1.70185,1.33396 -0.36854,0.4066 -0.84289,0.60137 -1.4229,0.58447 l -0.52702,-0.0778 a 0.05767287,0.05418735 0 0 0 -0.0619,0.0739 c 0.15134,0.35664 0.409,0.58366 0.77303,0.68128 0.22702,0.0605 0.5277,0.0461 0.78538,0.0467 0.02,0 0.0309,0.009 0.0325,0.0283 0.0352,0.43619 0.0814,0.87144 0.13864,1.30571 0.0221,0.1664 -0.0204,0.4471 -0.12762,0.84217 -0.15011,0.40237 -0.43063,0.72731 -0.8417,0.97481 -0.36117,0.23788 -0.77001,0.39415 -1.22648,0.46871 l -0.0171,0.28473 c -0.26587,0.73865 -0.59106,1.47156 -0.97555,2.19866 l -0.0957,0.1913 c -0.10185,0.14066 -0.23643,0.25731 -0.40372,0.34993 a 0.13007072,0.12220976 0 0 0 -0.054,0.15279 l 0.32821,0.72744 c 0.15039,-0.0655 0.79682,-0.34656 0.9897,-0.43055 -0.0765,-0.22008 -0.0749,-0.44294 0.007,-0.66867 0.19511,-0.61508 0.43986,-1.02212 0.82026,-1.71734 0.14295,-0.26113 0.26388,-0.39772 0.58047,-0.4865 0.40248,-0.11221 0.79017,-0.23314 1.16321,-0.36265 0.4581,-0.16026 0.88412,-0.3737 1.27801,-0.64042 0.67326,-0.47 1.15752,-1.07493 1.45284,-1.81472 0.003,-0.007 0.008,-0.009 0.0153,-0.007 0.009,0.002 0.0122,0.006 0.0111,0.0115 -0.11004,0.39199 -0.18711,0.78963 -0.23128,1.19278 a 0.08037389,0.07551641 0 0 0 0.0804,0.083 c 0.69085,-0.007 1.37818,0.0691 2.06207,0.22823 0.43205,0.10009 0.8855,0.13287 1.03715,0.58153 0.55046,-0.23945 0.6643,-0.28904 1.24003,-0.53943 -0.36672,-0.34415 -0.73392,-0.47511 -1.29372,-0.58569 -0.63644,-0.12567 -1.26994,-0.26343 -1.90066,-0.41332 -0.0258,-0.006 -0.0309,-0.0194 -0.0153,-0.0397 0.36936,-0.47693 0.54484,-1.01117 0.52643,-1.60261 -5.3e-4,-0.0215 0.0106,-0.0338 0.0331,-0.0368 1.3277,-0.19543 2.58422,-0.69243 3.45729,-1.68222 0.0114,-0.0131 0.0256,-0.0169 0.0424,-0.0115 l 1.63691,0.51589 a 0.03924586,0.03633627 2.3452213 0 1 0.0264,0.0375 c -0.007,0.0788 -0.0219,0.1445 -0.046,0.19715 -0.19839,0.43043 -0.44051,0.88589 -0.72643,1.36627 -0.1227,0.20638 -0.42761,0.24327 -0.65033,0.245 -0.0176,0 -0.0276,0.009 -0.0301,0.0248 -0.0646,0.46501 -0.0143,0.91812 0.15088,1.3593 a 0.02270102,0.02132906 0 0 0 0.0362,0.009 c 0.2086,-0.16294 0.42315,-0.32319 0.64361,-0.48075 0.16443,-0.1176 0.17002,-0.22079 0.22217,-0.39891 0.0497,-0.17121 0.28223,-0.18043 0.34787,-0.35568 0.23724,-0.63334 0.51826,-1.21886 0.84303,-1.75651 0.12454,-0.2058 0.21894,-0.42834 -0.006,-0.61395 -0.37221,-0.30668 -0.74583,-0.61223 -1.12091,-0.9166 -0.0135,-0.0111 -0.0112,-0.0167 0.007,-0.0167 l 2.16512,-0.0173 a 0.0399066,0.03802125 3.2445133 0 1 0.0387,0.0255 c 0.18489,0.48653 0.2987,1.02818 0.34165,1.62501 0.0237,0.33089 -0.10978,0.56065 -0.4006,0.68939 a 0.04294788,0.04035228 0 0 0 -0.024,0.0432 l 0.15903,0.84859 c 0.42923,-0.18648 0.5581,-0.24233 0.98777,-0.42897 -0.003,-0.006 -0.008,-0.007 -0.009,-0.0143 -0.0822,-0.37297 0.0496,-0.4797 0.22265,-0.77485 a 0.09448534,0.08877502 0 0 0 0.0111,-0.0553 c -0.0325,-0.21271 -0.11238,-0.44501 -0.14919,-0.62083 -0.12434,-0.59567 -0.24907,-1.19134 -0.37423,-1.78702 -0.0589,-0.27728 -0.19815,-0.28196 -0.45645,-0.32865 -0.62785,-0.11299 -1.25035,-0.2475 -1.86758,-0.40353 -0.0196,-0.005 -0.0249,-0.0159 -0.0159,-0.0329 0.38816,-0.7448 0.59451,-1.5337 0.61906,-2.36688 0.011,-0.3624 0.0143,-0.72577 0.01,-1.0901 a 0.0343583,0.03228182 0 0 1 0.0258,-0.0312 l 0.84974,-0.20806 a 0.08195489,0.0876321 87.666516 0 1 0.092,0.0305 c 0.43234,0.54072 0.42452,1.07614 -0.0234,1.6061 a 0.01779269,0.01671737 0 0 0 0.0196,0.0265 c 0.80006,-0.23597 1.16471,-0.75823 1.09395,-1.56681 -0.003,-0.0242 0.009,-0.0371 0.0356,-0.0386 0.30983,-0.0167 0.71543,0.11641 0.72402,-0.34476 5.3e-4,-0.0173 -0.009,-0.0257 -0.0271,-0.0253 h -0.12138 a 0.02454164,0.02305845 0 0 1 -0.0167,-0.0397 c 0.0816,-0.0692 0.18284,-0.12104 0.21966,-0.21673 0.0963,-0.24903 -0.25154,-0.44224 -0.50678,-0.59673 -0.36995,-0.22424 -0.85156,-0.42883 -1.02888,-0.8335 -0.20369,-0.46501 -0.43136,-0.91913 -0.68291,-1.36223 -0.58819,-1.03571 -1.46546,-1.7812 -2.632,-2.2366 -0.25605,-0.0999 -0.50179,-0.16682 -0.73697,-0.20063 -0.18283,-0.0266 -0.36215,-0.0439 -0.53804,-0.052 -0.15392,-0.007 -0.3052,-0.007 -0.45381,0 z"
         id="path16" />
      <path
         style="fill:#d4d4d4;fill-opacity:1;stroke:none;stroke-width:0.297356"
         d="m -135.40594,-83.882347 c -1.04025,0.0496 -1.95042,0.44591 -2.7305,1.18885 -0.34563,0.32896 -0.58063,0.70746 -0.70497,1.13558 a 0.04417496,0.0415052 0 0 0 0.0798,0.0329 c 0.83258,-1.2538 2.58983,-1.81592 4.08748,-1.3853 1.30132,0.37469 2.21603,1.32363 2.62097,2.55264 0.0119,0.0354 5.4e-4,0.0443 -0.0344,0.0271 l -1.232,-0.60922 a 0.03742601,0.03516413 0 0 0 -0.0551,0.0294 c -0.027,0.41581 0.13662,0.76757 0.49083,1.05542 l 0.14716,0.0842 c 0.0417,0.0234 0.0514,0.0555 0.0289,0.0963 -0.49021,0.88545 -1.07187,1.71497 -1.96764,2.27241 -0.28652,0.17871 -0.66077,0.29346 -0.99269,0.43066 -0.78533,0.32397 -1.08413,0.82139 -1.58478,1.44915 -0.46506,0.58222 -0.99062,1.0113 -1.57675,1.28724 -0.47611,0.22405 -0.94882,0.45428 -1.41798,0.69063 -0.60413,0.30399 -1.17135,0.74867 -1.70185,1.33396 -0.36854,0.4066 -0.84289,0.60137 -1.4229,0.58447 l -0.52702,-0.0778 a 0.05767287,0.05418735 0 0 0 -0.0619,0.0739 c 0.15134,0.35664 0.409,0.58366 0.77303,0.68128 0.22702,0.0605 0.5277,0.0461 0.78538,0.0467 0.02,0 0.0309,0.009 0.0325,0.0283 0.0352,0.43619 0.0814,0.87144 0.13864,1.30571 0.0221,0.1664 -0.0204,0.4471 -0.12762,0.84217 -0.15011,0.40237 -0.43063,0.72731 -0.8417,0.97481 -0.36117,0.23788 -0.77001,0.39415 -1.22648,0.46871 l -0.0171,0.28473 c -0.26587,0.73865 -0.59106,1.47156 -0.97555,2.19866 l -0.0957,0.1913 c -0.10185,0.14066 -0.23643,0.25731 -0.40372,0.34993 a 0.13007072,0.12220976 0 0 0 -0.054,0.15279 l 0.32821,0.72744 c 0.15039,-0.0655 0.79682,-0.34656 0.9897,-0.43055 -0.0765,-0.22008 -0.0749,-0.44294 0.007,-0.66867 0.19511,-0.61508 0.43986,-1.02212 0.82026,-1.71734 0.14295,-0.26113 0.26388,-0.39772 0.58047,-0.4865 0.40248,-0.11221 0.79017,-0.23314 1.16321,-0.36265 0.4581,-0.16026 0.88412,-0.3737 1.27801,-0.64042 0.67326,-0.47 1.15752,-1.07493 1.45284,-1.81472 0.003,-0.007 0.008,-0.009 0.0153,-0.007 0.009,0.002 0.0122,0.006 0.0111,0.0115 -0.11004,0.39199 -0.18711,0.78963 -0.23128,1.19278 a 0.08037389,0.07551641 0 0 0 0.0804,0.083 c 0.69085,-0.007 1.37818,0.0691 2.06207,0.22823 0.43205,0.10009 0.8855,0.13287 1.03715,0.58153 0.55046,-0.23945 0.6643,-0.28904 1.24003,-0.53943 -0.36672,-0.34415 -0.73392,-0.47511 -1.29372,-0.58569 -0.63644,-0.12567 -1.26994,-0.26343 -1.90066,-0.41332 -0.0258,-0.006 -0.0309,-0.0194 -0.0153,-0.0397 0.36936,-0.47693 0.54484,-1.01117 0.52643,-1.60261 -5.3e-4,-0.0215 0.0106,-0.0338 0.0331,-0.0368 1.3277,-0.19543 2.58422,-0.69243 3.45729,-1.68222 0.0114,-0.0131 0.0256,-0.0169 0.0424,-0.0115 l 1.63691,0.51589 a 0.03924586,0.03633627 2.3452213 0 1 0.0264,0.0375 c -0.007,0.0788 -0.0219,0.1445 -0.046,0.19715 -0.19839,0.43043 -0.44051,0.88589 -0.72643,1.36627 -0.1227,0.20638 -0.42761,0.24327 -0.65033,0.245 -0.0176,0 -0.0276,0.009 -0.0301,0.0248 -0.0646,0.46501 -0.0143,0.91812 0.15088,1.3593 a 0.02270102,0.02132906 0 0 0 0.0362,0.009 c 0.2086,-0.16294 0.42315,-0.32319 0.64361,-0.48075 0.16443,-0.1176 0.17002,-0.22079 0.22217,-0.39891 0.0497,-0.17121 0.28223,-0.18043 0.34787,-0.35568 0.23724,-0.63334 0.51826,-1.21886 0.84303,-1.75651 0.12454,-0.2058 0.21894,-0.42834 -0.006,-0.61395 -0.37221,-0.30668 -0.74583,-0.61223 -1.12091,-0.9166 -0.0135,-0.0111 -0.0112,-0.0167 0.007,-0.0167 l 2.16512,-0.0173 a 0.0399066,0.03802125 3.2445133 0 1 0.0387,0.0255 c 0.18489,0.48653 0.2987,1.02818 0.34165,1.62501 0.0237,0.33089 -0.10978,0.56065 -0.4006,0.68939 a 0.04294788,0.04035228 0 0 0 -0.024,0.0432 l 0.15903,0.84859 c 0.42923,-0.18648 0.5581,-0.24233 0.98777,-0.42897 -0.003,-0.006 -0.008,-0.007 -0.009,-0.0143 -0.0822,-0.37297 0.0496,-0.4797 0.22265,-0.77485 a 0.09448534,0.08877502 0 0 0 0.0111,-0.0553 c -0.0325,-0.21271 -0.11238,-0.44501 -0.14919,-0.62083 -0.12434,-0.59567 -0.24907,-1.19134 -0.37423,-1.78702 -0.0589,-0.27728 -0.19815,-0.28196 -0.45645,-0.32865 -0.62785,-0.11299 -1.25035,-0.2475 -1.86758,-0.40353 -0.0196,-0.005 -0.0249,-0.0159 -0.0159,-0.0329 0.38816,-0.7448 0.59451,-1.5337 0.61906,-2.36688 0.011,-0.3624 0.0143,-0.72577 0.01,-1.0901 a 0.0343583,0.03228182 0 0 1 0.0258,-0.0312 l 0.84974,-0.20806 a 0.08195489,0.0876321 87.666516 0 1 0.092,0.0305 c 0.43234,0.54072 0.42452,1.07614 -0.0234,1.6061 a 0.01779269,0.01671737 0 0 0 0.0196,0.0265 c 0.80006,-0.23597 1.16471,-0.75823 1.09395,-1.56681 -0.003,-0.0242 0.009,-0.0371 0.0356,-0.0386 0.30983,-0.0167 0.71543,0.11641 0.72402,-0.34476 5.3e-4,-0.0173 -0.009,-0.0257 -0.0271,-0.0253 h -0.12138 a 0.02454164,0.02305845 0 0 1 -0.0167,-0.0397 c 0.0816,-0.0692 0.18284,-0.12104 0.21966,-0.21673 0.0963,-0.24903 -0.25154,-0.44224 -0.50678,-0.59673 -0.36995,-0.22424 -0.85156,-0.42883 -1.02888,-0.8335 -0.20369,-0.46501 -0.43136,-0.91913 -0.68291,-1.36223 -0.58819,-1.03571 -1.46546,-1.7812 -2.632,-2.2366 -0.25605,-0.0999 -0.50179,-0.16682 -0.73697,-0.20063 -0.18283,-0.0266 -0.36215,-0.0439 -0.53804,-0.052 -0.15392,-0.007 -0.3052,-0.007 -0.45381,0 z"
         id="path18" />
    </g>
  </g>
</svg>
