<?xml version="1.0" encoding="UTF-8" standalone="no"?>
<!-- Created with Inkscape (http://www.inkscape.org/) -->

<svg
   width="50mm"
   height="50mm"
   viewBox="0 0 71.428571 71.428571"
   version="1.1"
   id="svg5"
   xml:space="preserve"
   inkscape:version="1.2.1 (9c6d41e4, 2022-07-14)"
   sodipodi:docname="icon.svg"
   inkscape:export-filename="favicon.png"
   inkscape:export-xdpi="100"
   inkscape:export-ydpi="100"
   xmlns:inkscape="http://www.inkscape.org/namespaces/inkscape"
   xmlns:sodipodi="http://sodipodi.sourceforge.net/DTD/sodipodi-0.dtd"
   xmlns="http://www.w3.org/2000/svg"
   xmlns:svg="http://www.w3.org/2000/svg"><sodipodi:namedview
     id="namedview7"
     pagecolor="#ffffff"
     bordercolor="#666666"
     borderopacity="1.0"
     inkscape:showpageshadow="2"
     inkscape:pageopacity="0.0"
     inkscape:pagecheckerboard="0"
     inkscape:deskcolor="#d1d1d1"
     inkscape:document-units="mm"
     showgrid="false"
     inkscape:zoom="0.43316607"
     inkscape:cx="228.54976"
     inkscape:cy="545.97997"
     inkscape:window-width="1311"
     inkscape:window-height="703"
     inkscape:window-x="225"
     inkscape:window-y="25"
     inkscape:window-maximized="0"
     inkscape:current-layer="layer1" /><defs
     id="defs2" /><g
     inkscape:label="Layer 1"
     inkscape:groupmode="layer"
     id="layer1"
     transform="translate(-2.8384844,-3.5794788)"><text
       xml:space="preserve"
       style="font-size:14.1111px;line-height:1.25;font-family:'Gill Sans';-inkscape-font-specification:'Gill Sans';text-align:center;word-spacing:0px;text-anchor:middle;stroke-width:0.264583"
       x="39.039963"
       y="117.54423"
       id="text290"><tspan
         sodipodi:role="line"
         id="tspan288"
         style="stroke-width:0.264583"
         x="39.039963"
         y="117.54423" /></text><path
       id="path422"
       style="fill:#dc34a8;fill-opacity:1;stroke-width:1"
       d="m 72.253038,5.5937539 -26.77201,0.0537 -26.772009,0.0543 -1.48053,0.39533 c -1.668472,0.44525 -3.980614,1.47695 -5.252908,2.34404 -1.231832,0.83951 -3.1510997,2.7257801 -4.0498827,3.9806401 -1.022339,1.42736 -2.079149,3.70861 -2.569869,5.54746 l -0.394808,1.48053 -0.05426,26.77201 -0.05426,26.77201 26.7720097,-0.0543 26.772009,-0.0543 1.48053,-0.39481 c 1.838855,-0.49072 4.120106,-1.54753 5.547465,-2.56987 1.254856,-0.89877 3.141125,-2.81805 3.980635,-4.04988 0.867087,-1.2723 1.898791,-3.58443 2.344043,-5.25291 l 0.395325,-1.48053 0.05426,-26.77201 z m -44.644304,15.0001201 10.850501,0.0455 10.8505,0.0455 5.344894,9.25163 c 2.939598,5.08835 5.344376,9.29875 5.344376,9.35705 0,0.0583 -2.404779,4.26924 -5.344376,9.35757 l -5.344894,9.25163 -10.790039,0.0455 -10.790039,0.0455 -0.251147,-0.39842 c -0.320237,-0.50711 -10.039242,-17.36684 -10.332186,-17.92346 -0.201879,-0.38358 0.193007,-1.13436 5.122168,-9.74669 z m 21.616769,2.60914 c -0.05587,0.0557 -0.314867,7.5648 -0.575676,16.68632 -0.260806,9.12151 -0.512932,16.6231 -0.560172,16.6703 -0.04724,0.0472 -6.723718,-3.70065 -14.836821,-8.32869 -8.113104,-4.62801 -14.777265,-8.38559 -14.808915,-8.35039 -0.04511,0.0502 9.070228,15.9731 9.656775,16.86874 0.112255,0.17164 2.343934,0.20923 10.225732,0.17363 l 10.082072,-0.0455 5.001762,-8.68319 5.001245,-8.68371 -4.542358,-8.20415 c -2.498221,-4.51239 -4.587774,-8.15908 -4.643644,-8.10338 z" /></g></svg>
