<?xml version="1.0" encoding="UTF-8" standalone="no"?>
<!-- Created with Inkscape (http://www.inkscape.org/) -->

<svg
   width="450mm"
   height="201mm"
   viewBox="0 0 450 201"
   version="1.1"
   id="svg5"
   inkscape:version="1.2.1 (9c6d41e4, 2022-07-14)"
   sodipodi:docname="logo_v3.svg"
   xmlns:inkscape="http://www.inkscape.org/namespaces/inkscape"
   xmlns:sodipodi="http://sodipodi.sourceforge.net/DTD/sodipodi-0.dtd"
   xmlns="http://www.w3.org/2000/svg"
   xmlns:svg="http://www.w3.org/2000/svg">
  <sodipodi:namedview
     id="namedview7"
     pagecolor="#ffffff"
     bordercolor="#666666"
     borderopacity="1.0"
     inkscape:showpageshadow="2"
     inkscape:pageopacity="0.0"
     inkscape:pagecheckerboard="0"
     inkscape:deskcolor="#d1d1d1"
     inkscape:document-units="mm"
     showgrid="false"
     showguides="true"
     inkscape:zoom="0.23525586"
     inkscape:cx="284.79631"
     inkscape:cy="331.55391"
     inkscape:window-width="1601"
     inkscape:window-height="782"
     inkscape:window-x="2893"
     inkscape:window-y="210"
     inkscape:window-maximized="0"
     inkscape:current-layer="g6796">
    <sodipodi:guide
       position="388.33646,-134.88343"
       orientation="0,-1"
       id="guide5108"
       inkscape:locked="false" />
    <sodipodi:guide
       position="621.15429,3.1508552"
       orientation="1,0"
       id="guide5853"
       inkscape:locked="false" />
  </sodipodi:namedview>
  <defs
     id="defs2" />
  <g
     inkscape:label="Layer 1"
     inkscape:groupmode="layer"
     id="layer1"
     transform="translate(20.17227,-90.453322)">
    <g
       id="g1645"
       transform="rotate(-45.651799,95.641074,201.6148)"
       style="stroke:#c65959;stroke-opacity:0.85000002">
      <path
         id="path1641"
         style="fill:none;stroke:#c65959;stroke-width:4;stroke-linecap:round;stroke-linejoin:round;stroke-opacity:0.85000002"
         d="m 98.161018,156.05083 c -20.851086,0 -37.754232,-16.90314 -37.754234,-37.75423 0,-20.851088 16.903146,-37.754234 37.754234,-37.754234 20.851082,10e-7 37.754232,16.903147 37.754232,37.754234"
         sodipodi:nodetypes="cssc" />
    </g>
    <g
       id="g1663"
       transform="translate(280.94885,23.287883)"
       style="stroke:#c65959;stroke-opacity:0.85000002">
      <path
         id="path1659"
         style="fill:none;stroke:#c65959;stroke-width:4;stroke-linecap:round;stroke-linejoin:round;stroke-opacity:0.85000002"
         d="M 135.91525,118.2966 A 37.754234,37.754234 0 0 1 98.161018,156.05083 37.754234,37.754234 0 0 1 60.406784,118.2966 37.754234,37.754234 0 0 1 98.161018,80.542366 37.754234,37.754234 0 0 1 135.91525,118.2966 Z" />
    </g>
    <g
       id="g5851"
       transform="translate(-318.12233,-104.97409)"
       style="stroke:#c65959;stroke-opacity:0.85000002">
      <path
         style="fill:none;stroke:#c65959;stroke-width:4;stroke-linecap:round;stroke-linejoin:round;stroke-opacity:0.85000002"
         d="m 462.97588,243.31427 c -6.33533,4.80776 -14.23542,7.66083 -22.80187,7.66083 -8.71355,0 -16.73764,-2.95189 -23.12683,-7.9102"
         id="path5847" />
      <path
         style="fill:none;stroke:#c65959;stroke-width:4;stroke-linecap:round;stroke-linejoin:round;stroke-opacity:0.85000002"
         d="m 417.04718,276.40261 c -8.89982,-6.9067 -14.62741,-17.70649 -14.62741,-29.84403 0,-20.85109 16.90315,-37.75424 37.75424,-37.75424 20.85108,0 37.75423,16.90315 37.75423,37.75424 0,12.28463 -5.86725,23.19889 -14.95236,30.0934"
         id="path5849" />
    </g>
    <g
       id="g6593"
       transform="rotate(-26.895069,109.10893,660.67054)"
       style="stroke:#c65959;stroke-opacity:0.85000002">
      <path
         style="fill:none;stroke:#c65959;stroke-width:4;stroke-linecap:round;stroke-linejoin:round;stroke-opacity:0.85000002"
         d="m 462.97588,243.31427 c -6.33533,4.80776 -14.23542,7.66083 -22.80187,7.66083 -8.71355,0 -16.73764,-2.95189 -23.12683,-7.9102"
         id="path6589" />
      <path
         style="fill:none;stroke:#c65959;stroke-width:4;stroke-linecap:round;stroke-linejoin:round;stroke-opacity:0.85000002"
         d="m 417.04718,276.40261 c -8.89982,-6.9067 -14.62741,-17.70649 -14.62741,-29.84403 0,-20.85109 16.90315,-37.75424 37.75424,-37.75424 15.37453,0 28.60264,9.18998 34.49076,22.37638"
         id="path6591"
         sodipodi:nodetypes="cssc" />
    </g>
    <g
       id="g6762"
       transform="rotate(-26.895069,149.62688,491.2177)"
       style="stroke:#c65959;stroke-opacity:0.85000002">
      <path
         style="fill:none;stroke:#c65959;stroke-width:4;stroke-linecap:round;stroke-linejoin:round;stroke-opacity:0.85000002"
         d="m 462.97588,243.31427 c -6.33533,4.80776 -14.23542,7.66083 -22.80187,7.66083 -8.71355,0 -16.73764,-2.95189 -23.12683,-7.9102"
         id="path6603" />
      <path
         style="fill:none;stroke:#c65959;stroke-width:4;stroke-linecap:round;stroke-linejoin:round;stroke-opacity:0.85000002"
         d="m 417.04718,276.40261 c -8.89982,-6.9067 -14.62741,-17.70649 -14.62741,-29.84403 0,-20.85109 16.90315,-37.75424 37.75424,-37.75424 15.37453,0 28.60264,9.18998 34.49076,22.37638"
         id="path6605"
         sodipodi:nodetypes="cssc" />
      <path
         style="fill:none;stroke:#c65959;stroke-width:4;stroke-linecap:round;stroke-linejoin:round;stroke-opacity:0.85000002"
         d="m 420.54672,245.66717 c 7.55754,2.47679 14.39719,7.35231 19.26905,14.39851 4.95552,7.1672 7.0909,15.44608 6.64614,23.52127"
         id="path6670" />
    </g>
    <g
       id="g6796"
       transform="translate(-325.48415,229.98911)"
       style="stroke:#c65959;stroke-opacity:1" />
  </g>
</svg>
