<?xml version="1.0" encoding="UTF-8" standalone="no"?>
<!-- Created with Inkscape (http://www.inkscape.org/) -->

<svg
   width="500mm"
   height="125mm"
   viewBox="0 0 500 125"
   version="1.1"
   id="svg5"
   xml:space="preserve"
   inkscape:version="1.2.1 (9c6d41e4, 2022-07-14)"
   sodipodi:docname="logo.svg"
   inkscape:export-filename="logo.png"
   inkscape:export-xdpi="100"
   inkscape:export-ydpi="100"
   xmlns:inkscape="http://www.inkscape.org/namespaces/inkscape"
   xmlns:sodipodi="http://sodipodi.sourceforge.net/DTD/sodipodi-0.dtd"
   xmlns="http://www.w3.org/2000/svg"
   xmlns:svg="http://www.w3.org/2000/svg"><sodipodi:namedview
     id="namedview7"
     pagecolor="#ffffff"
     bordercolor="#666666"
     borderopacity="1.0"
     inkscape:showpageshadow="2"
     inkscape:pageopacity="0.0"
     inkscape:pagecheckerboard="0"
     inkscape:deskcolor="#d1d1d1"
     inkscape:document-units="mm"
     showgrid="false"
     inkscape:zoom="0.34193533"
     inkscape:cx="488.39645"
     inkscape:cy="437.21718"
     inkscape:window-width="2140"
     inkscape:window-height="717"
     inkscape:window-x="3041"
     inkscape:window-y="300"
     inkscape:window-maximized="0"
     inkscape:current-layer="g2414"
     showguides="false" /><defs
     id="defs2" /><g
     inkscape:label="Layer 1"
     inkscape:groupmode="layer"
     id="layer1"
     transform="translate(-22.130682,-115.23856)"><text
       xml:space="preserve"
       style="font-size:14.1111px;line-height:1.25;font-family:'Gill Sans';-inkscape-font-specification:'Gill Sans';text-align:center;word-spacing:0px;text-anchor:middle;stroke-width:0.264583"
       x="39.039963"
       y="117.54423"
       id="text290"><tspan
         sodipodi:role="line"
         id="tspan288"
         style="stroke-width:0.264583"
         x="39.039963"
         y="117.54423" /></text><g
       id="g4621"
       transform="translate(4.0662877,3.1337609)"><path
         style="fill:#d0d0d0;fill-opacity:1;stroke-width:1"
         d="m 46.670466,163.28035 c 2.789149,-0.0273 7.353212,-0.0273 10.142361,0 2.789149,0.0273 0.507118,0.0496 -5.07118,0.0496 -5.578299,0 -7.86033,-0.0223 -5.071181,-0.0496 z m 51.685296,-1.93033 c 0.17163,-0.0447 0.40975,-0.0418 0.52917,0.007 0.11942,0.0483 -0.021,0.0849 -0.31204,0.0813 -0.29104,-0.004 -0.38875,-0.0431 -0.21713,-0.0878 z m 14.111118,0 c 0.17162,-0.0447 0.40974,-0.0418 0.52916,0.007 0.11942,0.0483 -0.021,0.0849 -0.31203,0.0813 -0.29105,-0.004 -0.38876,-0.0431 -0.21713,-0.0878 z m 16.489,0.005 c 0.12127,-0.0489 0.31971,-0.0489 0.44097,0 0.12127,0.0489 0.022,0.089 -0.22048,0.089 -0.24254,0 -0.34176,-0.04 -0.22049,-0.089 z m 33.95821,-0.005 c 0.17163,-0.0447 0.40975,-0.0418 0.52917,0.007 0.11943,0.0483 -0.021,0.0849 -0.31203,0.0813 -0.29104,-0.004 -0.38875,-0.0431 -0.21714,-0.0878 z m 15.69861,0 c 0.17163,-0.0447 0.40976,-0.0418 0.52917,0.007 0.11943,0.0483 -0.021,0.0849 -0.31203,0.0813 -0.29104,-0.004 -0.38875,-0.0431 -0.21714,-0.0878 z m -79.984678,-0.52743 c 0.12733,-0.051 0.27946,-0.0447 0.33808,0.0139 0.0586,0.0586 -0.0456,0.1003 -0.23152,0.0926 -0.20548,-0.008 -0.24727,-0.0503 -0.10656,-0.10656 z M 132.1419,160.6462 c 0.12733,-0.051 0.27947,-0.0447 0.33808,0.0139 0.0586,0.0586 -0.0456,0.1003 -0.23151,0.0926 -0.20548,-0.008 -0.24728,-0.0503 -0.10657,-0.10656 z m 4.61833,-2.04841 0.0873,-2.15262 0.051,2.0136 c 0.0281,1.10748 -0.0112,2.07616 -0.0873,2.15262 -0.0761,0.0765 -0.099,-0.82967 -0.051,-2.0136 z m 14.90572,-1.62345 c 0,-2.06727 0.0595,-3.72189 0.13229,-3.67692 0.0728,0.045 0.13229,1.69958 0.13229,3.67692 0,1.97733 -0.0595,3.63194 -0.13229,3.67691 -0.0728,0.045 -0.13229,-1.60964 -0.13229,-3.67691 z m 11.33299,3.67554 c 0.12126,-0.0489 0.3197,-0.0489 0.44097,0 0.12127,0.0489 0.022,0.089 -0.22049,0.089 -0.24253,0 -0.34175,-0.04 -0.22048,-0.089 z m 15.875,0 c 0.12126,-0.0489 0.3197,-0.0489 0.44097,0 0.12127,0.0489 0.022,0.089 -0.22049,0.089 -0.24253,0 -0.34175,-0.04 -0.22048,-0.089 z m -57.49962,-0.18741 c 0.31703,-0.0392 0.79328,-0.0384 1.05833,0.002 0.26505,0.0403 0.006,0.0724 -0.57642,0.0714 -0.58209,-10e-4 -0.79895,-0.0339 -0.48191,-0.0732 z m 31.32775,-1.90063 c 3.5e-4,-1.06716 0.0294,-1.48098 0.0646,-0.91961 0.0351,0.56138 0.0348,1.4345 -7.1e-4,1.94028 -0.0355,0.50578 -0.0642,0.0465 -0.0638,-1.02067 z m -91.038164,-0.17639 c 0.002,-0.38806 0.03808,-0.52604 0.08027,-0.30663 0.04219,0.21942 0.04059,0.53692 -0.0036,0.70556 -0.04415,0.16864 -0.07867,-0.0109 -0.07671,-0.39893 z m 59.530864,0.50054 c 0.12127,-0.0489 0.3197,-0.0489 0.44097,0 0.12127,0.0489 0.0221,0.089 -0.22048,0.089 -0.24254,0 -0.34176,-0.04 -0.22049,-0.089 z m 9.35963,-0.53284 c 0.12733,-0.051 0.27947,-0.0447 0.33808,0.0139 0.0586,0.0586 -0.0456,0.1003 -0.23151,0.0926 -0.20548,-0.008 -0.24728,-0.0503 -0.10657,-0.10657 z m -19.35577,-0.51157 c 0.008,-0.20548 0.0503,-0.24728 0.10656,-0.10657 0.051,0.12733 0.0447,0.27947 -0.0139,0.33808 -0.0586,0.0586 -0.10031,-0.0456 -0.0927,-0.23151 z m 53.98892,-0.24988 c 0,-0.24254 0.04,-0.34176 0.089,-0.22049 0.0489,0.12127 0.0489,0.31971 0,0.44097 -0.0489,0.12127 -0.089,0.022 -0.089,-0.22048 z m -68.452811,-0.45567 c 0.0085,-0.20549 0.05026,-0.24728 0.106567,-0.10657 0.05095,0.12733 0.04469,0.27946 -0.01392,0.33808 -0.05861,0.0586 -0.100302,-0.0456 -0.09264,-0.23151 z m 24.471051,-1.07594 c 0.12733,-0.051 0.27947,-0.0447 0.33808,0.0139 0.0586,0.0586 -0.0456,0.1003 -0.23151,0.0926 -0.20548,-0.008 -0.24728,-0.0503 -0.10657,-0.10656 z m 31.49556,-1.64339 c 0,-1.01865 0.0291,-1.43537 0.0648,-0.92604 0.0356,0.50932 0.0356,1.34276 0,1.85208 -0.0356,0.50932 -0.0648,0.0926 -0.0648,-0.92604 z m 10.30861,1.64339 c 0.12734,-0.051 0.27947,-0.0447 0.33808,0.0139 0.0586,0.0586 -0.0456,0.1003 -0.23151,0.0926 -0.20549,-0.008 -0.24728,-0.0503 -0.10657,-0.10656 z m 15.69861,0 c 0.12734,-0.051 0.27947,-0.0447 0.33809,0.0139 0.0586,0.0586 -0.0456,0.1003 -0.23151,0.0926 -0.2055,-0.008 -0.24728,-0.0503 -0.10658,-0.10656 z m -48.95558,-0.53091 c 0.17162,-0.0447 0.40974,-0.0418 0.52916,0.007 0.11942,0.0483 -0.021,0.0849 -0.31203,0.0813 -0.29105,-0.004 -0.38875,-0.0431 -0.21713,-0.0878 z m 40.13614,0.002 c 0.12733,-0.051 0.27947,-0.0447 0.33808,0.0139 0.0586,0.0586 -0.0456,0.10031 -0.23151,0.0926 -0.20549,-0.008 -0.24728,-0.0503 -0.10657,-0.10657 z M 61.843854,152.12364 c 0,-0.43656 0.0344,-0.61515 0.07644,-0.39687 0.04204,0.21828 0.04204,0.57547 0,0.79375 -0.04204,0.21828 -0.07644,0.0397 -0.07644,-0.39688 z m 0.176389,-6.17361 c 0,-0.43656 0.0344,-0.61516 0.07644,-0.39687 0.04204,0.21828 0.04204,0.57546 0,0.79375 -0.04204,0.21828 -0.07644,0.0397 -0.07644,-0.39688 z m 94.011717,-3.43958 c 0.002,-0.38806 0.0381,-0.52604 0.0803,-0.30663 0.0422,0.21941 0.0406,0.53691 -0.004,0.70556 -0.0442,0.16864 -0.0787,-0.0109 -0.0767,-0.39893 z m 7.40834,0 c 0.002,-0.38806 0.0381,-0.52604 0.0803,-0.30663 0.0422,0.21941 0.0406,0.53691 -0.004,0.70556 -0.0442,0.16864 -0.0787,-0.0109 -0.0767,-0.39893 z m -12.66567,-6.96737 c 0,-3.15295 0.0239,-4.44279 0.0532,-2.86631 0.0292,1.57647 0.0292,4.15616 0,5.73263 -0.0292,1.57648 -0.0532,0.28664 -0.0532,-2.86632 z m -88.577998,4.23334 c 0,-0.43656 0.0344,-0.61516 0.07644,-0.39688 0.04204,0.21829 0.04204,0.57547 0,0.79375 -0.04204,0.21829 -0.07644,0.0397 -0.07644,-0.39687 z m 45.074438,-1.17883 c 0.12733,-0.051 0.27947,-0.0447 0.33808,0.0139 0.0586,0.0586 -0.0456,0.1003 -0.23151,0.0926 -0.20548,-0.008 -0.24728,-0.0503 -0.10657,-0.10656 z m 11.19773,-0.0108 c 0.75629,-0.0331 1.94692,-0.0329 2.64584,5.3e-4 0.69891,0.0334 0.0801,0.0605 -1.37508,0.0603 -1.45521,-1.7e-4 -2.02705,-0.0276 -1.27076,-0.0607 z m 18.86555,-1.04867 c 0.16978,-0.0444 0.44759,-0.0444 0.61736,0 0.16978,0.0444 0.0309,0.0807 -0.30868,0.0807 -0.33955,0 -0.47845,-0.0363 -0.30868,-0.0807 z m 1.6757,0.005 c 0.12126,-0.0489 0.3197,-0.0489 0.44097,0 0.12127,0.0489 0.022,0.089 -0.22049,0.089 -0.24253,0 -0.34175,-0.04 -0.22048,-0.089 z m 38.34833,-0.58872 c 0,-0.24254 0.04,-0.34176 0.089,-0.22049 0.0489,0.12127 0.0489,0.31971 0,0.44097 -0.0489,0.12127 -0.089,0.022 -0.089,-0.22048 z m -10.02735,-1.14673 c 0.002,-0.58209 0.0339,-0.79894 0.0732,-0.48191 0.0393,0.31703 0.0385,0.79328 -0.002,1.05833 -0.0402,0.26505 -0.0724,0.006 -0.0714,-0.57642 z m 3.52958,-0.26459 c 0,-0.63059 0.032,-0.88855 0.0711,-0.57326 0.0391,0.3153 0.0391,0.83123 0,1.14653 -0.0391,0.31529 -0.0711,0.0573 -0.0711,-0.57327 z m -70.56754,-0.0882 c 0.002,-0.38805 0.0381,-0.52603 0.0803,-0.30662 0.0422,0.21941 0.0406,0.53691 -0.004,0.70556 -0.0442,0.16864 -0.0787,-0.0109 -0.0767,-0.39894 z M 62.373021,133.6028 c 0,-0.43657 0.0344,-0.61516 0.07644,-0.39688 0.04204,0.21828 0.04204,0.57547 0,0.79375 -0.04204,0.21828 -0.07644,0.0397 -0.07644,-0.39687 z m 114.971429,0.24988 c 0.008,-0.20548 0.0503,-0.24728 0.10657,-0.10657 0.051,0.12733 0.0447,0.27947 -0.0139,0.33808 -0.0586,0.0586 -0.10031,-0.0456 -0.0927,-0.23151 z m 3.52778,0 c 0.008,-0.20548 0.0503,-0.24728 0.10657,-0.10657 0.051,0.12733 0.0447,0.27947 -0.0139,0.33808 -0.0586,0.0586 -0.10032,-0.0456 -0.0927,-0.23151 z m -39.68749,-0.70555 c 0.008,-0.20549 0.0503,-0.24728 0.10656,-0.10657 0.051,0.12733 0.0447,0.27946 -0.0139,0.33808 -0.0586,0.0586 -0.10031,-0.0456 -0.0927,-0.23151 z m 2.25663,-4.08635 c -0.21941,-0.27976 -0.21317,-0.286 0.0666,-0.0666 0.16978,0.13315 0.30868,0.27206 0.30868,0.30868 0,0.14518 -0.14484,0.0517 -0.37527,-0.24208 z m 10.92553,0.0118 c 0.12733,-0.051 0.27947,-0.0447 0.33808,0.0139 0.0586,0.0586 -0.0456,0.1003 -0.23151,0.0926 -0.20548,-0.008 -0.24728,-0.0503 -0.10657,-0.10656 z m -35.44079,-1.16591 c 0.0774,-0.0769 0.808,-0.116 1.6236,-0.0868 l 1.48291,0.053 -1.6236,0.0868 c -0.89298,0.0478 -1.56029,0.0239 -1.48291,-0.053 z m 17.17352,-0.0699 c 0.16977,-0.0444 0.44759,-0.0444 0.61736,0 0.16978,0.0444 0.0309,0.0807 -0.30868,0.0807 -0.33955,0 -0.47845,-0.0363 -0.30868,-0.0807 z m 16.93333,0 c 0.16978,-0.0444 0.44759,-0.0444 0.61736,0 0.16978,0.0444 0.0309,0.0807 -0.30868,0.0807 -0.33954,0 -0.47845,-0.0363 -0.30868,-0.0807 z m -49.99522,-0.17529 c 0.12733,-0.051 0.27947,-0.0447 0.33808,0.0139 0.0586,0.0586 -0.0456,0.1003 -0.23151,0.0926 -0.20549,-0.008 -0.24728,-0.0503 -0.10657,-0.10656 z"
         id="path426" /><path
         style="fill:#b9b9b9;fill-opacity:1;stroke-width:1"
         d="m 70.405796,179.34343 c 0.12733,-0.051 0.279467,-0.0447 0.338079,0.0139 0.05861,0.0586 -0.04557,0.10031 -0.23151,0.0926 -0.205485,-0.008 -0.24728,-0.0503 -0.106569,-0.10657 z m 9.734462,-4.16804 c 0,-0.0304 0.257968,-0.28832 0.573263,-0.57326 l 0.573264,-0.51807 -0.51807,0.57326 c -0.482914,0.53437 -0.628457,0.65434 -0.628457,0.51807 z m 5.129203,-10.63103 c 0.0085,-0.20548 0.05026,-0.24728 0.106567,-0.10657 0.05095,0.12733 0.04469,0.27947 -0.01392,0.33808 -0.05861,0.0586 -0.100302,-0.0456 -0.09264,-0.23151 z m 33.852739,-2.96232 c 0,-0.0366 0.13891,-0.17553 0.30868,-0.30868 0.27976,-0.2194 0.286,-0.21316 0.0666,0.0666 -0.23043,0.29382 -0.37528,0.38726 -0.37528,0.24208 z m -57.454734,-1.87368 c 0,-0.43656 0.0344,-0.61515 0.07644,-0.39687 0.04204,0.21828 0.04204,0.57547 0,0.79375 -0.04204,0.21828 -0.07644,0.0397 -0.07644,-0.39688 z m 0.176388,-6.17361 c 0,-0.43656 0.0344,-0.61515 0.07644,-0.39687 0.04204,0.21828 0.04204,0.57547 0,0.79375 -0.04204,0.21828 -0.07644,0.0397 -0.07644,-0.39688 z m 0.176389,-6.17361 c 0,-0.43656 0.0344,-0.61515 0.07644,-0.39687 0.04204,0.21828 0.04204,0.57547 0,0.79375 -0.04204,0.21828 -0.07644,0.0397 -0.07644,-0.39688 z m 40.664717,-4.00105 c 0.12733,-0.051 0.27947,-0.0447 0.33808,0.0139 0.0586,0.0586 -0.0456,0.1003 -0.23151,0.0926 -0.20549,-0.008 -0.24728,-0.0503 -0.10657,-0.10656 z m 1.94028,0 c 0.12733,-0.051 0.27947,-0.0447 0.33808,0.0139 0.0586,0.0586 -0.0456,0.1003 -0.23151,0.0926 -0.20549,-0.008 -0.24728,-0.0503 -0.10657,-0.10656 z m 68.7838,-0.007 c 0.31704,-0.0393 0.79329,-0.0384 1.05833,0.002 0.26506,0.0403 0.006,0.0724 -0.57642,0.0714 -0.58208,-0.001 -0.79894,-0.0339 -0.48191,-0.0732 z m -51.9493,-0.8423 c 0.002,-0.38806 0.0381,-0.52604 0.0803,-0.30663 0.0422,0.21941 0.0406,0.53691 -0.004,0.70556 -0.0442,0.16864 -0.0787,-0.0109 -0.0767,-0.39893 z m 10.40694,0 c 0.002,-0.38806 0.0381,-0.52604 0.0803,-0.30663 0.0422,0.21941 0.0406,0.53691 -0.004,0.70556 -0.0442,0.16864 -0.0787,-0.0109 -0.0767,-0.39893 z m 16.93333,0 c 0.002,-0.38806 0.0381,-0.52604 0.0803,-0.30663 0.0422,0.21941 0.0406,0.53691 -0.004,0.70556 -0.0442,0.16864 -0.0787,-0.0109 -0.0767,-0.39893 z m -86.603378,-1.32326 c 0,-0.43656 0.0344,-0.61516 0.07644,-0.39688 0.04204,0.21829 0.04204,0.57547 0,0.79376 -0.04204,0.21828 -0.07644,0.0397 -0.07644,-0.39688 z m 116.633208,0.35278 c 0.17559,-0.19403 0.35895,-0.35278 0.40746,-0.35278 0.0485,0 -0.0555,0.15875 -0.23107,0.35278 -0.1756,0.19403 -0.35895,0.35278 -0.40746,0.35278 -0.0485,0 0.0555,-0.15875 0.23107,-0.35278 z m -70.08673,-0.17639 c 0,-0.24254 0.04,-0.34175 0.089,-0.22049 0.0489,0.12127 0.0489,0.31971 0,0.44098 -0.0489,0.12126 -0.089,0.022 -0.089,-0.22049 z m 45.1968,-2.46945 c 0,-1.30968 0.0278,-1.84546 0.0617,-1.19062 0.0339,0.65484 0.0339,1.72641 0,2.38125 -0.0339,0.65484 -0.0617,0.11906 -0.0617,-1.19063 z m -15.63542,-1.35154 c 0.12127,-0.0489 0.31971,-0.0489 0.44097,0 0.12127,0.0489 0.0221,0.089 -0.22048,0.089 -0.24254,0 -0.34176,-0.04 -0.22049,-0.089 z M 170.832,136.9542 c 0,-0.24254 0.04,-0.34176 0.089,-0.22049 0.0489,0.12127 0.0489,0.31971 0,0.44097 -0.0489,0.12127 -0.089,0.022 -0.089,-0.22048 z m -11.51563,-0.1323 c -0.21941,-0.27976 -0.21317,-0.286 0.0666,-0.0666 0.16978,0.13314 0.30868,0.27205 0.30868,0.30868 0,0.14517 -0.14484,0.0517 -0.37527,-0.24209 z M 96.7552,136.51322 c 0.0036,-0.29104 0.04313,-0.38875 0.08785,-0.21713 0.04472,0.17163 0.04178,0.40975 -0.0065,0.52917 -0.04832,0.11942 -0.08491,-0.021 -0.08131,-0.31204 z m 3.52778,0 c 0.004,-0.29104 0.0431,-0.38875 0.0878,-0.21713 0.0447,0.17163 0.0418,0.40975 -0.007,0.52917 -0.0483,0.11942 -0.0849,-0.021 -0.0813,-0.31204 z m 37.67079,-0.21294 c 0.21941,-0.0422 0.53691,-0.0406 0.70556,0.004 0.16864,0.0442 -0.0109,0.0787 -0.39894,0.0767 -0.38805,-0.002 -0.52603,-0.0381 -0.30662,-0.0803 z m 42.94546,-0.40442 c 0,-0.33955 0.0363,-0.47845 0.0807,-0.30868 0.0444,0.16978 0.0444,0.44759 0,0.61736 -0.0444,0.16978 -0.0807,0.0309 -0.0807,-0.30868 z m -40.78675,-0.0666 c 0,-0.0366 0.1389,-0.17553 0.30868,-0.30868 0.27976,-0.2194 0.286,-0.21316 0.0666,0.0666 -0.23043,0.29382 -0.37528,0.38726 -0.37528,0.24208 z m -77.739459,-0.81534 c 0,-0.43656 0.0344,-0.61516 0.07644,-0.39688 0.04204,0.21828 0.04204,0.57547 0,0.79375 -0.04204,0.21828 -0.07644,0.0397 -0.07644,-0.39687 z m 34.382179,0.0882 c 0.0036,-0.29104 0.04313,-0.38875 0.08785,-0.21713 0.04472,0.17162 0.04178,0.40975 -0.0065,0.52917 -0.04832,0.11942 -0.08491,-0.021 -0.08131,-0.31204 z m 57.1496,-2.85591 c -0.0187,-1.66776 0.0255,-3.06931 0.0983,-3.11455 0.0728,-0.0452 0.11152,0.84305 0.0861,1.97397 -0.0852,3.79375 -0.15018,4.19568 -0.18442,1.14058 z m 26.98789,2.32674 c 0.004,-0.29104 0.0431,-0.38875 0.0879,-0.21713 0.0447,0.17162 0.0418,0.40975 -0.007,0.52917 -0.0483,0.11942 -0.0849,-0.021 -0.0813,-0.31204 z m -80.60971,-0.17639 c 0.004,-0.29104 0.0431,-0.38875 0.0878,-0.21713 0.0447,0.17162 0.0418,0.40975 -0.007,0.52917 -0.0483,0.11942 -0.0849,-0.021 -0.0813,-0.31204 z m 70.54902,-0.26458 c 0,-0.24254 0.04,-0.34175 0.089,-0.22049 0.0489,0.12127 0.0489,0.31971 0,0.44098 -0.0489,0.12126 -0.089,0.022 -0.089,-0.22049 z m 6.51245,-0.80845 c 0.008,-0.20548 0.0503,-0.24728 0.10657,-0.10657 0.051,0.12733 0.0447,0.27947 -0.0139,0.33808 -0.0586,0.0586 -0.10031,-0.0456 -0.0927,-0.23151 z m -68.61527,-2.29305 c 0.008,-0.20548 0.0503,-0.24728 0.10657,-0.10657 0.051,0.12733 0.0447,0.27947 -0.0139,0.33808 -0.0586,0.0586 -0.1003,-0.0456 -0.0926,-0.23151 z m 63.48608,-1.22002 c 0.22784,-0.24254 0.45395,-0.44098 0.50246,-0.44098 0.0485,0 -0.0982,0.19844 -0.32608,0.44098 -0.22784,0.24253 -0.45395,0.44097 -0.50246,0.44097 -0.0485,0 0.0982,-0.19844 0.32608,-0.44097 z m 3.85804,-0.0441 c -0.21939,-0.27977 -0.21316,-0.28601 0.0666,-0.0666 0.29381,0.23043 0.38726,0.37527 0.24207,0.37527 -0.0366,0 -0.17552,-0.1389 -0.30868,-0.30868 z M 62.501369,129.27087 c 0,-0.15125 0.08067,-0.22514 0.179266,-0.1642 0.0986,0.0609 0.1336,0.18468 0.07778,0.27499 -0.151205,0.24466 -0.257049,0.19904 -0.257049,-0.11079 z m 116.394161,-0.0337 c -0.2194,-0.27976 -0.21317,-0.286 0.0666,-0.0666 0.29381,0.23043 0.38726,0.37528 0.24208,0.37528 -0.0366,0 -0.17553,-0.13891 -0.30868,-0.30868 z m -47.02885,-0.66146 c 0.002,-0.38805 0.0381,-0.52603 0.0803,-0.30662 0.0422,0.21941 0.0406,0.53691 -0.004,0.70556 -0.0442,0.16864 -0.0787,-0.0109 -0.0767,-0.39894 z m 16.93333,0 c 0.002,-0.38805 0.0381,-0.52603 0.0803,-0.30662 0.0422,0.21941 0.0406,0.53691 -0.004,0.70556 -0.0442,0.16864 -0.0787,-0.0109 -0.0767,-0.39894 z m -45.06774,0.32416 c 0.12127,-0.0489 0.3197,-0.0489 0.44097,0 0.12127,0.0489 0.022,0.089 -0.22048,0.089 -0.24254,0 -0.34176,-0.04 -0.22049,-0.089 z m 33.34852,-1.06201 c 0.12733,-0.051 0.27947,-0.0447 0.33808,0.0139 0.0586,0.0586 -0.0456,0.1003 -0.23151,0.0926 -0.20548,-0.008 -0.24728,-0.0503 -0.10657,-0.10657 z m 2.82223,0 c 0.12733,-0.051 0.27946,-0.0447 0.33807,0.0139 0.0586,0.0586 -0.0456,0.1003 -0.23151,0.0926 -0.20548,-0.008 -0.24728,-0.0503 -0.10656,-0.10657 z m 14.10008,0.004 c 0.12127,-0.0489 0.31971,-0.0489 0.44097,0 0.12127,0.0489 0.0221,0.089 -0.22048,0.089 -0.24254,0 -0.34175,-0.04 -0.22049,-0.089 z m 3.00964,-0.004 c 0.12733,-0.051 0.27946,-0.0447 0.33808,0.0139 0.0586,0.0586 -0.0456,0.1003 -0.23151,0.0926 -0.20549,-0.008 -0.24728,-0.0503 -0.10657,-0.10657 z m -53.45686,-0.17271 c 0.12127,-0.0489 0.31971,-0.0489 0.44097,0 0.12127,0.0489 0.0221,0.089 -0.22048,0.089 -0.24254,0 -0.34176,-0.04 -0.22049,-0.089 z m 0.97014,-0.005 c 0.16977,-0.0444 0.44759,-0.0444 0.61736,0 0.16977,0.0444 0.0309,0.0807 -0.30868,0.0807 -0.33955,0 -0.47845,-0.0363 -0.30868,-0.0807 z m 69.06727,0.001 c 0.12734,-0.051 0.27947,-0.0447 0.33809,0.0139 0.0586,0.0586 -0.0456,0.1003 -0.23151,0.0926 -0.2055,-0.008 -0.24728,-0.0503 -0.10658,-0.10656 z m 1.5875,0 c 0.12734,-0.051 0.27947,-0.0447 0.33809,0.0139 0.0586,0.0586 -0.0456,0.1003 -0.23151,0.0926 -0.2055,-0.008 -0.24728,-0.0503 -0.10658,-0.10656 z M 18.065295,126.9735 c 0.0085,-0.20549 0.05026,-0.24728 0.106567,-0.10657 0.05095,0.12733 0.04469,0.27946 -0.01392,0.33808 -0.05861,0.0586 -0.100302,-0.0456 -0.09264,-0.23151 z m 4.219407,-9.65366 c 0,-0.0304 0.257969,-0.28833 0.573264,-0.57327 l 0.573264,-0.51807 -0.51807,0.57327 c -0.482914,0.53436 -0.628458,0.65434 -0.628458,0.51807 z m 10.550261,-5.18058 c 0.127329,-0.0509 0.279467,-0.0447 0.338079,0.0139 0.05861,0.0586 -0.04557,0.1003 -0.23151,0.0926 -0.205485,-0.008 -0.24728,-0.0503 -0.106569,-0.10657 z"
         id="path424" /><g
         id="g3098"
         transform="translate(1.5875,4.2787525)"><g
           id="g2414"
           transform="translate(9.6387103,6.2999898)"><g
             id="g2405"
             transform="translate(0,1.0036593)" /><g
             id="g653"
             transform="matrix(2.1195415,0,0,2.1195415,-64.500839,-130.22717)"
             style="stroke-width:0.4718"><g
               id="g637"
               transform="translate(-1.1875e-7,-0.53833468)"
               style="stroke-width:0.4718"><text
                 xml:space="preserve"
                 style="font-size:28.2222px;line-height:1.25;font-family:rasa;-inkscape-font-specification:rasa;text-align:center;letter-spacing:0.79375px;word-spacing:0px;text-anchor:middle;fill:#cc4c4c;fill-opacity:1;stroke-width:0.12483"
                 x="150.43341"
                 y="137.12209"
                 id="text453"><tspan
                   sodipodi:role="line"
                   id="tspan451"
                   style="font-style:normal;font-variant:normal;font-weight:600;font-stretch:normal;font-size:28.2222px;font-family:'space grotesk';-inkscape-font-specification:'space grotesk Semi-Bold';fill:#cc4c4c;fill-opacity:1;stroke-width:0.12483"
                   x="150.83029"
                   y="137.12209">CAPRO</tspan></text><text
                 xml:space="preserve"
                 style="font-size:17.6389px;line-height:1.25;font-family:rasa;-inkscape-font-specification:rasa;text-align:center;letter-spacing:0.49932183px;word-spacing:0px;text-anchor:middle;fill:#868686;fill-opacity:1;stroke-width:0.12483"
                 x="179.52579"
                 y="157.83273"
                 id="text1640"><tspan
                   sodipodi:role="line"
                   id="tspan1638"
                   style="font-style:normal;font-variant:normal;font-weight:normal;font-stretch:normal;font-size:17.6389px;font-family:spektral;-inkscape-font-specification:spektral;fill:#868686;fill-opacity:1;stroke-width:0.12483"
                   x="179.83786"
                   y="157.83273">UiO: Life science</tspan></text></g><g
               inkscape:label="Layer 1"
               id="layer1-8"
               transform="matrix(0.70000001,0,0,0.70000001,45.573087,111.32308)"
               style="stroke-width:0.4718"><text
                 xml:space="preserve"
                 style="font-size:14.1111px;line-height:1.25;font-family:'Gill Sans';-inkscape-font-specification:'Gill Sans';text-align:center;word-spacing:0px;text-anchor:middle;stroke-width:0.12483"
                 x="39.039963"
                 y="117.54423"
                 id="text290-4"><tspan
                   sodipodi:role="line"
                   id="tspan288-8"
                   style="stroke-width:0.12483"
                   x="39.039963"
                   y="117.54423" /></text><path
                 id="path422"
                 style="fill:#cc4c4c;fill-opacity:1;stroke-width:0.4718"
                 d="m 72.253038,5.5937539 -26.77201,0.0537 -26.772009,0.0543 -1.48053,0.39533 c -1.668472,0.44525 -3.980614,1.47695 -5.252908,2.34404 -1.231832,0.83951 -3.1510997,2.7257801 -4.0498827,3.9806401 -1.022339,1.42736 -2.079149,3.70861 -2.569869,5.54746 l -0.394808,1.48053 -0.05426,26.77201 -0.05426,26.77201 26.7720097,-0.0543 26.772009,-0.0543 1.48053,-0.39481 c 1.838855,-0.49072 4.120106,-1.54753 5.547465,-2.56987 1.254856,-0.89877 3.141125,-2.81805 3.980635,-4.04988 0.867087,-1.2723 1.898791,-3.58443 2.344043,-5.25291 l 0.395325,-1.48053 0.05426,-26.77201 z m -45.400256,14.2441681 23.212905,0.091 10.68927,19.364632 c 0,0 -6.624754,12.329765 -10.68927,19.365152 -7.193359,0.03033 -23.091982,0.091 -23.091982,0.091 L 16.390372,39.671874 Z m 22.372721,3.365092 C 48.52544,34.916948 48.19441,56.577093 48.19441,56.577093 c 0,0 -18.650765,-10.512174 -29.750491,-16.696539 l 9.656775,16.86874 20.307804,0.12813 10.003007,-17.3669 -9.186002,-16.30753 z"
                 sodipodi:nodetypes="cccccccccccccssccccccccccccccccccc" /></g></g></g></g></g></g></svg>
