<?xml version="1.0" encoding="UTF-8" standalone="no"?>
<!-- Created with Inkscape (http://www.inkscape.org/) -->

<svg
   width="50mm"
   height="50mm"
   viewBox="0 0 71.428571 71.428571"
   version="1.1"
   id="svg5"
   xml:space="preserve"
   inkscape:version="1.2.1 (9c6d41e4, 2022-07-14)"
   sodipodi:docname="icon.svg"
   inkscape:export-filename="favicon.png"
   inkscape:export-xdpi="100"
   inkscape:export-ydpi="100"
   xmlns:inkscape="http://www.inkscape.org/namespaces/inkscape"
   xmlns:sodipodi="http://sodipodi.sourceforge.net/DTD/sodipodi-0.dtd"
   xmlns="http://www.w3.org/2000/svg"
   xmlns:svg="http://www.w3.org/2000/svg"><sodipodi:namedview
     id="namedview7"
     pagecolor="#ffffff"
     bordercolor="#666666"
     borderopacity="1.0"
     inkscape:showpageshadow="2"
     inkscape:pageopacity="0.0"
     inkscape:pagecheckerboard="0"
     inkscape:deskcolor="#d1d1d1"
     inkscape:document-units="mm"
     showgrid="false"
     inkscape:zoom="0.65256194"
     inkscape:cx="90.412874"
     inkscape:cy="99.607403"
     inkscape:window-width="793"
     inkscape:window-height="426"
     inkscape:window-x="225"
     inkscape:window-y="25"
     inkscape:window-maximized="0"
     inkscape:current-layer="layer1" /><defs
     id="defs2" /><g
     inkscape:label="Layer 1"
     inkscape:groupmode="layer"
     id="layer1"
     transform="translate(-2.8384844,-3.5794788)"><text
       xml:space="preserve"
       style="font-size:14.1111px;line-height:1.25;font-family:'Gill Sans';-inkscape-font-specification:'Gill Sans';text-align:center;word-spacing:0px;text-anchor:middle;stroke-width:0.264583"
       x="39.039963"
       y="117.54423"
       id="text290"><tspan
         sodipodi:role="line"
         id="tspan288"
         style="stroke-width:0.264583"
         x="39.039963"
         y="117.54423" /></text><path
       id="path422"
       style="fill:#cc4c4c;fill-opacity:1;stroke-width:1"
       d="m 72.253038,5.5937539 -26.77201,0.0537 -26.772009,0.0543 -1.48053,0.39533 c -1.668472,0.44525 -3.980614,1.47695 -5.252908,2.34404 -1.231832,0.83951 -3.1510997,2.7257801 -4.0498827,3.9806401 -1.022339,1.42736 -2.079149,3.70861 -2.569869,5.54746 l -0.394808,1.48053 -0.05426,26.77201 -0.05426,26.77201 26.7720097,-0.0543 26.772009,-0.0543 1.48053,-0.39481 c 1.838855,-0.49072 4.120106,-1.54753 5.547465,-2.56987 1.254856,-0.89877 3.141125,-2.81805 3.980635,-4.04988 0.867087,-1.2723 1.898791,-3.58443 2.344043,-5.25291 l 0.395325,-1.48053 0.05426,-26.77201 z m -45.400256,14.2441681 23.212905,0.091 10.68927,19.364632 c 0,0 -6.624754,12.329765 -10.68927,19.365152 -7.193359,0.03033 -23.091982,0.091 -23.091982,0.091 L 16.390372,39.671874 Z m 22.372721,3.365092 C 48.52544,34.916948 48.19441,56.577093 48.19441,56.577093 c 0,0 -18.650765,-10.512174 -29.750491,-16.696539 l 9.656775,16.86874 20.307804,0.12813 10.003007,-17.3669 -9.186002,-16.30753 z"
       sodipodi:nodetypes="cccccccccccccssccccccccccccccccccc" /></g></svg>
