<?xml version="1.0" encoding="UTF-8" standalone="no"?>
<!-- Created with Inkscape (http://www.inkscape.org/) -->

<svg
   width="120mm"
   height="160mm"
   viewBox="0 0 120 160"
   version="1.1"
   id="svg5"
   xml:space="preserve"
   inkscape:version="1.2.1 (9c6d41e4, 2022-07-14)"
   sodipodi:docname="logo_v2.svg"
   xmlns:inkscape="http://www.inkscape.org/namespaces/inkscape"
   xmlns:sodipodi="http://sodipodi.sourceforge.net/DTD/sodipodi-0.dtd"
   xmlns:xlink="http://www.w3.org/1999/xlink"
   xmlns="http://www.w3.org/2000/svg"
   xmlns:svg="http://www.w3.org/2000/svg"><sodipodi:namedview
     id="namedview7"
     pagecolor="#ffffff"
     bordercolor="#666666"
     borderopacity="1.0"
     inkscape:showpageshadow="2"
     inkscape:pageopacity="0.0"
     inkscape:pagecheckerboard="0"
     inkscape:deskcolor="#d1d1d1"
     inkscape:document-units="mm"
     showgrid="false"
     inkscape:zoom="1.5099649"
     inkscape:cx="332.7892"
     inkscape:cy="305.63625"
     inkscape:window-width="1456"
     inkscape:window-height="953"
     inkscape:window-x="2493"
     inkscape:window-y="83"
     inkscape:window-maximized="0"
     inkscape:current-layer="g11622" /><defs
     id="defs2"><linearGradient
       id="linearGradient6266"><stop
         style="stop-color:#862828;stop-opacity:1;"
         offset="0"
         id="stop6270" /><stop
         style="stop-color:#cc4c4c;stop-opacity:1;"
         offset="0.86280489"
         id="stop6272" /></linearGradient><linearGradient
       inkscape:collect="always"
       xlink:href="#linearGradient6266"
       id="linearGradient6268"
       x1="-334.37213"
       y1="207.86177"
       x2="-335.69641"
       y2="109.88765"
       gradientUnits="userSpaceOnUse" /></defs><g
     inkscape:label="Layer 1"
     inkscape:groupmode="layer"
     id="layer1"
     transform="translate(383.466,-86.918726)"><g
       id="g11622"
       transform="translate(10.78879,8.6437427)"><path
         id="path2612"
         style="fill:#20242b;fill-opacity:1;stroke-width:1"
         d="m -335.38005,86.918726 -20.14192,11.810131 c -26.43909,15.502583 -25.84977,15.150863 -26.69191,15.928743 -1.25315,1.1579 -1.25212,1.12544 -1.25212,29.27883 0,28.15163 -0.002,28.1138 1.25212,29.28814 0.60535,0.567 45.39712,27.02691 46.63488,27.5487 0.21829,0.092 0.93266,0.1296 1.5875,0.0832 l 1.19063,-0.0842 22.48958,-13.16767 c 26.28108,-15.38768 24.08139,-14.02097 24.74267,-15.37529 l 0.52504,-1.07539 -0.006,-27.23503 -0.006,-27.23451 -0.48937,-1.07745 -0.48938,-1.07694 -13.46171,-7.88841 c -7.40391,-4.3384 -15.00901,-8.802443 -16.90078,-9.920322 -1.89177,-1.117879 -6.42798,-3.78071 -10.08,-5.917468 l -6.63991,-3.885034 h -1.13171 z m 2.05156,1.656229 22.62187,13.298935 c 12.44202,7.31424 22.88977,13.54567 23.21719,13.84773 l 0.59531,0.54932 v 27.55336 27.55335 l -0.7276,0.6656 c -0.40018,0.36618 -7.21651,4.45653 -15.1474,9.08936 -7.93087,4.63284 -17.81308,10.41159 -21.96041,12.84211 -4.14734,2.43054 -7.92189,4.61388 -8.3876,4.85139 -1.03648,0.52858 -1.3178,0.52687 -2.32803,-0.015 -0.43657,-0.23416 -10.02111,-5.84463 -21.29896,-12.46746 -11.27785,-6.62283 -21.21958,-12.45532 -22.0927,-12.96148 -0.87312,-0.50615 -1.8554,-1.16311 -2.18282,-1.45934 l -0.59531,-0.53847 V 143.8279 116.27093 l 0.59531,-0.54932 c 0.32742,-0.30224 10.77517,-6.53268 23.21719,-13.84515 l 22.62188,-13.295314 0.92604,-0.0031 z" /><path
         id="path2614"
         style="fill:url(#linearGradient6268);fill-opacity:1;stroke-width:1"
         d="m -356.3028,110.04445 c -13.24051,-0.1244 -22.29647,13.47129 -15.96078,25.56329 l 0.35657,0.68058 -0.0114,-2.7621 c -0.0276,-6.63958 2.65753,-11.58546 7.614,-14.0255 l 1.80093,-0.88677 2.43654,-0.10645 c 7.60092,-0.33245 13.97726,5.33599 14.935,13.2767 l 0.18656,1.54926 -1.34359,-0.22634 c -1.27404,-0.215 -5.67264,-0.2199 -5.88595,-0.006 -0.11832,0.11833 1.44901,3.66975 1.71411,3.884 0.1003,0.0811 1.13492,1.13727 2.29909,2.34714 l 2.11666,2.19987 -1.08159,-0.53899 -1.08158,-0.53898 -1.3901,0.64389 c -0.76432,0.35411 -2.66889,1.67684 -4.23282,2.93935 l -2.84375,2.29547 -7.75095,1.64951 c -4.26309,0.90727 -7.82496,1.75496 -7.91476,1.88412 -0.0898,0.12917 -1.29113,1.71791 -2.67012,3.53054 l -2.50734,3.29592 -0.96945,3.30729 c -1.16909,3.98768 -1.29325,3.82276 1.39268,1.85209 l 2.2102,-1.62109 0.0672,0.61185 c 0.0371,0.33667 0.16746,2.16022 0.28939,4.05194 l 0.22169,3.43959 -1.25212,3.7393 -1.25264,3.73983 1.42627,1.63504 c 1.72865,1.98205 1.73127,1.76037 -0.0289,2.53886 -1.76988,0.78272 -1.98681,-0.0846 1.52756,6.10144 l 2.98224,5.25033 2.19677,0.49402 c 2.67882,0.60277 2.53444,0.77414 1.74976,-2.07791 -0.8341,-3.03162 -0.86714,-2.82927 0.64079,-3.93619 1.65794,-1.21704 1.69918,-1.2101 2.76417,0.45475 l 0.89762,1.40302 0.47336,3.13004 0.47284,3.12952 2.67219,2.60346 v 5.2e-4 c 1.46978,1.43203 2.74362,2.60669 2.83032,2.61069 0.0867,0.004 0.49916,-2.79946 0.91674,-6.22959 l 0.75964,-6.23631 2.14354,0.17828 2.14354,0.1788 0.32194,-1.43764 c 0.49582,-2.21558 0.86017,-3.44035 0.98599,-3.31452 0.09,0.09 0.90537,10.06501 0.90537,10.06501 l 3.80493,10.12032 11.36158,-6.00015 0.003,-0.16434 5.92419,11.84838 -1.98851,-17.89814 5.39812,9.37514 14.20482,-2.27273 -11.36417,-7.95455 7.95456,-8.52299 v 12.21631 l 6.53448,-1.42059 3.69332,-18.46657 11.07994,11.64786 -0.85266,-2.84065 3.12539,-2.27273 -4.82968,-7.95507 6.53397,-2.84065 0.56844,8.8067 1.07539,-6.16552 -0.28371,-26.42113 -6.8187,-6.25026 -1.13637,-9.94358 -16.76176,-12.78423 -2.27273,11.93209 -1.70481,0.85214 -0.2837,15.90962 -11.36417,4.54546 -4.82968,13.6369 -8.21086,2.83187 c 0.0422,-3.56046 0.0562,-6.09463 0.0258,-6.12831 -0.0456,-0.0505 -1.60922,1.22325 -3.47472,2.83032 l -3.39152,2.92178 -0.0765,-2.38177 -0.0765,-2.38176 1.89394,-2.5306 1.89343,-2.53059 1.19941,-4.59817 c 0.92564,-3.54978 1.29547,-4.597 1.62212,-4.593 0.70519,0.01 6.42653,1.52537 6.64404,1.7601 0.11157,0.12041 0.39768,0.90319 0.63614,1.73994 0.56871,1.9956 0.56486,1.99803 2.37246,-1.45676 l 1.5565,-2.97501 -2.50889,-4.39766 -2.50889,-4.39767 -0.15142,-3.27525 c -0.59649,-12.89495 -7.92709,-21.50941 -19.78845,-23.25336 -0.91658,-0.13476 -1.81791,-0.20357 -2.70061,-0.21187 z m 47.48806,11.83338 11.07994,7.67085 -6.25026,4.26124 1.7048,-4.54546 -4.82968,-4.26124 -4.26124,9.37514 z m 11.94397,27.57816 7.93802,4.7625 -2.04122,10.88616 -1.81436,-10.43244 -2.26808,5.66994 -1.13378,-3.62872 -4.98936,0.90692 z m -17.91002,1.1157 -9.94306,11.93209 8.523,-1.70429 -12.50053,5.1139 6.25026,-13.06846 z m -40.24302,10.46034 c 0.52511,-0.004 0.34959,0.5967 0.11214,2.1947 l -0.32659,2.19728 1.35547,2.53525 c 1.9939,3.73031 1.78828,3.96993 -1.92857,2.24482 l -2.4908,-1.156 -0.88315,0.58601 c -0.48563,0.32235 -1.32324,0.85235 -1.86139,1.17771 l -0.97823,0.59117 -0.25683,-1.0051 c -0.14111,-0.55291 -0.33575,-1.39579 -0.43305,-1.87327 l -0.17725,-0.86817 1.54409,-2.4908 1.54461,-2.49029 2.51354,-0.9126 c 1.2197,-0.44277 1.90673,-0.72805 2.26601,-0.73071 z m 5.08186,1.29553 c 0.20784,-0.002 0.32484,0.85513 0.54777,2.96416 l 0.26562,2.51354 -0.48111,0.49403 -0.48111,0.49402 -0.13642,-0.49402 c -0.0751,-0.27177 -0.2744,-1.26793 -0.44235,-2.21382 l -0.30541,-1.71979 0.5178,-1.19063 c 0.23278,-0.53526 0.39051,-0.84617 0.51521,-0.84749 z m 4.96352,6.72259 c 10e-4,-1.2e-4 0.002,4.2e-4 0.003,0.001 0.11842,0.11842 -0.86357,8.1608 -1.01492,8.31215 -0.0721,0.0721 -0.33875,-0.41169 -0.59221,-1.07538 -0.61069,-1.59905 -0.70671,-1.55608 -2.03089,0.9064 -1.36443,2.5374 -1.3191,2.52992 -3.10162,0.50488 l -1.42213,-1.6154 1.3255,0.094 1.32498,0.0941 2.71612,-3.64991 c 1.47047,-1.97593 2.71233,-3.56402 2.79207,-3.57187 z m -22.11079,0.22169 c 0.21369,-0.014 0.2744,0.30475 0.2744,0.894 0,0.57282 0.27355,1.21822 0.79375,1.87275 1.0265,1.29168 1.06862,1.18421 -0.92294,2.34922 l -1.71669,1.00459 0.26148,0.48834 c 0.36869,0.68888 0.35135,0.72797 -0.51935,1.17822 -1.12868,0.58367 -1.38553,0.50895 -2.19573,-0.63665 -0.94231,-1.33238 -1.06471,-0.98438 1.55546,-4.42092 1.43034,-1.87604 2.13625,-2.70764 2.46962,-2.72955 z m 8.22172,5.86682 c 0.19775,-0.007 0.25476,0.16553 0.25476,0.48008 0,0.84362 0.58123,0.86791 2.48719,0.1049 2.2679,-0.9079 2.28584,-0.84959 0.38912,1.27227 l -1.58595,1.77406 -0.87798,2.58744 -0.87798,2.58743 -0.16588,-0.66145 c -0.0912,-0.36381 -0.34168,-1.60163 -0.55604,-2.75074 -0.476,-2.55177 -0.34215,-2.42449 -2.18643,-2.08566 -2.00615,0.36858 -2.01755,0.40211 0.56482,-1.61437 1.50354,-1.17405 2.22478,-1.68257 2.55437,-1.69396 z m 27.0707,5.38779 -1.81436,7.25744 9.97923,-5.8968 -15.19545,12.47366 2.26808,-4.98936 -3.85558,-1.81436 z" /><text
         xml:space="preserve"
         style="font-size:28.2222px;line-height:1.25;font-family:rasa;-inkscape-font-specification:rasa;text-align:center;word-spacing:0px;text-anchor:middle;stroke-width:0.264582"
         x="-332.93054"
         y="229.23613"
         id="text6277"><tspan
           sodipodi:role="line"
           id="tspan6275"
           style="font-style:normal;font-variant:normal;font-weight:normal;font-stretch:normal;font-family:'space grotesk';-inkscape-font-specification:'space grotesk';fill:#20242b;fill-opacity:1;stroke-width:0.264582"
           x="-332.93054"
           y="229.23613">CAPRO</tspan></text></g></g></svg>
